<svg xmlns="http://www.w3.org/2000/svg" xmlns:xlink="http://www.w3.org/1999/xlink" contentStyleType="text/css" data-diagram-type="ACTIVITY" height="1027px" preserveAspectRatio="none" style="width:769px;height:1027px;background:#FFFFFF;" version="1.1" viewBox="0 0 769 1027" width="769px" zoomAndPan="magnify"><title>Automated Fueling Process (Driver/AV - Happy Path)</title><defs/><g><g class="title" data-source-line="1"><text fill="#000000" font-family="sans-serif" font-size="14" font-weight="bold" lengthAdjust="spacing" textLength="417.3955" x="174.6711" y="32.9951">Automated Fueling Process (Driver/AV - Happy Path)</text></g><rect fill="none" height="20.9531" style="stroke:none;stroke-width:1;" width="736.7378" x="15" y="50.042"/><ellipse cx="112.6797" cy="85.9951" fill="#222222" rx="10" ry="10" style="stroke:#222222;stroke-width:1;"/><rect fill="#F1F1F1" height="33.9688" rx="12.5" ry="12.5" style="stroke:#181818;stroke-width:0.5;" width="137.3867" x="43.9863" y="115.9951"/><text fill="#000000" font-family="sans-serif" font-size="12" lengthAdjust="spacing" textLength="117.3867" x="53.9863" y="137.1338">Approaches Station</text><rect fill="#F1F1F1" height="47.9375" rx="12.5" ry="12.5" style="stroke:#181818;stroke-width:0.5;" width="183.3594" x="21" y="277.9014"/><text fill="#000000" font-family="sans-serif" font-size="12" lengthAdjust="spacing" textLength="163.3594" x="31" y="299.04">Confirms Fuel/Charge Type</text><text fill="#000000" font-family="sans-serif" font-size="12" lengthAdjust="spacing" textLength="146.1797" x="31" y="313.0088">(or system uses default)</text><rect fill="#F1F1F1" height="33.9688" rx="12.5" ry="12.5" style="stroke:#181818;stroke-width:0.5;" width="177.9512" x="23.7041" y="507.7451"/><text fill="#000000" font-family="sans-serif" font-size="12" lengthAdjust="spacing" textLength="157.9512" x="33.7041" y="528.8838">Monitors Fueling/Charging</text><rect fill="#F1F1F1" height="33.9688" rx="12.5" ry="12.5" style="stroke:#181818;stroke-width:0.5;" width="165.6758" x="29.8418" y="885.5264"/><text fill="#000000" font-family="sans-serif" font-size="12" lengthAdjust="spacing" textLength="145.6758" x="39.8418" y="906.665">Receives Digital Receipt</text><rect fill="#F1F1F1" height="33.9688" rx="12.5" ry="12.5" style="stroke:#181818;stroke-width:0.5;" width="113.9609" x="55.6992" y="939.4951"/><text fill="#000000" font-family="sans-serif" font-size="12" lengthAdjust="spacing" textLength="93.9609" x="65.6992" y="960.6338">Departs Station</text><ellipse cx="112.6797" cy="1004.4639" fill="none" rx="11" ry="11" style="stroke:#222222;stroke-width:1;"/><ellipse cx="112.6797" cy="1004.4639" fill="#222222" rx="6" ry="6" style="stroke:#222222;stroke-width:1;"/><line style="stroke:#000000;stroke-width:1.5;" x1="15" x2="15" y1="50.042" y2="1015.4639"/><rect fill="#F1F1F1" height="33.9688" rx="12.5" ry="12.5" style="stroke:#181818;stroke-width:0.5;" width="185.2227" x="248.6807" y="169.9639"/><text fill="#000000" font-family="sans-serif" font-size="12" lengthAdjust="spacing" textLength="165.2227" x="258.6807" y="191.1025">Detects Vehicle (V2X/Plate)</text><rect fill="#F1F1F1" height="33.9688" rx="12.5" ry="12.5" style="stroke:#181818;stroke-width:0.5;" width="192.1074" x="245.2383" y="223.9326"/><text fill="#000000" font-family="sans-serif" font-size="12" lengthAdjust="spacing" textLength="172.1074" x="255.2383" y="245.0713">Preloads Vehicle/User Profile</text><rect fill="#F1F1F1" height="33.9688" rx="12.5" ry="12.5" style="stroke:#181818;stroke-width:0.5;" width="147.4824" x="267.5508" y="345.8389"/><text fill="#000000" font-family="sans-serif" font-size="12" lengthAdjust="spacing" textLength="127.4824" x="277.5508" y="366.9775">Authorizes Dispenser</text><rect fill="#F1F1F1" height="33.9688" rx="12.5" ry="12.5" style="stroke:#181818;stroke-width:0.5;" width="235.2383" x="223.6729" y="399.8076"/><text fill="#000000" font-family="sans-serif" font-size="12" lengthAdjust="spacing" textLength="215.2383" x="233.6729" y="420.9463">Robotic Arm Engages (if applicable)</text><rect fill="#F1F1F1" height="33.9688" rx="12.5" ry="12.5" style="stroke:#181818;stroke-width:0.5;" width="156.623" x="262.9805" y="453.7764"/><text fill="#000000" font-family="sans-serif" font-size="12" lengthAdjust="spacing" textLength="136.623" x="272.9805" y="474.915">Dispenses Fuel/Energy</text><rect fill="#F1F1F1" height="33.9688" rx="12.5" ry="12.5" style="stroke:#181818;stroke-width:0.5;" width="183.916" x="249.334" y="561.7139"/><text fill="#000000" font-family="sans-serif" font-size="12" lengthAdjust="spacing" textLength="163.916" x="259.334" y="582.8525">Fueling/Charging Complete</text><rect fill="#F1F1F1" height="33.9688" rx="12.5" ry="12.5" style="stroke:#181818;stroke-width:0.5;" width="253.8652" x="214.3594" y="615.6826"/><text fill="#000000" font-family="sans-serif" font-size="12" lengthAdjust="spacing" textLength="233.8652" x="224.3594" y="636.8213">Robotic Arm Disengages (if applicable)</text><rect fill="#F1F1F1" height="33.9688" rx="12.5" ry="12.5" style="stroke:#181818;stroke-width:0.5;" width="190.4023" x="246.0908" y="669.6514"/><text fill="#000000" font-family="sans-serif" font-size="12" lengthAdjust="spacing" textLength="170.4023" x="256.0908" y="690.79">Calculates Transaction Total</text><rect fill="#F1F1F1" height="33.9688" rx="12.5" ry="12.5" style="stroke:#181818;stroke-width:0.5;" width="182.7676" x="249.9082" y="777.5889"/><text fill="#000000" font-family="sans-serif" font-size="12" lengthAdjust="spacing" textLength="162.7676" x="259.9082" y="798.7275">Confirms Payment Success</text><rect fill="#F1F1F1" height="33.9688" rx="12.5" ry="12.5" style="stroke:#181818;stroke-width:0.5;" width="174.2012" x="254.1914" y="831.5576"/><text fill="#000000" font-family="sans-serif" font-size="12" lengthAdjust="spacing" textLength="154.2012" x="264.1914" y="852.6963">Generates Digital Receipt</text><line style="stroke:#000000;stroke-width:1.5;" x1="208.3594" x2="208.3594" y1="50.042" y2="1015.4639"/><rect fill="#F1F1F1" height="33.9688" rx="12.5" ry="12.5" style="stroke:#181818;stroke-width:0.5;" width="267.6523" x="478.2246" y="723.6201"/><text fill="#000000" font-family="sans-serif" font-size="12" lengthAdjust="spacing" textLength="247.6523" x="488.2246" y="744.7588">Processes Payment (contactless/profiled)</text><line style="stroke:#000000;stroke-width:1.5;" x1="472.2246" x2="472.2246" y1="50.042" y2="1015.4639"/><line style="stroke:#000000;stroke-width:1.5;" x1="749.877" x2="749.877" y1="50.042" y2="1015.4639"/><line style="stroke:#181818;stroke-width:1;" x1="112.6797" x2="112.6797" y1="95.9951" y2="115.9951"/><polygon fill="#181818" points="108.6797,105.9951,112.6797,115.9951,116.6797,105.9951,112.6797,109.9951" style="stroke:#181818;stroke-width:1;"/><line style="stroke:#181818;stroke-width:1;" x1="112.6797" x2="112.6797" y1="919.4951" y2="939.4951"/><polygon fill="#181818" points="108.6797,929.4951,112.6797,939.4951,116.6797,929.4951,112.6797,933.4951" style="stroke:#181818;stroke-width:1;"/><line style="stroke:#181818;stroke-width:1;" x1="112.6797" x2="112.6797" y1="973.4639" y2="993.4639"/><polygon fill="#181818" points="108.6797,983.4639,112.6797,993.4639,116.6797,983.4639,112.6797,987.4639" style="stroke:#181818;stroke-width:1;"/><line style="stroke:#181818;stroke-width:1;" x1="341.292" x2="341.292" y1="203.9326" y2="223.9326"/><polygon fill="#181818" points="337.292,213.9326,341.292,223.9326,345.292,213.9326,341.292,217.9326" style="stroke:#181818;stroke-width:1;"/><line style="stroke:#181818;stroke-width:1;" x1="341.292" x2="341.292" y1="379.8076" y2="399.8076"/><polygon fill="#181818" points="337.292,389.8076,341.292,399.8076,345.292,389.8076,341.292,393.8076" style="stroke:#181818;stroke-width:1;"/><line style="stroke:#181818;stroke-width:1;" x1="341.292" x2="341.292" y1="433.7764" y2="453.7764"/><polygon fill="#181818" points="337.292,443.7764,341.292,453.7764,345.292,443.7764,341.292,447.7764" style="stroke:#181818;stroke-width:1;"/><line style="stroke:#181818;stroke-width:1;" x1="341.292" x2="341.292" y1="595.6826" y2="615.6826"/><polygon fill="#181818" points="337.292,605.6826,341.292,615.6826,345.292,605.6826,341.292,609.6826" style="stroke:#181818;stroke-width:1;"/><line style="stroke:#181818;stroke-width:1;" x1="341.292" x2="341.292" y1="649.6514" y2="669.6514"/><polygon fill="#181818" points="337.292,659.6514,341.292,669.6514,345.292,659.6514,341.292,663.6514" style="stroke:#181818;stroke-width:1;"/><line style="stroke:#181818;stroke-width:1;" x1="341.292" x2="341.292" y1="811.5576" y2="831.5576"/><polygon fill="#181818" points="337.292,821.5576,341.292,831.5576,345.292,821.5576,341.292,825.5576" style="stroke:#181818;stroke-width:1;"/><line style="stroke:#181818;stroke-width:1;" x1="112.6797" x2="112.6797" y1="149.9639" y2="154.9639"/><line style="stroke:#181818;stroke-width:1;" x1="112.6797" x2="341.292" y1="154.9639" y2="154.9639"/><line style="stroke:#181818;stroke-width:1;" x1="341.292" x2="341.292" y1="154.9639" y2="169.9639"/><polygon fill="#181818" points="337.292,159.9639,341.292,169.9639,345.292,159.9639,341.292,163.9639" style="stroke:#181818;stroke-width:1;"/><line style="stroke:#181818;stroke-width:1;" x1="341.292" x2="341.292" y1="257.9014" y2="262.9014"/><line style="stroke:#181818;stroke-width:1;" x1="341.292" x2="112.6797" y1="262.9014" y2="262.9014"/><line style="stroke:#181818;stroke-width:1;" x1="112.6797" x2="112.6797" y1="262.9014" y2="277.9014"/><polygon fill="#181818" points="108.6797,267.9014,112.6797,277.9014,116.6797,267.9014,112.6797,271.9014" style="stroke:#181818;stroke-width:1;"/><line style="stroke:#181818;stroke-width:1;" x1="112.6797" x2="112.6797" y1="325.8389" y2="330.8389"/><line style="stroke:#181818;stroke-width:1;" x1="112.6797" x2="341.292" y1="330.8389" y2="330.8389"/><line style="stroke:#181818;stroke-width:1;" x1="341.292" x2="341.292" y1="330.8389" y2="345.8389"/><polygon fill="#181818" points="337.292,335.8389,341.292,345.8389,345.292,335.8389,341.292,339.8389" style="stroke:#181818;stroke-width:1;"/><line style="stroke:#181818;stroke-width:1;" x1="341.292" x2="341.292" y1="487.7451" y2="492.7451"/><line style="stroke:#181818;stroke-width:1;" x1="341.292" x2="112.6797" y1="492.7451" y2="492.7451"/><line style="stroke:#181818;stroke-width:1;" x1="112.6797" x2="112.6797" y1="492.7451" y2="507.7451"/><polygon fill="#181818" points="108.6797,497.7451,112.6797,507.7451,116.6797,497.7451,112.6797,501.7451" style="stroke:#181818;stroke-width:1;"/><line style="stroke:#181818;stroke-width:1;" x1="112.6797" x2="112.6797" y1="541.7139" y2="546.7139"/><line style="stroke:#181818;stroke-width:1;" x1="112.6797" x2="341.292" y1="546.7139" y2="546.7139"/><line style="stroke:#181818;stroke-width:1;" x1="341.292" x2="341.292" y1="546.7139" y2="561.7139"/><polygon fill="#181818" points="337.292,551.7139,341.292,561.7139,345.292,551.7139,341.292,555.7139" style="stroke:#181818;stroke-width:1;"/><line style="stroke:#181818;stroke-width:1;" x1="341.292" x2="341.292" y1="703.6201" y2="708.6201"/><line style="stroke:#181818;stroke-width:1;" x1="341.292" x2="612.0508" y1="708.6201" y2="708.6201"/><line style="stroke:#181818;stroke-width:1;" x1="612.0508" x2="612.0508" y1="708.6201" y2="723.6201"/><polygon fill="#181818" points="608.0508,713.6201,612.0508,723.6201,616.0508,713.6201,612.0508,717.6201" style="stroke:#181818;stroke-width:1;"/><line style="stroke:#181818;stroke-width:1;" x1="612.0508" x2="612.0508" y1="757.5889" y2="762.5889"/><line style="stroke:#181818;stroke-width:1;" x1="612.0508" x2="341.292" y1="762.5889" y2="762.5889"/><line style="stroke:#181818;stroke-width:1;" x1="341.292" x2="341.292" y1="762.5889" y2="777.5889"/><polygon fill="#181818" points="337.292,767.5889,341.292,777.5889,345.292,767.5889,341.292,771.5889" style="stroke:#181818;stroke-width:1;"/><line style="stroke:#181818;stroke-width:1;" x1="341.292" x2="341.292" y1="865.5264" y2="870.5264"/><line style="stroke:#181818;stroke-width:1;" x1="341.292" x2="112.6797" y1="870.5264" y2="870.5264"/><line style="stroke:#181818;stroke-width:1;" x1="112.6797" x2="112.6797" y1="870.5264" y2="885.5264"/><polygon fill="#181818" points="108.6797,875.5264,112.6797,885.5264,116.6797,875.5264,112.6797,879.5264" style="stroke:#181818;stroke-width:1;"/><text fill="#000000" font-family="sans-serif" font-size="18" lengthAdjust="spacing" textLength="86.0801" x="68.6396" y="66.75">Driver/AV</text><text fill="#000000" font-family="sans-serif" font-size="18" lengthAdjust="spacing" textLength="234.8438" x="222.8701" y="66.75">SmartFuel Station System</text><text fill="#000000" font-family="sans-serif" font-size="18" lengthAdjust="spacing" textLength="164.8477" x="528.627" y="66.75">Payment Gateway</text><!--SRC=[XP91Ry8m38Nl_HK-biDKQKSuLS3OPL853ErgKjD6IfCeSPawzSVFBIlQqCPkaP_jz-avhDaGv2sx1fbAU6h9Q5j14PoY625T1NscaEK7U81dzBw30hcU9Kb_LVeaCWPEvhdtmQ6gASAEaRMpYwJVDQ8DQwSQxBh8rFJ9V4LCYYCSgDPACDB3urjM606PBP9v4SWuBAzozXef360dRMZnmt- -TFQaGnD7_cnPOwW8zfsd97K1ucW8RHImaaxO6fxT9vD0QXVqXmoiTFHanLgGjkxeM2l8GmDhMs4bUgfF8BaOhV1eHl1fuejcRIbKtGtmYxEQNOXJu1TcUTpdkks6fMkyaHXlu0I1_kHReb7ja7A4VK0RKOqcUyTenBx0hY7Bi96ET-pwuHBZPv3-IKkLionpHigPlvoa_2VJwusc9RjM3Mk5Q4EIqGYqqfKM3DYI8ktv9hMnUlwjJVwI5-Tl7o-oyvy0]--></g></svg>