<svg xmlns="http://www.w3.org/2000/svg" xmlns:xlink="http://www.w3.org/1999/xlink" contentStyleType="text/css" data-diagram-type="ACTIVITY" height="1454px" preserveAspectRatio="none" style="width:2160px;height:1454px;background:#FFFFFF;" version="1.1" viewBox="0 0 2160 1454" width="2160px" zoomAndPan="magnify"><title>Automated Fuel Reordering and Drone Delivery Process</title><defs/><g><g class="title" data-source-line="1"><text fill="#000000" font-family="sans-serif" font-size="14" font-weight="bold" lengthAdjust="spacing" textLength="442.0801" x="857.8936" y="32.9951">Automated Fuel Reordering and Drone Delivery Process</text></g><rect fill="none" height="20.9531" style="stroke:none;stroke-width:1;" width="2127.8672" x="15" y="50.042"/><ellipse cx="513.8569" cy="85.9951" fill="#222222" rx="10" ry="10" style="stroke:#222222;stroke-width:1;"/><rect fill="#F1F1F1" height="33.9688" rx="12.5" ry="12.5" style="stroke:#181818;stroke-width:0.5;" width="219.4648" x="404.1245" y="115.9951"/><text fill="#000000" font-family="sans-serif" font-size="12" lengthAdjust="spacing" textLength="199.4648" x="414.1245" y="137.1338">Monitor Underground Fuel Levels</text><polygon fill="#F1F1F1" points="447.6824,169.9639,580.0315,169.9639,592.0315,181.9639,580.0315,193.9639,447.6824,193.9639,435.6824,181.9639,447.6824,169.9639" style="stroke:#181818;stroke-width:0.5;"/><text fill="#000000" font-family="sans-serif" font-size="11" lengthAdjust="spacing" textLength="132.3491" x="447.6824" y="185.772">Fuel Level &lt; Threshold?</text><text fill="#000000" font-family="sans-serif" font-size="11" lengthAdjust="spacing" textLength="19.0083" x="416.6741" y="179.3696">yes</text><text fill="#000000" font-family="sans-serif" font-size="11" lengthAdjust="spacing" textLength="13.7017" x="592.0315" y="179.3696">no</text><rect fill="#F1F1F1" height="33.9688" rx="12.5" ry="12.5" style="stroke:#181818;stroke-width:0.5;" width="251.3105" x="134.9712" y="213.9639"/><text fill="#000000" font-family="sans-serif" font-size="12" lengthAdjust="spacing" textLength="231.3105" x="144.9712" y="235.1025">Generate Automated Reorder Request</text><rect fill="#F1F1F1" height="33.9688" rx="12.5" ry="12.5" style="stroke:#181818;stroke-width:0.5;" width="266.9961" x="127.1284" y="267.9326"/><text fill="#000000" font-family="sans-serif" font-size="12" lengthAdjust="spacing" textLength="246.9961" x="137.1284" y="289.0713">Send Reorder Request to Central System</text><rect fill="#F1F1F1" height="33.9688" rx="12.5" ry="12.5" style="stroke:#181818;stroke-width:0.5;" width="170.4863" x="21" y="1028.5264"/><text fill="#000000" font-family="sans-serif" font-size="12" lengthAdjust="spacing" textLength="150.4863" x="31" y="1049.665">Prepare for Drone Arrival</text><polygon fill="#F1F1F1" points="513.8569,1322.3701,525.8569,1334.3701,513.8569,1346.3701,501.8569,1334.3701,513.8569,1322.3701" style="stroke:#181818;stroke-width:0.5;"/><rect fill="#F1F1F1" height="33.9688" rx="12.5" ry="12.5" style="stroke:#181818;stroke-width:0.5;" width="142.0684" x="442.8228" y="1366.3701"/><text fill="#000000" font-family="sans-serif" font-size="12" lengthAdjust="spacing" textLength="122.0684" x="452.8228" y="1387.5088">Fuel Levels Updated</text><ellipse cx="513.8569" cy="1431.3389" fill="none" rx="11" ry="11" style="stroke:#222222;stroke-width:1;"/><ellipse cx="513.8569" cy="1431.3389" fill="#222222" rx="6" ry="6" style="stroke:#222222;stroke-width:1;"/><line style="stroke:#000000;stroke-width:1.5;" x1="15" x2="15" y1="50.042" y2="1442.3389"/><rect fill="#F1F1F1" height="33.9688" rx="12.5" ry="12.5" style="stroke:#181818;stroke-width:0.5;" width="172.3613" x="841.4131" y="321.9014"/><text fill="#000000" font-family="sans-serif" font-size="12" lengthAdjust="spacing" textLength="152.3613" x="851.4131" y="343.04">Receive Reorder Request</text><rect fill="#F1F1F1" height="33.9688" rx="12.5" ry="12.5" style="stroke:#181818;stroke-width:0.5;" width="223.3145" x="815.9365" y="375.8701"/><text fill="#000000" font-family="sans-serif" font-size="12" lengthAdjust="spacing" textLength="203.3145" x="825.9365" y="397.0088">Verify Request &amp; Check Inventory</text><rect fill="#F1F1F1" height="33.9688" rx="12.5" ry="12.5" style="stroke:#181818;stroke-width:0.5;" width="192.4824" x="831.3525" y="429.8389"/><text fill="#000000" font-family="sans-serif" font-size="12" lengthAdjust="spacing" textLength="172.4824" x="841.3525" y="450.9775">Select Fuel Company/Source</text><rect fill="#F1F1F1" height="33.9688" rx="12.5" ry="12.5" style="stroke:#181818;stroke-width:0.5;" width="242.0645" x="806.5615" y="483.8076"/><text fill="#000000" font-family="sans-serif" font-size="12" lengthAdjust="spacing" textLength="222.0645" x="816.5615" y="504.9463">Determine Drone Delivery Feasibility</text><polygon fill="#F1F1F1" points="858.9028,537.7764,996.2847,537.7764,1008.2847,549.7764,996.2847,561.7764,858.9028,561.7764,846.9028,549.7764,858.9028,537.7764" style="stroke:#181818;stroke-width:0.5;"/><text fill="#000000" font-family="sans-serif" font-size="11" lengthAdjust="spacing" textLength="137.3818" x="858.9028" y="553.5845">Drone Delivery Feasible?</text><text fill="#000000" font-family="sans-serif" font-size="11" lengthAdjust="spacing" textLength="19.0083" x="827.8945" y="547.1821">yes</text><text fill="#000000" font-family="sans-serif" font-size="11" lengthAdjust="spacing" textLength="191.2861" x="1008.2847" y="547.1821">no, e.g., weather, GACA restriction</text><rect fill="#F1F1F1" height="33.9688" rx="12.5" ry="12.5" style="stroke:#181818;stroke-width:0.5;" width="279.2422" x="633.5894" y="581.7764"/><text fill="#000000" font-family="sans-serif" font-size="12" lengthAdjust="spacing" textLength="259.2422" x="643.5894" y="602.915">Access GACA for No-Fly Zones &amp; Clearance</text><rect fill="#F1F1F1" height="33.9688" rx="12.5" ry="12.5" style="stroke:#181818;stroke-width:0.5;" width="169.0859" x="688.6675" y="758.6826"/><text fill="#000000" font-family="sans-serif" font-size="12" lengthAdjust="spacing" textLength="149.0859" x="698.6675" y="779.8213">Schedule Drone Delivery</text><rect fill="#F1F1F1" height="33.9688" rx="12.5" ry="12.5" style="stroke:#181818;stroke-width:0.5;" width="271.1328" x="637.644" y="812.6514"/><text fill="#000000" font-family="sans-serif" font-size="12" lengthAdjust="spacing" textLength="251.1328" x="647.644" y="833.79">Assign Drone &amp; Notify Drone Pilot/System</text><rect fill="#F1F1F1" height="33.9688" rx="12.5" ry="12.5" style="stroke:#181818;stroke-width:0.5;" width="176.8672" x="684.7769" y="1190.4326"/><text fill="#000000" font-family="sans-serif" font-size="12" lengthAdjust="spacing" textLength="156.8672" x="694.7769" y="1211.5713">Update Inventory Records</text><rect fill="#F1F1F1" height="33.9688" rx="12.5" ry="12.5" style="stroke:#181818;stroke-width:0.5;" width="95.2695" x="725.5757" y="1244.4014"/><text fill="#000000" font-family="sans-serif" font-size="12" lengthAdjust="spacing" textLength="75.2695" x="735.5757" y="1265.54">Log Delivery</text><path d="M1251.1226,581.7764 L1251.1226,605.4756 L1231.1226,609.4756 L1251.1226,613.4756 L1251.1226,637.1748 A0,0 0 0 0 1251.1226,637.1748 L1439.1548,637.1748 A0,0 0 0 0 1439.1548,637.1748 L1439.1548,591.7764 L1429.1548,581.7764 L1251.1226,581.7764 A0,0 0 0 0 1251.1226,581.7764" fill="#FEFFDD" style="stroke:#181818;stroke-width:0.5;"/><path d="M1429.1548,581.7764 L1429.1548,591.7764 L1439.1548,591.7764 L1429.1548,581.7764" fill="#FEFFDD" style="stroke:#181818;stroke-width:0.5;"/><text fill="#000000" font-family="sans-serif" font-size="13" lengthAdjust="spacing" textLength="147.9258" x="1257.1226" y="598.8433">Manual intervention or</text><text fill="#000000" font-family="sans-serif" font-size="13" lengthAdjust="spacing" textLength="167.0322" x="1257.1226" y="613.9761">different logistics process</text><text fill="#000000" font-family="sans-serif" font-size="13" lengthAdjust="spacing" textLength="150.833" x="1257.1226" y="629.1089">may be triggered here.</text><rect fill="#F1F1F1" height="33.9688" rx="12.5" ry="12.5" style="stroke:#181818;stroke-width:0.5;" width="298.291" x="932.8315" y="592.4912"/><text fill="#000000" font-family="sans-serif" font-size="12" lengthAdjust="spacing" textLength="278.291" x="942.8315" y="613.6299">Initiate Alternative Refill (e.g., ground vehicle)</text><polygon fill="#F1F1F1" points="927.5938,1288.3701,939.5938,1300.3701,927.5938,1312.3701,915.5938,1300.3701,927.5938,1288.3701" style="stroke:#181818;stroke-width:0.5;"/><rect fill="#F1F1F1" height="33.9688" rx="12.5" ry="12.5" style="stroke:#181818;stroke-width:0.5;" width="212.9375" x="1449.1548" y="213.9639"/><text fill="#000000" font-family="sans-serif" font-size="12" lengthAdjust="spacing" textLength="192.9375" x="1459.1548" y="235.1025">Continue Monitoring Fuel Levels</text><line style="stroke:#000000;stroke-width:1.5;" x1="627.5894" x2="627.5894" y1="50.042" y2="1442.3389"/><rect fill="#F1F1F1" height="33.9688" rx="12.5" ry="12.5" style="stroke:#181818;stroke-width:0.5;" width="173.5801" x="1710.3335" y="650.7451"/><text fill="#000000" font-family="sans-serif" font-size="12" lengthAdjust="spacing" textLength="153.5801" x="1720.3335" y="671.8838">Provide No-Fly Zone Data</text><rect fill="#F1F1F1" height="33.9688" rx="12.5" ry="12.5" style="stroke:#181818;stroke-width:0.5;" width="250.0625" x="1672.0923" y="704.7139"/><text fill="#000000" font-family="sans-serif" font-size="12" lengthAdjust="spacing" textLength="230.0625" x="1682.0923" y="725.8525">Grant Flight Clearance (if criteria met)</text><line style="stroke:#000000;stroke-width:1.5;" x1="1666.0923" x2="1666.0923" y1="50.042" y2="1442.3389"/><rect fill="#F1F1F1" height="33.9688" rx="12.5" ry="12.5" style="stroke:#181818;stroke-width:0.5;" width="164.7852" x="1952.188" y="866.6201"/><text fill="#000000" font-family="sans-serif" font-size="12" lengthAdjust="spacing" textLength="144.7852" x="1962.188" y="887.7588">Prepare Drone for Flight</text><rect fill="#F1F1F1" height="33.9688" rx="12.5" ry="12.5" style="stroke:#181818;stroke-width:0.5;" width="149.1641" x="1959.9985" y="920.5889"/><text fill="#000000" font-family="sans-serif" font-size="12" lengthAdjust="spacing" textLength="129.1641" x="1969.9985" y="941.7275">Load Fuel onto Drone</text><rect fill="#F1F1F1" height="33.9688" rx="12.5" ry="12.5" style="stroke:#181818;stroke-width:0.5;" width="168.0078" x="1950.5767" y="974.5576"/><text fill="#000000" font-family="sans-serif" font-size="12" lengthAdjust="spacing" textLength="148.0078" x="1960.5767" y="995.6963">Execute Flight to Station</text><rect fill="#F1F1F1" height="33.9688" rx="12.5" ry="12.5" style="stroke:#181818;stroke-width:0.5;" width="204.8516" x="1932.1548" y="1082.4951"/><text fill="#000000" font-family="sans-serif" font-size="12" lengthAdjust="spacing" textLength="184.8516" x="1942.1548" y="1103.6338">Deliver Fuel to Station Storage</text><rect fill="#F1F1F1" height="33.9688" rx="12.5" ry="12.5" style="stroke:#181818;stroke-width:0.5;" width="193.6777" x="1937.7417" y="1136.4639"/><text fill="#000000" font-family="sans-serif" font-size="12" lengthAdjust="spacing" textLength="173.6777" x="1947.7417" y="1157.6025">Confirm Delivery Completion</text><line style="stroke:#000000;stroke-width:1.5;" x1="1926.1548" x2="1926.1548" y1="50.042" y2="1442.3389"/><line style="stroke:#000000;stroke-width:1.5;" x1="2141.0063" x2="2141.0063" y1="50.042" y2="1442.3389"/><line style="stroke:#181818;stroke-width:1;" x1="513.8569" x2="513.8569" y1="95.9951" y2="115.9951"/><polygon fill="#181818" points="509.8569,105.9951,513.8569,115.9951,517.8569,105.9951,513.8569,109.9951" style="stroke:#181818;stroke-width:1;"/><line style="stroke:#181818;stroke-width:1;" x1="260.6265" x2="260.6265" y1="247.9326" y2="267.9326"/><polygon fill="#181818" points="256.6265,257.9326,260.6265,267.9326,264.6265,257.9326,260.6265,261.9326" style="stroke:#181818;stroke-width:1;"/><line style="stroke:#181818;stroke-width:1;" x1="435.6824" x2="260.6265" y1="181.9639" y2="181.9639"/><line style="stroke:#181818;stroke-width:1;" x1="260.6265" x2="260.6265" y1="181.9639" y2="213.9639"/><polygon fill="#181818" points="256.6265,203.9639,260.6265,213.9639,264.6265,203.9639,260.6265,207.9639" style="stroke:#181818;stroke-width:1;"/><line style="stroke:#181818;stroke-width:1;" x1="513.8569" x2="513.8569" y1="149.9639" y2="169.9639"/><polygon fill="#181818" points="509.8569,159.9639,513.8569,169.9639,517.8569,159.9639,513.8569,163.9639" style="stroke:#181818;stroke-width:1;"/><line style="stroke:#181818;stroke-width:1;" x1="513.8569" x2="513.8569" y1="1346.3701" y2="1366.3701"/><polygon fill="#181818" points="509.8569,1356.3701,513.8569,1366.3701,517.8569,1356.3701,513.8569,1360.3701" style="stroke:#181818;stroke-width:1;"/><line style="stroke:#181818;stroke-width:1;" x1="513.8569" x2="513.8569" y1="1400.3389" y2="1420.3389"/><polygon fill="#181818" points="509.8569,1410.3389,513.8569,1420.3389,517.8569,1410.3389,513.8569,1414.3389" style="stroke:#181818;stroke-width:1;"/><line style="stroke:#181818;stroke-width:1;" x1="927.5938" x2="927.5938" y1="355.8701" y2="375.8701"/><polygon fill="#181818" points="923.5938,365.8701,927.5938,375.8701,931.5938,365.8701,927.5938,369.8701" style="stroke:#181818;stroke-width:1;"/><line style="stroke:#181818;stroke-width:1;" x1="927.5938" x2="927.5938" y1="409.8389" y2="429.8389"/><polygon fill="#181818" points="923.5938,419.8389,927.5938,429.8389,931.5938,419.8389,927.5938,423.8389" style="stroke:#181818;stroke-width:1;"/><line style="stroke:#181818;stroke-width:1;" x1="927.5938" x2="927.5938" y1="463.8076" y2="483.8076"/><polygon fill="#181818" points="923.5938,473.8076,927.5938,483.8076,931.5938,473.8076,927.5938,477.8076" style="stroke:#181818;stroke-width:1;"/><line style="stroke:#181818;stroke-width:1;" x1="773.2104" x2="773.2104" y1="792.6514" y2="812.6514"/><polygon fill="#181818" points="769.2104,802.6514,773.2104,812.6514,777.2104,802.6514,773.2104,806.6514" style="stroke:#181818;stroke-width:1;"/><line style="stroke:#181818;stroke-width:1;" x1="773.2104" x2="773.2104" y1="1224.4014" y2="1244.4014"/><polygon fill="#181818" points="769.2104,1234.4014,773.2104,1244.4014,777.2104,1234.4014,773.2104,1238.4014" style="stroke:#181818;stroke-width:1;"/><line style="stroke:#181818;stroke-width:1;" x1="846.9028" x2="773.2104" y1="549.7764" y2="549.7764"/><line style="stroke:#181818;stroke-width:1;" x1="773.2104" x2="773.2104" y1="549.7764" y2="581.7764"/><polygon fill="#181818" points="769.2104,571.7764,773.2104,581.7764,777.2104,571.7764,773.2104,575.7764" style="stroke:#181818;stroke-width:1;"/><line style="stroke:#181818;stroke-width:1;" x1="1008.2847" x2="1081.9771" y1="549.7764" y2="549.7764"/><line style="stroke:#181818;stroke-width:1;" x1="1081.9771" x2="1081.9771" y1="549.7764" y2="592.4912"/><polygon fill="#181818" points="1077.9771,582.4912,1081.9771,592.4912,1085.9771,582.4912,1081.9771,586.4912" style="stroke:#181818;stroke-width:1;"/><line style="stroke:#181818;stroke-width:1;" x1="773.2104" x2="773.2104" y1="1278.3701" y2="1300.3701"/><line style="stroke:#181818;stroke-width:1;" x1="773.2104" x2="915.5938" y1="1300.3701" y2="1300.3701"/><polygon fill="#181818" points="905.5938,1296.3701,915.5938,1300.3701,905.5938,1304.3701,909.5938,1300.3701" style="stroke:#181818;stroke-width:1;"/><line style="stroke:#181818;stroke-width:1;" x1="1081.9771" x2="1081.9771" y1="626.46" y2="1300.3701"/><line style="stroke:#181818;stroke-width:1;" x1="1081.9771" x2="939.5938" y1="1300.3701" y2="1300.3701"/><polygon fill="#181818" points="949.5938,1296.3701,939.5938,1300.3701,949.5938,1304.3701,945.5938,1300.3701" style="stroke:#181818;stroke-width:1;"/><line style="stroke:#181818;stroke-width:1;" x1="927.5938" x2="927.5938" y1="517.7764" y2="537.7764"/><polygon fill="#181818" points="923.5938,527.7764,927.5938,537.7764,931.5938,527.7764,927.5938,531.7764" style="stroke:#181818;stroke-width:1;"/><line style="stroke:#181818;stroke-width:1;" x1="1797.1235" x2="1797.1235" y1="684.7139" y2="704.7139"/><polygon fill="#181818" points="1793.1235,694.7139,1797.1235,704.7139,1801.1235,694.7139,1797.1235,698.7139" style="stroke:#181818;stroke-width:1;"/><line style="stroke:#181818;stroke-width:1;" x1="2034.5806" x2="2034.5806" y1="900.5889" y2="920.5889"/><polygon fill="#181818" points="2030.5806,910.5889,2034.5806,920.5889,2038.5806,910.5889,2034.5806,914.5889" style="stroke:#181818;stroke-width:1;"/><line style="stroke:#181818;stroke-width:1;" x1="2034.5806" x2="2034.5806" y1="954.5576" y2="974.5576"/><polygon fill="#181818" points="2030.5806,964.5576,2034.5806,974.5576,2038.5806,964.5576,2034.5806,968.5576" style="stroke:#181818;stroke-width:1;"/><line style="stroke:#181818;stroke-width:1;" x1="2034.5806" x2="2034.5806" y1="1116.4639" y2="1136.4639"/><polygon fill="#181818" points="2030.5806,1126.4639,2034.5806,1136.4639,2038.5806,1126.4639,2034.5806,1130.4639" style="stroke:#181818;stroke-width:1;"/><line style="stroke:#181818;stroke-width:1;" x1="260.6265" x2="260.6265" y1="301.9014" y2="306.9014"/><line style="stroke:#181818;stroke-width:1;" x1="260.6265" x2="927.5938" y1="306.9014" y2="306.9014"/><line style="stroke:#181818;stroke-width:1;" x1="927.5938" x2="927.5938" y1="306.9014" y2="321.9014"/><polygon fill="#181818" points="923.5938,311.9014,927.5938,321.9014,931.5938,311.9014,927.5938,315.9014" style="stroke:#181818;stroke-width:1;"/><line style="stroke:#181818;stroke-width:1;" x1="773.2104" x2="773.2104" y1="615.7451" y2="633.2451"/><line style="stroke:#181818;stroke-width:1;" x1="773.2104" x2="1797.1235" y1="633.2451" y2="633.2451"/><line style="stroke:#181818;stroke-width:1;" x1="1797.1235" x2="1797.1235" y1="633.2451" y2="650.7451"/><polygon fill="#181818" points="1793.1235,640.7451,1797.1235,650.7451,1801.1235,640.7451,1797.1235,644.7451" style="stroke:#181818;stroke-width:1;"/><line style="stroke:#181818;stroke-width:1;" x1="1797.1235" x2="1797.1235" y1="738.6826" y2="743.6826"/><line style="stroke:#181818;stroke-width:1;" x1="1797.1235" x2="773.2104" y1="743.6826" y2="743.6826"/><line style="stroke:#181818;stroke-width:1;" x1="773.2104" x2="773.2104" y1="743.6826" y2="758.6826"/><polygon fill="#181818" points="769.2104,748.6826,773.2104,758.6826,777.2104,748.6826,773.2104,752.6826" style="stroke:#181818;stroke-width:1;"/><line style="stroke:#181818;stroke-width:1;" x1="773.2104" x2="773.2104" y1="846.6201" y2="851.6201"/><line style="stroke:#181818;stroke-width:1;" x1="773.2104" x2="2034.5806" y1="851.6201" y2="851.6201"/><line style="stroke:#181818;stroke-width:1;" x1="2034.5806" x2="2034.5806" y1="851.6201" y2="866.6201"/><polygon fill="#181818" points="2030.5806,856.6201,2034.5806,866.6201,2038.5806,856.6201,2034.5806,860.6201" style="stroke:#181818;stroke-width:1;"/><line style="stroke:#181818;stroke-width:1;" x1="2034.5806" x2="2034.5806" y1="1008.5264" y2="1013.5264"/><line style="stroke:#181818;stroke-width:1;" x1="2034.5806" x2="106.2432" y1="1013.5264" y2="1013.5264"/><line style="stroke:#181818;stroke-width:1;" x1="106.2432" x2="106.2432" y1="1013.5264" y2="1028.5264"/><polygon fill="#181818" points="102.2432,1018.5264,106.2432,1028.5264,110.2432,1018.5264,106.2432,1022.5264" style="stroke:#181818;stroke-width:1;"/><line style="stroke:#181818;stroke-width:1;" x1="106.2432" x2="106.2432" y1="1062.4951" y2="1067.4951"/><line style="stroke:#181818;stroke-width:1;" x1="106.2432" x2="2034.5806" y1="1067.4951" y2="1067.4951"/><line style="stroke:#181818;stroke-width:1;" x1="2034.5806" x2="2034.5806" y1="1067.4951" y2="1082.4951"/><polygon fill="#181818" points="2030.5806,1072.4951,2034.5806,1082.4951,2038.5806,1072.4951,2034.5806,1076.4951" style="stroke:#181818;stroke-width:1;"/><line style="stroke:#181818;stroke-width:1;" x1="2034.5806" x2="2034.5806" y1="1170.4326" y2="1175.4326"/><line style="stroke:#181818;stroke-width:1;" x1="2034.5806" x2="773.2104" y1="1175.4326" y2="1175.4326"/><line style="stroke:#181818;stroke-width:1;" x1="773.2104" x2="773.2104" y1="1175.4326" y2="1190.4326"/><polygon fill="#181818" points="769.2104,1180.4326,773.2104,1190.4326,777.2104,1180.4326,773.2104,1184.4326" style="stroke:#181818;stroke-width:1;"/><line style="stroke:#181818;stroke-width:1;" x1="592.0315" x2="1555.6235" y1="181.9639" y2="181.9639"/><line style="stroke:#181818;stroke-width:1;" x1="1555.6235" x2="1555.6235" y1="181.9639" y2="213.9639"/><polygon fill="#181818" points="1551.6235,203.9639,1555.6235,213.9639,1559.6235,203.9639,1555.6235,207.9639" style="stroke:#181818;stroke-width:1;"/><line style="stroke:#181818;stroke-width:1;" x1="927.5938" x2="927.5938" y1="1312.3701" y2="1316.3701"/><line style="stroke:#181818;stroke-width:1;" x1="927.5938" x2="483.8569" y1="1316.3701" y2="1316.3701"/><line style="stroke:#181818;stroke-width:1;" x1="483.8569" x2="483.8569" y1="1316.3701" y2="1334.3701"/><line style="stroke:#181818;stroke-width:1;" x1="483.8569" x2="501.8569" y1="1334.3701" y2="1334.3701"/><polygon fill="#181818" points="491.8569,1330.3701,501.8569,1334.3701,491.8569,1338.3701,495.8569,1334.3701" style="stroke:#181818;stroke-width:1;"/><line style="stroke:#181818;stroke-width:1;" x1="1555.6235" x2="1555.6235" y1="247.9326" y2="1334.3701"/><line style="stroke:#181818;stroke-width:1;" x1="1555.6235" x2="525.8569" y1="1334.3701" y2="1334.3701"/><polygon fill="#181818" points="535.8569,1330.3701,525.8569,1334.3701,535.8569,1338.3701,531.8569,1334.3701" style="stroke:#181818;stroke-width:1;"/><text fill="#000000" font-family="sans-serif" font-size="18" lengthAdjust="spacing" textLength="301.5791" x="170.5051" y="66.75">SmartFuel Station System (Local)</text><text fill="#000000" font-family="sans-serif" font-size="18" lengthAdjust="spacing" textLength="328.9658" x="982.3579" y="66.75">SmartFuel Central System (FuelOps)</text><text fill="#000000" font-family="sans-serif" font-size="18" lengthAdjust="spacing" textLength="230.0625" x="1681.0923" y="66.75">GACA/Drone Logistics API</text><text fill="#000000" font-family="sans-serif" font-size="18" lengthAdjust="spacing" textLength="172.5908" x="1947.2852" y="66.75">Drone System/Pilot</text><!--SRC=[ZLHBRzim3BxxL_1K943Nt9C1Gv2iHO5qAvfrXzrKcRQ9oL96oTaCvCUFifHN7sXFVl3ryUD71We6OTu5rwg09LntQE017PV8P6jGjeGbEukmH4DRv1xksMdqlYXswrPn62BMGGLo5jQz3zZ2QEMqCkDTuODu5DCxPoauXaShQMjsdSsLLhX5usS5LJ0w_e3FyADXz8qpvPSnX0OjZ7hqum9WUeCMMR2UWCvuvVcdGnzcqMsDzeK1WeC5si3APAIpqoREJGdGzusNDYJV0sgK_b-jzLEuglf3bGjODAX_mwtTIaR7VGPaK8VKziAr6sNxoTfrh74mBp4WjnI9FgVx6fMd9p8KXZoHgLSz33wdIhBETHmLtCmNSwXa0D_SfslJmo-9zn6dGSNA9WW0k-WtITbNhYOVI7kOtz_kKZQP_9PAFCq2InLKYfxUI2ffq53TX6Dg60bapIJjaO8MmpWN-nZnaJdTODcPvypagdFlgRRPTY7OGfn5-hmduy9aF-gXQZAaNvF1VcWEDuhtHI9PgPDSPkLKrgoJcIQlRFhw3tKdWioTYpMlmuj6trgJCm2nT08nPwQjCkyXpuGaTCVgydIiwZtAXRCLSNkKJHIXmLTnlZEGnqqP5_2WRr6-bgtm1whgio79XeiAhBi4lAglBk4lAj4fNoPPofu79XrnPD7Uoh6WOSEDYCPACyFULMGCZ5AAV4Ess90sc1LbdSHmdC7m2N2dR2TTa9Kq4MeanN4sbbHLoF8Np47gctpQaaUhUdX247HrBPub26Yy6enoN6ArOdYZgjYtE5meOJgGxH3osOjtzEpQfPWFw69w4WQ9zN8cHzLj_WC0]--></g></svg>