<svg xmlns="http://www.w3.org/2000/svg" xmlns:xlink="http://www.w3.org/1999/xlink" contentStyleType="text/css" data-diagram-type="CLASS" height="625px" preserveAspectRatio="none" style="width:924px;height:625px;background:#FFFFFF;" version="1.1" viewBox="0 0 924 625" width="924px" zoomAndPan="magnify"><title>SmartFuel - Core Domain (Users &#8226; Vehicles &#8226; Transactions)</title><defs/><g><g class="title" data-source-line="1"><text fill="#000000" font-family="sans-serif" font-size="14" font-weight="bold" lengthAdjust="spacing" textLength="465.1787" x="222.8049" y="22.9951">SmartFuel - Core Domain (Users &#8226; Vehicles &#8226; Transactions)</text></g><!--class User--><g class="entity" data-entity="User" data-source-line="10" data-uid="ent0002" id="entity_User"><rect fill="#F1F1F1" height="129.4844" rx="2.5" ry="2.5" style="stroke:#181818;stroke-width:0.5;" width="174.9688" x="19.57" y="81.4469"/><ellipse cx="86.8493" cy="97.4469" fill="#ADD1B2" rx="11" ry="11" style="stroke:#181818;stroke-width:1;"/><path d="M89.818,103.0875 Q89.2399,103.3844 88.5993,103.525 Q87.9587,103.6812 87.2555,103.6812 Q84.7555,103.6812 83.4274,102.0406 Q82.1149,100.3844 82.1149,97.2594 Q82.1149,94.1344 83.4274,92.4781 Q84.7555,90.8219 87.2555,90.8219 Q87.9587,90.8219 88.5993,90.9781 Q89.2555,91.1344 89.818,91.4312 L89.818,94.15 Q89.193,93.5719 88.5993,93.3062 Q88.0055,93.025 87.3805,93.025 Q86.0368,93.025 85.3493,94.1031 Q84.6618,95.1656 84.6618,97.2594 Q84.6618,99.3531 85.3493,100.4312 Q86.0368,101.4937 87.3805,101.4937 Q88.0055,101.4937 88.5993,101.2281 Q89.193,100.9469 89.818,100.3687 L89.818,103.0875 Z " fill="#000000"/><text fill="#000000" font-family="sans-serif" font-size="14" lengthAdjust="spacing" textLength="31.9102" x="107.3493" y="102.2936">User</text><line style="stroke:#181818;stroke-width:0.5;" x1="20.57" x2="193.5388" y1="113.4469" y2="113.4469"/><text fill="#000000" font-family="sans-serif" font-size="14" lengthAdjust="spacing" textLength="106.2305" x="25.57" y="130.442">+userId: String</text><text fill="#000000" font-family="sans-serif" font-size="14" lengthAdjust="spacing" textLength="102.3818" x="25.57" y="146.7389">+name: String</text><text fill="#000000" font-family="sans-serif" font-size="14" lengthAdjust="spacing" textLength="101.2881" x="25.57" y="163.0357">+email: String</text><text fill="#000000" font-family="sans-serif" font-size="14" lengthAdjust="spacing" textLength="162.7295" x="25.57" y="179.3326">+phoneNumber: String</text><text fill="#000000" font-family="sans-serif" font-size="14" lengthAdjust="spacing" textLength="162.9688" x="25.57" y="195.6295">+loyaltyOptIn: Boolean</text><line style="stroke:#181818;stroke-width:0.5;" x1="20.57" x2="193.5388" y1="202.9312" y2="202.9312"/></g><!--class Vehicle--><g class="entity" data-entity="Vehicle" data-source-line="18" data-uid="ent0003" id="entity_Vehicle"><rect fill="#F1F1F1" height="145.7813" rx="2.5" ry="2.5" style="stroke:#181818;stroke-width:0.5;" width="273.9053" x="341.11" y="44.2969"/><ellipse cx="448.236" cy="60.2969" fill="#ADD1B2" rx="11" ry="11" style="stroke:#181818;stroke-width:1;"/><path d="M451.2047,65.9375 Q450.6266,66.2344 449.986,66.375 Q449.3454,66.5313 448.6422,66.5313 Q446.1422,66.5313 444.8141,64.8906 Q443.5016,63.2344 443.5016,60.1094 Q443.5016,56.9844 444.8141,55.3281 Q446.1422,53.6719 448.6422,53.6719 Q449.3454,53.6719 449.986,53.8281 Q450.6422,53.9844 451.2047,54.2813 L451.2047,57 Q450.5797,56.4219 449.986,56.1563 Q449.3922,55.875 448.7672,55.875 Q447.4235,55.875 446.736,56.9531 Q446.0485,58.0156 446.0485,60.1094 Q446.0485,62.2031 446.736,63.2813 Q447.4235,64.3438 448.7672,64.3438 Q449.3922,64.3438 449.986,64.0781 Q450.5797,63.7969 451.2047,63.2188 L451.2047,65.9375 Z " fill="#000000"/><text fill="#000000" font-family="sans-serif" font-size="14" lengthAdjust="spacing" textLength="51.1533" x="468.736" y="65.1436">Vehicle</text><line style="stroke:#181818;stroke-width:0.5;" x1="342.11" x2="614.0153" y1="76.2969" y2="76.2969"/><text fill="#000000" font-family="sans-serif" font-size="14" lengthAdjust="spacing" textLength="165.4434" x="347.11" y="93.292">+vehicleId: String {PK}</text><text fill="#000000" font-family="sans-serif" font-size="14" lengthAdjust="spacing" textLength="216.8359" x="347.11" y="109.5889">+licensePlate: String {unique}</text><text fill="#000000" font-family="sans-serif" font-size="14" lengthAdjust="spacing" textLength="101.6162" x="347.11" y="125.8857">+make: String</text><text fill="#000000" font-family="sans-serif" font-size="14" lengthAdjust="spacing" textLength="106.2715" x="347.11" y="142.1826">+model: String</text><text fill="#000000" font-family="sans-serif" font-size="14" lengthAdjust="spacing" textLength="261.9053" x="347.11" y="158.4795">+fuelTypeCapability: Set&lt;FuelType&gt;</text><text fill="#000000" font-family="sans-serif" font-size="14" lengthAdjust="spacing" textLength="177.085" x="347.11" y="174.7764">+isAutonomous: Boolean</text><line style="stroke:#181818;stroke-width:0.5;" x1="342.11" x2="614.0153" y1="182.0781" y2="182.0781"/></g><!--class FuelType--><g class="entity" data-entity="FuelType" data-source-line="27" data-uid="ent0004" id="entity_FuelType"><rect fill="#F1F1F1" height="170.3438" rx="2.5" ry="2.5" style="stroke:#181818;stroke-width:0.5;" width="137.583" x="38.26" y="275.0169"/><ellipse cx="61.342" cy="295.1497" fill="#EB937F" rx="11" ry="11" style="stroke:#181818;stroke-width:1;"/><path d="M65.4514,301.1497 L57.7326,301.1497 L57.7326,288.7591 L65.4514,288.7591 L65.4514,290.9153 L60.1857,290.9153 L60.1857,293.5872 L64.9514,293.5872 L64.9514,295.7434 L60.1857,295.7434 L60.1857,298.9934 L65.4514,298.9934 L65.4514,301.1497 Z " fill="#000000"/><text fill="#000000" font-family="sans-serif" font-size="12" font-style="italic" lengthAdjust="spacing" textLength="91.623" x="75.138" y="291.1555">&#171;enumeration&#187;</text><text fill="#000000" font-family="sans-serif" font-size="14" lengthAdjust="spacing" textLength="63.7656" x="89.0667" y="306.9807">FuelType</text><line style="stroke:#181818;stroke-width:0.5;" x1="39.26" x2="174.843" y1="315.2825" y2="315.2825"/><text fill="#000000" font-family="sans-serif" font-size="14" lengthAdjust="spacing" textLength="79.2012" x="44.26" y="332.2776">PETROL_91</text><text fill="#000000" font-family="sans-serif" font-size="14" lengthAdjust="spacing" textLength="79.2012" x="44.26" y="348.5745">PETROL_95</text><text fill="#000000" font-family="sans-serif" font-size="14" lengthAdjust="spacing" textLength="49.2871" x="44.26" y="364.8714">DIESEL</text><text fill="#000000" font-family="sans-serif" font-size="14" lengthAdjust="spacing" textLength="95.0742" x="44.26" y="381.1682">EV_AC_TYPE2</text><text fill="#000000" font-family="sans-serif" font-size="14" lengthAdjust="spacing" textLength="81.416" x="44.26" y="397.4651">EV_DC_CCS</text><text fill="#000000" font-family="sans-serif" font-size="14" lengthAdjust="spacing" textLength="125.583" x="44.26" y="413.762">EV_DC_CHADEMO</text><text fill="#000000" font-family="sans-serif" font-size="14" lengthAdjust="spacing" textLength="116.1152" x="44.26" y="430.0589">HYDROGEN_H70</text><line style="stroke:#181818;stroke-width:0.5;" x1="39.26" x2="174.843" y1="437.3606" y2="437.3606"/></g><!--class Transaction--><g class="entity" data-entity="Transaction" data-source-line="38" data-uid="ent0005" id="entity_Transaction"><rect fill="#F1F1F1" height="145.7813" rx="2.5" ry="2.5" style="stroke:#181818;stroke-width:0.5;" width="210.7686" x="707.02" y="140.2969"/><ellipse cx="767.0805" cy="156.2969" fill="#ADD1B2" rx="11" ry="11" style="stroke:#181818;stroke-width:1;"/><path d="M770.0493,161.9375 Q769.4712,162.2344 768.8305,162.375 Q768.1899,162.5313 767.4868,162.5313 Q764.9868,162.5313 763.6587,160.8906 Q762.3462,159.2344 762.3462,156.1094 Q762.3462,152.9844 763.6587,151.3281 Q764.9868,149.6719 767.4868,149.6719 Q768.1899,149.6719 768.8305,149.8281 Q769.4868,149.9844 770.0493,150.2813 L770.0493,153 Q769.4243,152.4219 768.8305,152.1563 Q768.2368,151.875 767.6118,151.875 Q766.268,151.875 765.5805,152.9531 Q764.893,154.0156 764.893,156.1094 Q764.893,158.2031 765.5805,159.2813 Q766.268,160.3438 767.6118,160.3438 Q768.2368,160.3438 768.8305,160.0781 Q769.4243,159.7969 770.0493,159.2188 L770.0493,161.9375 Z " fill="#000000"/><text fill="#000000" font-family="sans-serif" font-size="14" lengthAdjust="spacing" textLength="82.1475" x="787.5805" y="161.1436">Transaction</text><line style="stroke:#181818;stroke-width:0.5;" x1="708.02" x2="916.7886" y1="172.2969" y2="172.2969"/><text fill="#000000" font-family="sans-serif" font-size="14" lengthAdjust="spacing" textLength="194.667" x="713.02" y="189.292">+transactionId: String {PK}</text><text fill="#000000" font-family="sans-serif" font-size="14" lengthAdjust="spacing" textLength="198.7686" x="713.02" y="205.5889">+timestampStart: DateTime</text><text fill="#000000" font-family="sans-serif" font-size="14" lengthAdjust="spacing" textLength="196.7588" x="713.02" y="221.8857">+dispensedAmount: Double</text><text fill="#000000" font-family="sans-serif" font-size="14" lengthAdjust="spacing" textLength="145.3047" x="713.02" y="238.1826">+fuelType: FuelType</text><text fill="#000000" font-family="sans-serif" font-size="14" lengthAdjust="spacing" textLength="133.7246" x="713.02" y="254.4795">+totalPrice: Money</text><text fill="#000000" font-family="sans-serif" font-size="14" lengthAdjust="spacing" textLength="190.6748" x="713.02" y="270.7764">+status: TransactionStatus</text><line style="stroke:#181818;stroke-width:0.5;" x1="708.02" x2="916.7886" y1="278.0781" y2="278.0781"/></g><!--class TransactionStatus--><g class="entity" data-entity="TransactionStatus" data-source-line="47" data-uid="ent0006" id="entity_TransactionStatus"><rect fill="#F1F1F1" height="137.75" rx="2.5" ry="2.5" style="stroke:#181818;stroke-width:0.5;" width="200.1113" x="7" y="480.3169"/><ellipse cx="40.6086" cy="500.4497" fill="#EB937F" rx="11" ry="11" style="stroke:#181818;stroke-width:1;"/><path d="M44.718,506.4497 L36.9993,506.4497 L36.9993,494.0591 L44.718,494.0591 L44.718,496.2153 L39.4524,496.2153 L39.4524,498.8872 L44.218,498.8872 L44.218,501.0434 L39.4524,501.0434 L39.4524,504.2934 L44.718,504.2934 L44.718,506.4497 Z " fill="#000000"/><text fill="#000000" font-family="sans-serif" font-size="12" font-style="italic" lengthAdjust="spacing" textLength="91.623" x="76.3118" y="496.4555">&#171;enumeration&#187;</text><text fill="#000000" font-family="sans-serif" font-size="14" lengthAdjust="spacing" textLength="126.7588" x="58.7439" y="512.2807">TransactionStatus</text><line style="stroke:#181818;stroke-width:0.5;" x1="8" x2="206.1113" y1="520.5825" y2="520.5825"/><text fill="#000000" font-family="sans-serif" font-size="14" lengthAdjust="spacing" textLength="188.1113" x="13" y="537.5776">PENDING_AUTHORIZATION</text><text fill="#000000" font-family="sans-serif" font-size="14" lengthAdjust="spacing" textLength="165.3818" x="13" y="553.8745">FUELING_IN_PROGRESS</text><text fill="#000000" font-family="sans-serif" font-size="14" lengthAdjust="spacing" textLength="158.4434" x="13" y="570.1714">COMPLETED_SUCCESS</text><text fill="#000000" font-family="sans-serif" font-size="14" lengthAdjust="spacing" textLength="122.7051" x="13" y="586.4682">PAYMENT_FAILED</text><text fill="#000000" font-family="sans-serif" font-size="14" lengthAdjust="spacing" textLength="83.6719" x="13" y="602.7651">CANCELLED</text><line style="stroke:#181818;stroke-width:0.5;" x1="8" x2="206.1113" y1="610.0669" y2="610.0669"/></g><!--class Money--><g class="entity" data-entity="Money" data-source-line="55" data-uid="ent0007" id="entity_Money"><rect fill="#F1F1F1" height="80.5938" rx="2.5" ry="2.5" style="stroke:#181818;stroke-width:0.5;" width="172.0703" x="392.03" y="319.8969"/><ellipse cx="450.6071" cy="335.8969" fill="#ADD1B2" rx="11" ry="11" style="stroke:#181818;stroke-width:1;"/><path d="M453.5759,341.5375 Q452.9978,341.8344 452.3571,341.975 Q451.7165,342.1312 451.0134,342.1312 Q448.5134,342.1312 447.1853,340.4906 Q445.8728,338.8344 445.8728,335.7094 Q445.8728,332.5844 447.1853,330.9281 Q448.5134,329.2719 451.0134,329.2719 Q451.7165,329.2719 452.3571,329.4281 Q453.0134,329.5844 453.5759,329.8812 L453.5759,332.6 Q452.9509,332.0219 452.3571,331.7562 Q451.7634,331.475 451.1384,331.475 Q449.7946,331.475 449.1071,332.5531 Q448.4196,333.6156 448.4196,335.7094 Q448.4196,337.8031 449.1071,338.8812 Q449.7946,339.9437 451.1384,339.9437 Q451.7634,339.9437 452.3571,339.6781 Q452.9509,339.3969 453.5759,338.8187 L453.5759,341.5375 Z " fill="#000000"/><text fill="#000000" font-family="sans-serif" font-size="14" lengthAdjust="spacing" textLength="46.416" x="471.1071" y="340.7436">Money</text><line style="stroke:#181818;stroke-width:0.5;" x1="393.03" x2="563.1003" y1="351.8969" y2="351.8969"/><text fill="#000000" font-family="sans-serif" font-size="14" lengthAdjust="spacing" textLength="154.3828" x="398.03" y="368.892">+amount: BigDecimal</text><text fill="#000000" font-family="sans-serif" font-size="14" lengthAdjust="spacing" textLength="160.0703" x="398.03" y="385.1889">+currencyCode: String</text><line style="stroke:#181818;stroke-width:0.5;" x1="393.03" x2="563.1003" y1="392.4906" y2="392.4906"/></g><!--link User to Vehicle--><g class="link" data-entity-1="User" data-entity-2="Vehicle" data-source-line="61" data-uid="lnk8" id="link_User_Vehicle"><path codeLine="61" d="M195.04,139.3569 C238.51,135.9369 292.11,131.7269 340.87,127.8969" fill="none" id="User-Vehicle" style="stroke:#181818;stroke-width:1;"/><polygon fill="#000000" points="247.0946,122.3716,237.8471,120.1503,238.3076,126.0101,247.0946,122.3716" style="stroke:#000000;stroke-width:1;"/><text fill="#000000" font-family="sans-serif" font-size="13" lengthAdjust="spacing" textLength="59.8584" x="251.11" y="127.2638">manages</text><text fill="#000000" font-family="sans-serif" font-size="13" lengthAdjust="spacing" textLength="8.271" x="202.6688" y="151.4846">1</text><text fill="#000000" font-family="sans-serif" font-size="13" lengthAdjust="spacing" textLength="6.5" x="326.7796" y="141.0203">*</text></g><!--link User to Transaction--><g class="link" data-entity-1="User" data-entity-2="Transaction" data-source-line="62" data-uid="lnk9" id="link_User_Transaction"><path codeLine="62" d="M194.89,182.6969 C238.02,198.8969 291.42,216.0969 341.11,224.1969 C465.65,244.4769 611.16,236.2769 706.97,226.5769" fill="none" id="User-Transaction" style="stroke:#181818;stroke-width:1;"/><polygon fill="#000000" points="451.5417,216.1902,442.7806,212.4897,442.2788,218.3461,451.5417,216.1902" style="stroke:#000000;stroke-width:1;"/><text fill="#000000" font-family="sans-serif" font-size="13" lengthAdjust="spacing" textLength="58.9063" x="455.56" y="220.2638">performs</text><text fill="#000000" font-family="sans-serif" font-size="13" lengthAdjust="spacing" textLength="24.8066" x="202.5645" y="198.1382">0..1</text><text fill="#000000" font-family="sans-serif" font-size="13" lengthAdjust="spacing" textLength="6.5" x="692.6871" y="240.2482">*</text></g><!--link Vehicle to Transaction--><g class="link" data-entity-1="Vehicle" data-entity-2="Transaction" data-source-line="63" data-uid="lnk10" id="link_Vehicle_Transaction"><path codeLine="63" d="M615.2,156.5169 C645.76,165.3469 677.73,174.5769 706.77,182.9669" fill="none" id="Vehicle-Transaction" style="stroke:#181818;stroke-width:1;"/><polygon fill="#000000" points="654.8236,158.1508,646.9494,152.8173,645.3182,158.4642,654.8236,158.1508" style="stroke:#000000;stroke-width:1;"/><text fill="#000000" font-family="sans-serif" font-size="13" lengthAdjust="spacing" textLength="17.875" x="659.02" y="161.2638">for</text><text fill="#000000" font-family="sans-serif" font-size="13" lengthAdjust="spacing" textLength="8.271" x="622.9259" y="171.1484">1</text><text fill="#000000" font-family="sans-serif" font-size="13" lengthAdjust="spacing" textLength="6.5" x="692.4718" y="193.2993">*</text></g><!--SRC=[XLJRRfj047tdAwP-w5M9aafLLIkoH037g3P61aToNz0QnlOgUw7iKeb6aV8H_O9-Mhwak-3Of6rQnCFCcSFCx9bPDDKC8U6aqkCQ6Po09oi4Nt921RnUAgmKFDp_X6lSqPnXvwGL4OhacagXtZZEYm8tL204KHgcAyWPKQe7BcS0WABcZhgXeYGLuHt7rRgYwrfZc4kHqEy8PywE5WZ8Izrmv6jJtM6uqQ0bL7Ixqr3G2jl2ZlFguSVzSszt31IQQehAsNTcZmEt3i2xsbXXCOJ4T22s5X64Ozz7em3h0-LE2engsrGVPh8XJ3VpKeTY29TICYJ2kNCUQ-w5wyf-wvnZPRYDFz-rQMYEGc7CYCPZi1RqQuqjWPER9_rnMU2J_ZPcVcbJeaTAigQCwiP4KL-Cz_Z8agXoQos5vB9MltLhnlH8XOiBEo-iY5LwD6gRZuDqCPzcdyvxzWTZ-s6G15DZ1DUPwsNfAWxUTvxlPPwN7Es9wmUpkV4dAtynlmgYRFBnp1R_voHxomOl8IPcCOH-LBSVR1NMH-0lAclAKMd2oqIRZH-2RzHE3MPZ1LMb7K7X6d643SfwpR0lxV2WK9jCQiBYoWnk23Ep6uq5JNPjfUqrbhJGGUG_8i-e7VbXT9MvotGoNuHVt3ISHmOVBuEfnSCeYus6Yo2n0dlpMJmDqi3FagNdTLZihcP6fMpiXjF0joGtyeAfjO_RsVRTAKVsnxwaMnzpoWcpQ5vN5OgyySow7RRjVoDR86lFedQqL4vxw-mpE1y0d9p0uEtWS2swPmYS2B8rlvTHZtvsUcg-s7_Gd_GGIgmsikAMVyZKJzzds_I63ADV]--></g></svg>