<svg xmlns="http://www.w3.org/2000/svg" xmlns:xlink="http://www.w3.org/1999/xlink" contentStyleType="text/css" data-diagram-type="CLASS" height="602px" preserveAspectRatio="none" style="width:922px;height:602px;background:#FFFFFF;" version="1.1" viewBox="0 0 922 602" width="922px" zoomAndPan="magnify"><title>SmartFuel - Station Hardware Domain</title><defs/><g><g class="title" data-source-line="1"><text fill="#000000" font-family="sans-serif" font-size="14" font-weight="bold" lengthAdjust="spacing" textLength="301.0547" x="303.9259" y="22.9951">SmartFuel - Station Hardware Domain</text></g><!--class SmartFuelStation--><g class="entity" data-entity="SmartFuelStation" data-source-line="8" data-uid="ent0002" id="entity_SmartFuelStation"><rect fill="#F1F1F1" height="129.4844" rx="2.5" ry="2.5" style="stroke:#181818;stroke-width:0.5;" width="251.5791" x="619.32" y="44.2969"/><ellipse cx="680.0846" cy="60.2969" fill="#ADD1B2" rx="11" ry="11" style="stroke:#181818;stroke-width:1;"/><path d="M683.0534,65.9375 Q682.4753,66.2344 681.8346,66.375 Q681.194,66.5313 680.4909,66.5313 Q677.9909,66.5313 676.6628,64.8906 Q675.3503,63.2344 675.3503,60.1094 Q675.3503,56.9844 676.6628,55.3281 Q677.9909,53.6719 680.4909,53.6719 Q681.194,53.6719 681.8346,53.8281 Q682.4909,53.9844 683.0534,54.2813 L683.0534,57 Q682.4284,56.4219 681.8346,56.1563 Q681.2409,55.875 680.6159,55.875 Q679.2721,55.875 678.5846,56.9531 Q677.8971,58.0156 677.8971,60.1094 Q677.8971,62.2031 678.5846,63.2813 Q679.2721,64.3438 680.6159,64.3438 Q681.2409,64.3438 681.8346,64.0781 Q682.4284,63.7969 683.0534,63.2188 L683.0534,65.9375 Z " fill="#000000"/><text fill="#000000" font-family="sans-serif" font-size="14" lengthAdjust="spacing" textLength="121.5498" x="700.5846" y="65.1436">SmartFuelStation</text><line style="stroke:#181818;stroke-width:0.5;" x1="620.32" x2="869.8991" y1="76.2969" y2="76.2969"/><text fill="#000000" font-family="sans-serif" font-size="14" lengthAdjust="spacing" textLength="163.7617" x="625.32" y="93.292">+stationId: String {PK}</text><text fill="#000000" font-family="sans-serif" font-size="14" lengthAdjust="spacing" textLength="102.3818" x="625.32" y="109.5889">+name: String</text><text fill="#000000" font-family="sans-serif" font-size="14" lengthAdjust="spacing" textLength="163.9326" x="625.32" y="125.8857">+location: GeoLocation</text><text fill="#000000" font-family="sans-serif" font-size="14" lengthAdjust="spacing" textLength="239.5791" x="625.32" y="142.1826">+operationalStatus: StationStatus</text><text fill="#000000" font-family="sans-serif" font-size="14" lengthAdjust="spacing" textLength="187.1543" x="625.32" y="158.4795">+powerBudgetKW: Double</text><line style="stroke:#181818;stroke-width:0.5;" x1="620.32" x2="869.8991" y1="165.7813" y2="165.7813"/></g><!--class GeoLocation--><g class="entity" data-entity="GeoLocation" data-source-line="16" data-uid="ent0003" id="entity_GeoLocation"><rect fill="#F1F1F1" height="80.5938" rx="2.5" ry="2.5" style="stroke:#181818;stroke-width:0.5;" width="148.4727" x="17.87" y="68.7469"/><ellipse cx="45.9138" cy="84.7469" fill="#ADD1B2" rx="11" ry="11" style="stroke:#181818;stroke-width:1;"/><path d="M48.8826,90.3875 Q48.3045,90.6844 47.6638,90.825 Q47.0232,90.9813 46.3201,90.9813 Q43.8201,90.9813 42.492,89.3406 Q41.1795,87.6844 41.1795,84.5594 Q41.1795,81.4344 42.492,79.7781 Q43.8201,78.1219 46.3201,78.1219 Q47.0232,78.1219 47.6638,78.2781 Q48.3201,78.4344 48.8826,78.7313 L48.8826,81.45 Q48.2576,80.8719 47.6638,80.6063 Q47.0701,80.325 46.4451,80.325 Q45.1013,80.325 44.4138,81.4031 Q43.7263,82.4656 43.7263,84.5594 Q43.7263,86.6531 44.4138,87.7313 Q45.1013,88.7938 46.4451,88.7938 Q47.0701,88.7938 47.6638,88.5281 Q48.2576,88.2469 48.8826,87.6688 L48.8826,90.3875 Z " fill="#000000"/><text fill="#000000" font-family="sans-serif" font-size="14" lengthAdjust="spacing" textLength="87.4863" x="62.8125" y="89.5936">GeoLocation</text><line style="stroke:#181818;stroke-width:0.5;" x1="18.87" x2="165.3427" y1="100.7469" y2="100.7469"/><text fill="#000000" font-family="sans-serif" font-size="14" lengthAdjust="spacing" textLength="124.2158" x="23.87" y="117.742">+latitude: Double</text><text fill="#000000" font-family="sans-serif" font-size="14" lengthAdjust="spacing" textLength="136.4727" x="23.87" y="134.0389">+longitude: Double</text><line style="stroke:#181818;stroke-width:0.5;" x1="18.87" x2="165.3427" y1="141.3406" y2="141.3406"/></g><!--class StationStatus--><g class="entity" data-entity="StationStatus" data-source-line="21" data-uid="ent0004" id="entity_StationStatus"><rect fill="#F1F1F1" height="105.1563" rx="2.5" ry="2.5" style="stroke:#181818;stroke-width:0.5;" width="134.6777" x="201.77" y="56.4669"/><ellipse cx="220.5023" cy="76.5997" fill="#EB937F" rx="11" ry="11" style="stroke:#181818;stroke-width:1;"/><path d="M224.6117,82.5997 L216.8929,82.5997 L216.8929,70.2091 L224.6117,70.2091 L224.6117,72.3653 L219.346,72.3653 L219.346,75.0372 L224.1117,75.0372 L224.1117,77.1934 L219.346,77.1934 L219.346,80.4434 L224.6117,80.4434 L224.6117,82.5997 Z " fill="#000000"/><text fill="#000000" font-family="sans-serif" font-size="12" font-style="italic" lengthAdjust="spacing" textLength="91.623" x="236.712" y="72.6055">&#171;enumeration&#187;</text><text fill="#000000" font-family="sans-serif" font-size="14" lengthAdjust="spacing" textLength="94.3838" x="235.3317" y="88.4307">StationStatus</text><line style="stroke:#181818;stroke-width:0.5;" x1="202.77" x2="335.4477" y1="96.7325" y2="96.7325"/><text fill="#000000" font-family="sans-serif" font-size="14" lengthAdjust="spacing" textLength="99.1621" x="207.77" y="113.7276">OPERATIONAL</text><text fill="#000000" font-family="sans-serif" font-size="14" lengthAdjust="spacing" textLength="102.7988" x="207.77" y="130.0245">MAINTENANCE</text><text fill="#000000" font-family="sans-serif" font-size="14" lengthAdjust="spacing" textLength="122.6777" x="207.77" y="146.3214">OUT_OF_SERVICE</text><line style="stroke:#181818;stroke-width:0.5;" x1="202.77" x2="335.4477" y1="153.6231" y2="153.6231"/></g><!--class DispenserUnit--><g class="entity" data-entity="DispenserUnit" data-source-line="27" data-uid="ent0005" id="entity_DispenserUnit"><rect fill="#F1F1F1" height="113.1875" rx="2.5" ry="2.5" style="stroke:#181818;stroke-width:0.5;" width="285.4238" x="385.39" y="279.3569"/><ellipse cx="474.6024" cy="295.3569" fill="#ADD1B2" rx="11" ry="11" style="stroke:#181818;stroke-width:1;"/><path d="M477.5712,300.9975 Q476.993,301.2944 476.3524,301.435 Q475.7118,301.5913 475.0087,301.5913 Q472.5087,301.5913 471.1805,299.9506 Q469.868,298.2944 469.868,295.1694 Q469.868,292.0444 471.1805,290.3881 Q472.5087,288.7319 475.0087,288.7319 Q475.7118,288.7319 476.3524,288.8881 Q477.0087,289.0444 477.5712,289.3413 L477.5712,292.06 Q476.9462,291.4819 476.3524,291.2163 Q475.7587,290.935 475.1337,290.935 Q473.7899,290.935 473.1024,292.0131 Q472.4149,293.0756 472.4149,295.1694 Q472.4149,297.2631 473.1024,298.3413 Q473.7899,299.4038 475.1337,299.4038 Q475.7587,299.4038 476.3524,299.1381 Q476.9462,298.8569 477.5712,298.2788 L477.5712,300.9975 Z " fill="#000000"/><text fill="#000000" font-family="sans-serif" font-size="14" lengthAdjust="spacing" textLength="98.499" x="495.1024" y="300.2036">DispenserUnit</text><line style="stroke:#181818;stroke-width:0.5;" x1="386.39" x2="669.8138" y1="311.3569" y2="311.3569"/><text fill="#000000" font-family="sans-serif" font-size="14" lengthAdjust="spacing" textLength="183.6885" x="391.39" y="328.352">+dispenserId: String {PK}</text><text fill="#000000" font-family="sans-serif" font-size="14" lengthAdjust="spacing" textLength="273.4238" x="391.39" y="344.6489">+supportedFuelTypes: Set&lt;FuelType&gt;</text><text fill="#000000" font-family="sans-serif" font-size="14" lengthAdjust="spacing" textLength="178.5273" x="391.39" y="360.9457">+status: DispenserStatus</text><text fill="#000000" font-family="sans-serif" font-size="14" lengthAdjust="spacing" textLength="184.126" x="391.39" y="377.2426">+hasRoboticArm: Boolean</text><line style="stroke:#181818;stroke-width:0.5;" x1="386.39" x2="669.8138" y1="384.5444" y2="384.5444"/></g><!--class RoboticArm--><g class="entity" data-entity="RoboticArm" data-source-line="34" data-uid="ent0006" id="entity_RoboticArm"><rect fill="#F1F1F1" height="96.8906" rx="2.5" ry="2.5" style="stroke:#181818;stroke-width:0.5;" width="202.3193" x="426.95" y="498.1269"/><ellipse cx="482.9637" cy="514.1269" fill="#ADD1B2" rx="11" ry="11" style="stroke:#181818;stroke-width:1;"/><path d="M485.9324,519.7675 Q485.3543,520.0644 484.7137,520.205 Q484.073,520.3613 483.3699,520.3613 Q480.8699,520.3613 479.5418,518.7206 Q478.2293,517.0644 478.2293,513.9394 Q478.2293,510.8144 479.5418,509.1581 Q480.8699,507.5019 483.3699,507.5019 Q484.073,507.5019 484.7137,507.6581 Q485.3699,507.8144 485.9324,508.1113 L485.9324,510.83 Q485.3074,510.2519 484.7137,509.9863 Q484.1199,509.705 483.4949,509.705 Q482.1512,509.705 481.4637,510.7831 Q480.7762,511.8456 480.7762,513.9394 Q480.7762,516.0331 481.4637,517.1113 Q482.1512,518.1738 483.4949,518.1738 Q484.1199,518.1738 484.7137,517.9081 Q485.3074,517.6269 485.9324,517.0488 L485.9324,519.7675 Z " fill="#000000"/><text fill="#000000" font-family="sans-serif" font-size="14" lengthAdjust="spacing" textLength="81.792" x="503.4637" y="518.9736">RoboticArm</text><line style="stroke:#181818;stroke-width:0.5;" x1="427.95" x2="628.2693" y1="530.1269" y2="530.1269"/><text fill="#000000" font-family="sans-serif" font-size="14" lengthAdjust="spacing" textLength="103.667" x="432.95" y="547.122">+armId: String</text><text fill="#000000" font-family="sans-serif" font-size="14" lengthAdjust="spacing" textLength="190.3193" x="432.95" y="563.4189">+status: RoboticArmStatus</text><text fill="#000000" font-family="sans-serif" font-size="14" lengthAdjust="spacing" textLength="144.498" x="432.95" y="579.7157">+maxReach: Double</text><line style="stroke:#181818;stroke-width:0.5;" x1="427.95" x2="628.2693" y1="587.0175" y2="587.0175"/></g><!--class DispenserStatus--><g class="entity" data-entity="DispenserStatus" data-source-line="40" data-uid="ent0007" id="entity_DispenserStatus"><rect fill="#F1F1F1" height="121.4531" rx="2.5" ry="2.5" style="stroke:#181818;stroke-width:0.5;" width="146.6113" x="371.8" y="48.3169"/><ellipse cx="386.8" cy="68.4497" fill="#EB937F" rx="11" ry="11" style="stroke:#181818;stroke-width:1;"/><path d="M390.9094,74.4497 L383.1906,74.4497 L383.1906,62.0591 L390.9094,62.0591 L390.9094,64.2153 L385.6438,64.2153 L385.6438,66.8872 L390.4094,66.8872 L390.4094,69.0434 L385.6438,69.0434 L385.6438,72.2934 L390.9094,72.2934 L390.9094,74.4497 Z " fill="#000000"/><text fill="#000000" font-family="sans-serif" font-size="12" font-style="italic" lengthAdjust="spacing" textLength="91.623" x="412.2941" y="64.4555">&#171;enumeration&#187;</text><text fill="#000000" font-family="sans-serif" font-size="14" lengthAdjust="spacing" textLength="114.6113" x="400.8" y="80.2807">DispenserStatus</text><line style="stroke:#181818;stroke-width:0.5;" x1="372.8" x2="517.4113" y1="88.5825" y2="88.5825"/><text fill="#000000" font-family="sans-serif" font-size="14" lengthAdjust="spacing" textLength="31.5547" x="377.8" y="105.5776">IDLE</text><text fill="#000000" font-family="sans-serif" font-size="14" lengthAdjust="spacing" textLength="115.999" x="377.8" y="121.8745">READY_TO_FUEL</text><text fill="#000000" font-family="sans-serif" font-size="14" lengthAdjust="spacing" textLength="85.8936" x="377.8" y="138.1714">DISPENSING</text><text fill="#000000" font-family="sans-serif" font-size="14" lengthAdjust="spacing" textLength="49.0479" x="377.8" y="154.4682">ERROR</text><line style="stroke:#181818;stroke-width:0.5;" x1="372.8" x2="517.4113" y1="161.77" y2="161.77"/></g><!--class RoboticArmStatus--><g class="entity" data-entity="RoboticArmStatus" data-source-line="47" data-uid="ent0008" id="entity_RoboticArmStatus"><rect fill="#F1F1F1" height="121.4531" rx="2.5" ry="2.5" style="stroke:#181818;stroke-width:0.5;" width="170.2109" x="7" y="275.2269"/><ellipse cx="27.3134" cy="295.3597" fill="#EB937F" rx="11" ry="11" style="stroke:#181818;stroke-width:1;"/><path d="M31.4228,301.3597 L23.7041,301.3597 L23.7041,288.9691 L31.4228,288.9691 L31.4228,291.1253 L26.1572,291.1253 L26.1572,293.7972 L30.9228,293.7972 L30.9228,295.9534 L26.1572,295.9534 L26.1572,299.2034 L31.4228,299.2034 L31.4228,301.3597 Z " fill="#000000"/><text fill="#000000" font-family="sans-serif" font-size="12" font-style="italic" lengthAdjust="spacing" textLength="91.623" x="59.8843" y="291.3655">&#171;enumeration&#187;</text><text fill="#000000" font-family="sans-serif" font-size="14" lengthAdjust="spacing" textLength="126.4033" x="42.4942" y="307.1907">RoboticArmStatus</text><line style="stroke:#181818;stroke-width:0.5;" x1="8" x2="176.2109" y1="315.4925" y2="315.4925"/><text fill="#000000" font-family="sans-serif" font-size="14" lengthAdjust="spacing" textLength="31.5547" x="13" y="332.4876">IDLE</text><text fill="#000000" font-family="sans-serif" font-size="14" lengthAdjust="spacing" textLength="76.043" x="13" y="348.7845">ENGAGING</text><text fill="#000000" font-family="sans-serif" font-size="14" lengthAdjust="spacing" textLength="158.2109" x="13" y="365.0814">DISPENSING_SUPPORT</text><text fill="#000000" font-family="sans-serif" font-size="14" lengthAdjust="spacing" textLength="49.0479" x="13" y="381.3782">ERROR</text><line style="stroke:#181818;stroke-width:0.5;" x1="8" x2="176.2109" y1="388.68" y2="388.68"/></g><!--class FuelTank--><g class="entity" data-entity="FuelTank" data-source-line="54" data-uid="ent0009" id="entity_FuelTank"><rect fill="#F1F1F1" height="113.1875" rx="2.5" ry="2.5" style="stroke:#181818;stroke-width:0.5;" width="209.6064" x="706.3" y="279.3569"/><ellipse cx="775.0832" cy="295.3569" fill="#ADD1B2" rx="11" ry="11" style="stroke:#181818;stroke-width:1;"/><path d="M778.052,300.9975 Q777.4738,301.2944 776.8332,301.435 Q776.1926,301.5913 775.4895,301.5913 Q772.9895,301.5913 771.6613,299.9506 Q770.3488,298.2944 770.3488,295.1694 Q770.3488,292.0444 771.6613,290.3881 Q772.9895,288.7319 775.4895,288.7319 Q776.1926,288.7319 776.8332,288.8881 Q777.4895,289.0444 778.052,289.3413 L778.052,292.06 Q777.427,291.4819 776.8332,291.2163 Q776.2395,290.935 775.6145,290.935 Q774.2707,290.935 773.5832,292.0131 Q772.8957,293.0756 772.8957,295.1694 Q772.8957,297.2631 773.5832,298.3413 Q774.2707,299.4038 775.6145,299.4038 Q776.2395,299.4038 776.8332,299.1381 Q777.427,298.8569 778.052,298.2788 L778.052,300.9975 Z " fill="#000000"/><text fill="#000000" font-family="sans-serif" font-size="14" lengthAdjust="spacing" textLength="63.54" x="795.5832" y="300.2036">FuelTank</text><line style="stroke:#181818;stroke-width:0.5;" x1="707.3" x2="914.9064" y1="311.3569" y2="311.3569"/><text fill="#000000" font-family="sans-serif" font-size="14" lengthAdjust="spacing" textLength="106.7432" x="712.3" y="328.352">+tankId: String</text><text fill="#000000" font-family="sans-serif" font-size="14" lengthAdjust="spacing" textLength="145.3047" x="712.3" y="344.6489">+fuelType: FuelType</text><text fill="#000000" font-family="sans-serif" font-size="14" lengthAdjust="spacing" textLength="168.4512" x="712.3" y="360.9457">+capacityLiters: Double</text><text fill="#000000" font-family="sans-serif" font-size="14" lengthAdjust="spacing" textLength="197.6064" x="712.3" y="377.2426">+currentLevelLiters: Double</text><line style="stroke:#181818;stroke-width:0.5;" x1="707.3" x2="914.9064" y1="384.5444" y2="384.5444"/></g><!--class FuelType--><g class="entity" data-entity="FuelType" data-source-line="61" data-uid="ent0010" id="entity_FuelType"><rect fill="#F1F1F1" height="170.3438" rx="2.5" ry="2.5" style="stroke:#181818;stroke-width:0.5;" width="137.583" x="212.31" y="250.7869"/><ellipse cx="235.392" cy="270.9197" fill="#EB937F" rx="11" ry="11" style="stroke:#181818;stroke-width:1;"/><path d="M239.5014,276.9197 L231.7826,276.9197 L231.7826,264.5291 L239.5014,264.5291 L239.5014,266.6853 L234.2357,266.6853 L234.2357,269.3572 L239.0014,269.3572 L239.0014,271.5134 L234.2357,271.5134 L234.2357,274.7634 L239.5014,274.7634 L239.5014,276.9197 Z " fill="#000000"/><text fill="#000000" font-family="sans-serif" font-size="12" font-style="italic" lengthAdjust="spacing" textLength="91.623" x="249.188" y="266.9255">&#171;enumeration&#187;</text><text fill="#000000" font-family="sans-serif" font-size="14" lengthAdjust="spacing" textLength="63.7656" x="263.1167" y="282.7507">FuelType</text><line style="stroke:#181818;stroke-width:0.5;" x1="213.31" x2="348.893" y1="291.0525" y2="291.0525"/><text fill="#000000" font-family="sans-serif" font-size="14" lengthAdjust="spacing" textLength="79.2012" x="218.31" y="308.0476">PETROL_91</text><text fill="#000000" font-family="sans-serif" font-size="14" lengthAdjust="spacing" textLength="79.2012" x="218.31" y="324.3445">PETROL_95</text><text fill="#000000" font-family="sans-serif" font-size="14" lengthAdjust="spacing" textLength="49.2871" x="218.31" y="340.6414">DIESEL</text><text fill="#000000" font-family="sans-serif" font-size="14" lengthAdjust="spacing" textLength="95.0742" x="218.31" y="356.9382">EV_AC_TYPE2</text><text fill="#000000" font-family="sans-serif" font-size="14" lengthAdjust="spacing" textLength="81.416" x="218.31" y="373.2351">EV_DC_CCS</text><text fill="#000000" font-family="sans-serif" font-size="14" lengthAdjust="spacing" textLength="125.583" x="218.31" y="389.532">EV_DC_CHADEMO</text><text fill="#000000" font-family="sans-serif" font-size="14" lengthAdjust="spacing" textLength="116.1152" x="218.31" y="405.8289">HYDROGEN_H70</text><line style="stroke:#181818;stroke-width:0.5;" x1="213.31" x2="348.893" y1="413.1306" y2="413.1306"/></g><!--link SmartFuelStation to DispenserUnit--><g class="link" data-entity-1="SmartFuelStation" data-entity-2="DispenserUnit" data-source-line="72" data-uid="lnk11" id="link_SmartFuelStation_DispenserUnit"><path codeLine="72" d="M683.21,174.1869 C651.27,207.2969 612.67,247.3069 581.97,279.1269" fill="none" id="SmartFuelStation-DispenserUnit" style="stroke:#181818;stroke-width:1;"/><polygon fill="#000000" points="651.6385,215.9517,660.0336,211.4826,655.8034,207.4016,651.6385,215.9517" style="stroke:#000000;stroke-width:1;"/><text fill="#000000" font-family="sans-serif" font-size="13" lengthAdjust="spacing" textLength="45.9761" x="664.11" y="216.8538">houses</text><text fill="#000000" font-family="sans-serif" font-size="13" lengthAdjust="spacing" textLength="8.271" x="668.4281" y="193.7524">1</text><text fill="#000000" font-family="sans-serif" font-size="13" lengthAdjust="spacing" textLength="6.5" x="582.2" y="268.3624">*</text></g><!--link SmartFuelStation to FuelTank--><g class="link" data-entity-1="SmartFuelStation" data-entity-2="FuelTank" data-source-line="73" data-uid="lnk12" id="link_SmartFuelStation_FuelTank"><path codeLine="73" d="M763.93,174.1869 C773.65,207.2969 785.39,247.3069 794.72,279.1269" fill="none" id="SmartFuelStation-FuelTank" style="stroke:#181818;stroke-width:1;"/><polygon fill="#000000" points="783.5177,217.151,783.7912,207.6444,778.1511,209.2992,783.5177,217.151" style="stroke:#000000;stroke-width:1;"/><text fill="#000000" font-family="sans-serif" font-size="13" lengthAdjust="spacing" textLength="55.0278" x="791.11" y="216.8538">contains</text><text fill="#000000" font-family="sans-serif" font-size="13" lengthAdjust="spacing" textLength="8.271" x="757.4723" y="193.7524">1</text><text fill="#000000" font-family="sans-serif" font-size="13" lengthAdjust="spacing" textLength="6.5" x="786.3881" y="268.3624">*</text></g><!--link DispenserUnit to RoboticArm--><g class="link" data-entity-1="DispenserUnit" data-entity-2="RoboticArm" data-source-line="74" data-uid="lnk13" id="link_DispenserUnit_RoboticArm"><path codeLine="74" d="M528.11,392.8569 C528.11,425.5669 528.11,466.4369 528.11,497.6569" fill="none" id="DispenserUnit-RoboticArm" style="stroke:#181818;stroke-width:1;"/><polygon fill="#000000" points="533.11,464.6933,536.0489,455.6482,530.1711,455.6482,533.11,464.6933" style="stroke:#000000;stroke-width:1;"/><text fill="#000000" font-family="sans-serif" font-size="13" lengthAdjust="spacing" textLength="52.1206" x="542.11" y="464.1938">controls</text><text fill="#000000" font-family="sans-serif" font-size="13" lengthAdjust="spacing" textLength="8.271" x="519.64" y="412.7814">1</text><text fill="#000000" font-family="sans-serif" font-size="13" lengthAdjust="spacing" textLength="24.8066" x="502.5517" y="487.1519">0..1</text></g><!--SRC=[VLJTRfim6BtdARpSJDhKgfqqJKDL91hS13K51AHJhf03NnkhO2FRh4khIdk8FU6UP3Q4dwHT4HVV-NuEvpioLbGLWEAI27LLGu5EKAo8efoX1H7v8n60N5uIoYphGmvtb072Vk8bQvGLHCfHSdM3409MbvPyeAmYWfHjZwEKe9jQWPTn5jCdG6VMbkQ0eApKheHo0q9QrfwsbzBfUBOG-YnRuEMsrYSekqVFuVMBgJ1IGfSqkE1PqsgZEV3b7fW2hq0qW3JKjRIxLLjeUYh-2EAopkz1NV-mzURrfW3hfHStecnr5JfMTGvzRwE0tHyc6mBjpy7tqCM5SMilQZfj28CGHqxY1RwprEZ6yVm4-uu_mwQsIjBWAernTElfnA3AfR829a6i65MjhhnBlU6OhAkA2mMvSJdPLM2S07NHmMbdkB6evnvCsX8PyGrND7D4QQDBpWiWRAHdgBPYY2W76MFoeN5WBycl24YsVMNUaP8txVFSfN4gmewxJfCWlLfXuwFhnI7sOy-VQu2ZA8XwrcC9xz5YV-xCMvA1COrNOHX4oI5puqDZA64FhGjAHuSstEqDjr5dlSbcf28PLRibLVg_61-ih1O2c5h2JoYEgjqw7T6RQuGuYO9b-lry57zjbi5nunE-JPrPcgn3_AL5xYoTpU8XNZWklWaqNgpTA9XZFrryEpCV__Ztp-__lSDD8g1ezCWjhQJrwa-Vd4_GoGcQV9eS7MaRRNajGQBfkqEztyrZ8ttTA7rpcR53FjHFdPsUwcXqOFTZWXTwx1y0]--></g></svg>