<svg xmlns="http://www.w3.org/2000/svg" xmlns:xlink="http://www.w3.org/1999/xlink" contentStyleType="text/css" data-diagram-type="CLASS" height="465px" preserveAspectRatio="none" style="width:1024px;height:465px;background:#FFFFFF;" version="1.1" viewBox="0 0 1024 465" width="1024px" zoomAndPan="magnify"><title>SmartFuel - Logistics &amp; Analytics Domain</title><defs/><g><g class="title" data-source-line="1"><text fill="#000000" font-family="sans-serif" font-size="14" font-weight="bold" lengthAdjust="spacing" textLength="326.0811" x="342.1921" y="22.9951">SmartFuel - Logistics &amp; Analytics Domain</text></g><!--cluster Logistics--><g class="cluster" data-entity="Logistics" data-source-line="8" data-uid="ent0002" id="cluster_Logistics"><path d="M8.5,43.2969 L79.3154,43.2969 A3.75,3.75 0 0 1 81.8154,45.7969 L88.8154,65.5938 L619.5,65.5938 A2.5,2.5 0 0 1 622,68.0938 L622,456.4569 A2.5,2.5 0 0 1 619.5,458.9569 L8.5,458.9569 A2.5,2.5 0 0 1 6,456.4569 L6,45.7969 A2.5,2.5 0 0 1 8.5,43.2969" fill="none" style="stroke:#000000;stroke-width:1.5;"/><line style="stroke:#000000;stroke-width:1.5;" x1="6" x2="88.8154" y1="65.5938" y2="65.5938"/><text fill="#000000" font-family="sans-serif" font-size="14" font-weight="bold" lengthAdjust="spacing" textLength="69.8154" x="10" y="58.292">Logistics</text></g><!--cluster Analytics--><g class="cluster" data-entity="Analytics" data-source-line="48" data-uid="ent0009" id="cluster_Analytics"><path d="M800.5,67.7369 L873.7969,67.7369 A3.75,3.75 0 0 1 876.2969,70.2369 L883.2969,90.0338 L1001.5,90.0338 A2.5,2.5 0 0 1 1004,92.5338 L1004,444.1769 A2.5,2.5 0 0 1 1001.5,446.6769 L800.5,446.6769 A2.5,2.5 0 0 1 798,444.1769 L798,70.2369 A2.5,2.5 0 0 1 800.5,67.7369" fill="none" style="stroke:#000000;stroke-width:1.5;"/><line style="stroke:#000000;stroke-width:1.5;" x1="798" x2="883.2969" y1="90.0338" y2="90.0338"/><text fill="#000000" font-family="sans-serif" font-size="14" font-weight="bold" lengthAdjust="spacing" textLength="72.2969" x="802" y="82.732">Analytics</text></g><!--class FuelOrder--><g class="entity" data-entity="FuelOrder" data-source-line="10" data-uid="ent0003" id="entity_FuelOrder"><rect fill="#F1F1F1" height="129.4844" rx="2.5" ry="2.5" style="stroke:#181818;stroke-width:0.5;" width="252.2422" x="353.88" y="78.2969"/><ellipse cx="441.0211" cy="94.2969" fill="#ADD1B2" rx="11" ry="11" style="stroke:#181818;stroke-width:1;"/><path d="M443.9899,99.9375 Q443.4117,100.2344 442.7711,100.375 Q442.1305,100.5313 441.4274,100.5313 Q438.9274,100.5313 437.5992,98.8906 Q436.2867,97.2344 436.2867,94.1094 Q436.2867,90.9844 437.5992,89.3281 Q438.9274,87.6719 441.4274,87.6719 Q442.1305,87.6719 442.7711,87.8281 Q443.4274,87.9844 443.9899,88.2813 L443.9899,91 Q443.3649,90.4219 442.7711,90.1563 Q442.1774,89.875 441.5524,89.875 Q440.2086,89.875 439.5211,90.9531 Q438.8336,92.0156 438.8336,94.1094 Q438.8336,96.2031 439.5211,97.2813 Q440.2086,98.3438 441.5524,98.3438 Q442.1774,98.3438 442.7711,98.0781 Q443.3649,97.7969 443.9899,97.2188 L443.9899,99.9375 Z " fill="#000000"/><text fill="#000000" font-family="sans-serif" font-size="14" lengthAdjust="spacing" textLength="69.46" x="461.5211" y="99.1436">FuelOrder</text><line style="stroke:#181818;stroke-width:0.5;" x1="354.88" x2="605.1222" y1="110.2969" y2="110.2969"/><text fill="#000000" font-family="sans-serif" font-size="14" lengthAdjust="spacing" textLength="113.2715" x="359.88" y="127.292">+orderId: String</text><text fill="#000000" font-family="sans-serif" font-size="14" lengthAdjust="spacing" textLength="219.4541" x="359.88" y="143.5889">+requestedFuelType: FuelType</text><text fill="#000000" font-family="sans-serif" font-size="14" lengthAdjust="spacing" textLength="235.3887" x="359.88" y="159.8857">+requestedAmountLiters: Double</text><text fill="#000000" font-family="sans-serif" font-size="14" lengthAdjust="spacing" textLength="148.5586" x="359.88" y="176.1826">+status: OrderStatus</text><text fill="#000000" font-family="sans-serif" font-size="14" lengthAdjust="spacing" textLength="240.2422" x="359.88" y="192.4795">+deliveryMethod: DeliveryMethod</text><line style="stroke:#181818;stroke-width:0.5;" x1="354.88" x2="605.1222" y1="199.7813" y2="199.7813"/></g><!--class Drone--><g class="entity" data-entity="Drone" data-source-line="18" data-uid="ent0004" id="entity_Drone"><rect fill="#F1F1F1" height="113.1875" rx="2.5" ry="2.5" style="stroke:#181818;stroke-width:0.5;" width="217.4268" x="371.29" y="317.4869"/><ellipse cx="454.4594" cy="333.4869" fill="#ADD1B2" rx="11" ry="11" style="stroke:#181818;stroke-width:1;"/><path d="M457.4282,339.1275 Q456.8501,339.4244 456.2094,339.565 Q455.5688,339.7213 454.8657,339.7213 Q452.3657,339.7213 451.0376,338.0806 Q449.7251,336.4244 449.7251,333.2994 Q449.7251,330.1744 451.0376,328.5181 Q452.3657,326.8619 454.8657,326.8619 Q455.5688,326.8619 456.2094,327.0181 Q456.8657,327.1744 457.4282,327.4713 L457.4282,330.19 Q456.8032,329.6119 456.2094,329.3463 Q455.6157,329.065 454.9907,329.065 Q453.6469,329.065 452.9594,330.1431 Q452.2719,331.2056 452.2719,333.2994 Q452.2719,335.3931 452.9594,336.4713 Q453.6469,337.5338 454.9907,337.5338 Q455.6157,337.5338 456.2094,337.2681 Q456.8032,336.9869 457.4282,336.4088 L457.4282,339.1275 Z " fill="#000000"/><text fill="#000000" font-family="sans-serif" font-size="14" lengthAdjust="spacing" textLength="42.5879" x="474.9594" y="338.3336">Drone</text><line style="stroke:#181818;stroke-width:0.5;" x1="372.29" x2="587.7168" y1="349.4869" y2="349.4869"/><text fill="#000000" font-family="sans-serif" font-size="14" lengthAdjust="spacing" textLength="156.2764" x="377.29" y="366.482">+droneId: String {PK}</text><text fill="#000000" font-family="sans-serif" font-size="14" lengthAdjust="spacing" textLength="106.2715" x="377.29" y="382.7789">+model: String</text><text fill="#000000" font-family="sans-serif" font-size="14" lengthAdjust="spacing" textLength="151.1152" x="377.29" y="399.0757">+status: DroneStatus</text><text fill="#000000" font-family="sans-serif" font-size="14" lengthAdjust="spacing" textLength="205.4268" x="377.29" y="415.3726">+payloadCapacityKg: Double</text><line style="stroke:#181818;stroke-width:0.5;" x1="372.29" x2="587.7168" y1="422.6744" y2="422.6744"/></g><!--class OrderStatus--><g class="entity" data-entity="OrderStatus" data-source-line="25" data-uid="ent0005" id="entity_OrderStatus"><rect fill="#F1F1F1" height="121.4531" rx="2.5" ry="2.5" style="stroke:#181818;stroke-width:0.5;" width="119.623" x="22.19" y="82.3069"/><ellipse cx="37.19" cy="102.4397" fill="#EB937F" rx="11" ry="11" style="stroke:#181818;stroke-width:1;"/><path d="M41.2994,108.4397 L33.5806,108.4397 L33.5806,96.0491 L41.2994,96.0491 L41.2994,98.2053 L36.0338,98.2053 L36.0338,100.8772 L40.7994,100.8772 L40.7994,103.0334 L36.0338,103.0334 L36.0338,106.2834 L41.2994,106.2834 L41.2994,108.4397 Z " fill="#000000"/><text fill="#000000" font-family="sans-serif" font-size="12" font-style="italic" lengthAdjust="spacing" textLength="91.623" x="49.19" y="98.4455">&#171;enumeration&#187;</text><text fill="#000000" font-family="sans-serif" font-size="14" lengthAdjust="spacing" textLength="84.6426" x="52.6802" y="114.2707">OrderStatus</text><line style="stroke:#181818;stroke-width:0.5;" x1="23.19" x2="140.813" y1="122.5725" y2="122.5725"/><text fill="#000000" font-family="sans-serif" font-size="14" lengthAdjust="spacing" textLength="85.75" x="28.19" y="139.5676">REQUESTED</text><text fill="#000000" font-family="sans-serif" font-size="14" lengthAdjust="spacing" textLength="86.4883" x="28.19" y="155.8645">SCHEDULED</text><text fill="#000000" font-family="sans-serif" font-size="14" lengthAdjust="spacing" textLength="81.498" x="28.19" y="172.1614">IN_TRANSIT</text><text fill="#000000" font-family="sans-serif" font-size="14" lengthAdjust="spacing" textLength="79.3311" x="28.19" y="188.4582">DELIVERED</text><line style="stroke:#181818;stroke-width:0.5;" x1="23.19" x2="140.813" y1="195.76" y2="195.76"/></g><!--class DeliveryMethod--><g class="entity" data-entity="DeliveryMethod" data-source-line="32" data-uid="ent0006" id="entity_DeliveryMethod"><rect fill="#F1F1F1" height="88.8594" rx="2.5" ry="2.5" style="stroke:#181818;stroke-width:0.5;" width="142.6191" x="176.69" y="98.6069"/><ellipse cx="191.69" cy="118.7397" fill="#EB937F" rx="11" ry="11" style="stroke:#181818;stroke-width:1;"/><path d="M195.7994,124.7397 L188.0806,124.7397 L188.0806,112.3491 L195.7994,112.3491 L195.7994,114.5053 L190.5338,114.5053 L190.5338,117.1772 L195.2994,117.1772 L195.2994,119.3334 L190.5338,119.3334 L190.5338,122.5834 L195.7994,122.5834 L195.7994,124.7397 Z " fill="#000000"/><text fill="#000000" font-family="sans-serif" font-size="12" font-style="italic" lengthAdjust="spacing" textLength="91.623" x="215.188" y="114.7455">&#171;enumeration&#187;</text><text fill="#000000" font-family="sans-serif" font-size="14" lengthAdjust="spacing" textLength="110.6191" x="205.69" y="130.5707">DeliveryMethod</text><line style="stroke:#181818;stroke-width:0.5;" x1="177.69" x2="318.3091" y1="138.8725" y2="138.8725"/><text fill="#000000" font-family="sans-serif" font-size="14" lengthAdjust="spacing" textLength="117.5781" x="182.69" y="155.8676">GROUND_TRUCK</text><text fill="#000000" font-family="sans-serif" font-size="14" lengthAdjust="spacing" textLength="50.8457" x="182.69" y="172.1645">DRONE</text><line style="stroke:#181818;stroke-width:0.5;" x1="177.69" x2="318.3091" y1="179.4663" y2="179.4663"/></g><!--class DroneStatus--><g class="entity" data-entity="DroneStatus" data-source-line="37" data-uid="ent0007" id="entity_DroneStatus"><rect fill="#F1F1F1" height="137.75" rx="2.5" ry="2.5" style="stroke:#181818;stroke-width:0.5;" width="169.9033" x="22.05" y="305.2069"/><ellipse cx="59.6761" cy="325.3397" fill="#EB937F" rx="11" ry="11" style="stroke:#181818;stroke-width:1;"/><path d="M63.7855,331.3397 L56.0667,331.3397 L56.0667,318.9491 L63.7855,318.9491 L63.7855,321.1053 L58.5199,321.1053 L58.5199,323.7772 L63.2855,323.7772 L63.2855,325.9334 L58.5199,325.9334 L58.5199,329.1834 L63.7855,329.1834 L63.7855,331.3397 Z " fill="#000000"/><text fill="#000000" font-family="sans-serif" font-size="12" font-style="italic" lengthAdjust="spacing" textLength="91.623" x="76.7042" y="321.3455">&#171;enumeration&#187;</text><text fill="#000000" font-family="sans-serif" font-size="14" lengthAdjust="spacing" textLength="87.1992" x="78.9161" y="337.1707">DroneStatus</text><line style="stroke:#181818;stroke-width:0.5;" x1="23.05" x2="190.9533" y1="345.4725" y2="345.4725"/><text fill="#000000" font-family="sans-serif" font-size="14" lengthAdjust="spacing" textLength="31.5547" x="28.05" y="362.4676">IDLE</text><text fill="#000000" font-family="sans-serif" font-size="14" lengthAdjust="spacing" textLength="74.71" x="28.05" y="378.7645">EN_ROUTE</text><text fill="#000000" font-family="sans-serif" font-size="14" lengthAdjust="spacing" textLength="157.9033" x="28.05" y="395.0614">DELIVERING_PAYLOAD</text><text fill="#000000" font-family="sans-serif" font-size="14" lengthAdjust="spacing" textLength="83.0225" x="28.05" y="411.3582">RETURNING</text><text fill="#000000" font-family="sans-serif" font-size="14" lengthAdjust="spacing" textLength="102.7988" x="28.05" y="427.6551">MAINTENANCE</text><line style="stroke:#181818;stroke-width:0.5;" x1="23.05" x2="190.9533" y1="434.9569" y2="434.9569"/></g><!--class FuelOpsAnalyst--><g class="entity" data-entity="FuelOpsAnalyst" data-source-line="50" data-uid="ent0010" id="entity_FuelOpsAnalyst"><rect fill="#F1F1F1" height="80.5938" rx="2.5" ry="2.5" style="stroke:#181818;stroke-width:0.5;" width="140.6162" x="813.69" y="102.7369"/><ellipse cx="828.69" cy="118.7369" fill="#ADD1B2" rx="11" ry="11" style="stroke:#181818;stroke-width:1;"/><path d="M831.6588,124.3775 Q831.0806,124.6744 830.44,124.815 Q829.7994,124.9713 829.0963,124.9713 Q826.5963,124.9713 825.2681,123.3306 Q823.9556,121.6744 823.9556,118.5494 Q823.9556,115.4244 825.2681,113.7681 Q826.5963,112.1119 829.0963,112.1119 Q829.7994,112.1119 830.44,112.2681 Q831.0963,112.4244 831.6588,112.7213 L831.6588,115.44 Q831.0338,114.8619 830.44,114.5963 Q829.8463,114.315 829.2213,114.315 Q827.8775,114.315 827.19,115.3931 Q826.5025,116.4556 826.5025,118.5494 Q826.5025,120.6431 827.19,121.7213 Q827.8775,122.7838 829.2213,122.7838 Q829.8463,122.7838 830.44,122.5181 Q831.0338,122.2369 831.6588,121.6588 L831.6588,124.3775 Z " fill="#000000"/><text fill="#000000" font-family="sans-serif" font-size="14" lengthAdjust="spacing" textLength="108.6162" x="842.69" y="123.5836">FuelOpsAnalyst</text><line style="stroke:#181818;stroke-width:0.5;" x1="814.69" x2="953.3062" y1="134.7369" y2="134.7369"/><text fill="#000000" font-family="sans-serif" font-size="14" lengthAdjust="spacing" textLength="126.6836" x="819.69" y="151.732">+analystId: String</text><text fill="#000000" font-family="sans-serif" font-size="14" lengthAdjust="spacing" textLength="102.3818" x="819.69" y="168.0289">+name: String</text><line style="stroke:#181818;stroke-width:0.5;" x1="814.69" x2="953.3062" y1="175.3306" y2="175.3306"/></g><!--class KPI--><g class="entity" data-entity="KPI" data-source-line="55" data-uid="ent0011" id="entity_KPI"><rect fill="#F1F1F1" height="113.1875" rx="2.5" ry="2.5" style="stroke:#181818;stroke-width:0.5;" width="173.0957" x="814.45" y="317.4869"/><ellipse cx="885.8719" cy="333.4869" fill="#ADD1B2" rx="11" ry="11" style="stroke:#181818;stroke-width:1;"/><path d="M888.8406,339.1275 Q888.2625,339.4244 887.6219,339.565 Q886.9813,339.7213 886.2781,339.7213 Q883.7781,339.7213 882.45,338.0806 Q881.1375,336.4244 881.1375,333.2994 Q881.1375,330.1744 882.45,328.5181 Q883.7781,326.8619 886.2781,326.8619 Q886.9813,326.8619 887.6219,327.0181 Q888.2781,327.1744 888.8406,327.4713 L888.8406,330.19 Q888.2156,329.6119 887.6219,329.3463 Q887.0281,329.065 886.4031,329.065 Q885.0594,329.065 884.3719,330.1431 Q883.6844,331.2056 883.6844,333.2994 Q883.6844,335.3931 884.3719,336.4713 Q885.0594,337.5338 886.4031,337.5338 Q887.0281,337.5338 887.6219,337.2681 Q888.2156,336.9869 888.8406,336.4088 L888.8406,339.1275 Z " fill="#000000"/><text fill="#000000" font-family="sans-serif" font-size="14" lengthAdjust="spacing" textLength="21.752" x="906.3719" y="338.3336">KPI</text><line style="stroke:#181818;stroke-width:0.5;" x1="815.45" x2="986.5457" y1="349.4869" y2="349.4869"/><text fill="#000000" font-family="sans-serif" font-size="14" lengthAdjust="spacing" textLength="96.5781" x="820.45" y="366.482">+kpiId: String</text><text fill="#000000" font-family="sans-serif" font-size="14" lengthAdjust="spacing" textLength="102.3818" x="820.45" y="382.7789">+name: String</text><text fill="#000000" font-family="sans-serif" font-size="14" lengthAdjust="spacing" textLength="152.8516" x="820.45" y="399.0757">+targetValue: Double</text><text fill="#000000" font-family="sans-serif" font-size="14" lengthAdjust="spacing" textLength="161.0957" x="820.45" y="415.3726">+currentValue: Double</text><line style="stroke:#181818;stroke-width:0.5;" x1="815.45" x2="986.5457" y1="422.6744" y2="422.6744"/></g><!--class FuelType--><g class="entity" data-entity="FuelType" data-source-line="65" data-uid="ent0013" id="entity_FuelType"><rect fill="#F1F1F1" height="170.3438" rx="2.5" ry="2.5" style="stroke:#181818;stroke-width:0.5;" width="137.583" x="641.21" y="57.8669"/><ellipse cx="664.292" cy="77.9997" fill="#EB937F" rx="11" ry="11" style="stroke:#181818;stroke-width:1;"/><path d="M668.4014,83.9997 L660.6826,83.9997 L660.6826,71.6091 L668.4014,71.6091 L668.4014,73.7653 L663.1357,73.7653 L663.1357,76.4372 L667.9014,76.4372 L667.9014,78.5934 L663.1357,78.5934 L663.1357,81.8434 L668.4014,81.8434 L668.4014,83.9997 Z " fill="#000000"/><text fill="#000000" font-family="sans-serif" font-size="12" font-style="italic" lengthAdjust="spacing" textLength="91.623" x="678.088" y="74.0055">&#171;enumeration&#187;</text><text fill="#000000" font-family="sans-serif" font-size="14" lengthAdjust="spacing" textLength="63.7656" x="692.0167" y="89.8307">FuelType</text><line style="stroke:#181818;stroke-width:0.5;" x1="642.21" x2="777.793" y1="98.1325" y2="98.1325"/><text fill="#000000" font-family="sans-serif" font-size="14" lengthAdjust="spacing" textLength="79.2012" x="647.21" y="115.1276">PETROL_91</text><text fill="#000000" font-family="sans-serif" font-size="14" lengthAdjust="spacing" textLength="79.2012" x="647.21" y="131.4245">PETROL_95</text><text fill="#000000" font-family="sans-serif" font-size="14" lengthAdjust="spacing" textLength="49.2871" x="647.21" y="147.7214">DIESEL</text><text fill="#000000" font-family="sans-serif" font-size="14" lengthAdjust="spacing" textLength="95.0742" x="647.21" y="164.0182">EV_AC_TYPE2</text><text fill="#000000" font-family="sans-serif" font-size="14" lengthAdjust="spacing" textLength="81.416" x="647.21" y="180.3151">EV_DC_CCS</text><text fill="#000000" font-family="sans-serif" font-size="14" lengthAdjust="spacing" textLength="125.583" x="647.21" y="196.612">EV_DC_CHADEMO</text><text fill="#000000" font-family="sans-serif" font-size="14" lengthAdjust="spacing" textLength="116.1152" x="647.21" y="212.9089">HYDROGEN_H70</text><line style="stroke:#181818;stroke-width:0.5;" x1="642.21" x2="777.793" y1="220.2106" y2="220.2106"/></g><!--link FuelOrder to Drone--><g class="link" data-entity-1="FuelOrder" data-entity-2="Drone" data-source-line="45" data-uid="lnk8" id="link_FuelOrder_Drone"><path codeLine="45" d="M480,208.1469 C480,242.4169 480,284.2269 480,317.1669" fill="none" id="FuelOrder-Drone" style="stroke:#181818;stroke-width:1;"/><polygon fill="#000000" points="485,271.7733,487.9389,262.7282,482.0611,262.7282,485,271.7733" style="stroke:#000000;stroke-width:1;"/><text fill="#000000" font-family="sans-serif" font-size="13" lengthAdjust="spacing" textLength="64.7017" x="494" y="271.2738">fulfilledBy</text><text fill="#000000" font-family="sans-serif" font-size="13" lengthAdjust="spacing" textLength="24.8066" x="454.804" y="227.7083">0..1</text><text fill="#000000" font-family="sans-serif" font-size="13" lengthAdjust="spacing" textLength="8.271" x="471.5286" y="306.3914">1</text></g><!--link FuelOpsAnalyst to KPI--><g class="link" data-entity-1="FuelOpsAnalyst" data-entity-2="KPI" data-source-line="62" data-uid="lnk12" id="link_FuelOpsAnalyst_KPI"><path codeLine="62" d="M886.94,183.6669 C889.68,220.5469 893.78,275.8669 896.85,317.2169" fill="none" id="FuelOpsAnalyst-KPI" style="stroke:#181818;stroke-width:1;"/><polygon fill="#000000" points="898.37,271.7596,900.6315,262.5218,894.7698,262.9568,898.37,271.7596" style="stroke:#000000;stroke-width:1;"/><text fill="#000000" font-family="sans-serif" font-size="13" lengthAdjust="spacing" textLength="109.4653" x="907" y="271.2738">defines/monitors</text><text fill="#000000" font-family="sans-serif" font-size="13" lengthAdjust="spacing" textLength="8.271" x="878.793" y="203.4156">1</text><text fill="#000000" font-family="sans-serif" font-size="13" lengthAdjust="spacing" textLength="6.5" x="890.0093" y="306.4475">*</text></g><!--SRC=[XLDDZvim4BtpAzmSUcYLRRPILJLQHQBW9YW4KZuYvOISCCbQ0KnjKubTvR_N62XajwkUF6zcFE-DPoofp025EU7oHmKPcYANdQcGz2ZGUsGM9AkrRRESqC8mtgLmeWKWx4LEj4V7Z0WnSiORX10KLMw82orAmadUvfXISdge93X7LeJq2T3CUAGf8CXBMUUG7u0BmoZ9yKBEC1BnR1YePsiK-Zm5hhoA1tra3N3IEGfLzUBSEZdyga18I9lqg2vXZdhhHOAPiwgGBfMAUwvQh0vPbo8aaPNoQRPGWpQGGaP_0wyt81-P8hPliCgvZlJQdAbNwRIc3HYqekVj-jf6SgQgtlRGy-iAO_wIr1aZgKNKIr5PhyyZtHsrci58DdfuQEO1d4ZAYiMYanFWdp4E8snh55ehRCTkXnmlYGBJ2vr8GnkxpWu7EZXGt3R-1iioy6FFLjLYQztM2dmFtzOPEdoZY6ExM1lOIrIz28zLETuosPfxrpVjhgye3ZpbrMXZEbw4FTEp_f8EEpIPtTtTJz1qYYRgQ6SrHwSgEz4iW_HxZHR6TLZ9uI-yMibIwA2G_Qn92rzkPa5o67d6gxBUEltbIqd_Sr5v9E5da3kILN2xkSUASoXUHORU1x6JhliF4qq_H-qt5fzoLb39k6WVG8-f_q7_dD4MHu7l9j_kH_ONPTiE3h7RDBbBJ2k9zblykKMsbLXMEDWhqyORN-7LNgt8KarwzNLcNFy0]--></g></svg>