<svg xmlns="http://www.w3.org/2000/svg" xmlns:xlink="http://www.w3.org/1999/xlink" contentStyleType="text/css" data-diagram-type="DESCRIPTION" height="1716px" preserveAspectRatio="none" style="width:1188px;height:1716px;background:#FFFFFF;" version="1.1" viewBox="0 0 1188 1716" width="1188px" zoomAndPan="magnify"><title>SmartFuel System: Customer &amp; Station Operations (Detailed)</title><defs/><g><g class="title" data-source-line="1"><text fill="#000000" font-family="sans-serif" font-size="14" font-weight="bold" lengthAdjust="spacing" textLength="486.4248" x="344.04" y="22.9951">SmartFuel System: Customer &amp; Station Operations (Detailed)</text></g><!--cluster Customer & Station Interactions--><g class="cluster" data-entity="Customer &amp; Station Interactions" data-source-line="15" data-uid="ent0006" id="cluster_Customer &amp; Station Interactions"><rect fill="none" height="1210" rx="2.5" ry="2.5" style="stroke:#181818;stroke-width:1;" width="636.4" x="369.89" y="265.5569"/><text fill="#000000" font-family="sans-serif" font-size="14" font-weight="bold" lengthAdjust="spacing" textLength="255.4248" x="560.3776" y="280.552">Customer &amp; Station Interactions</text></g><!--entity UC_APPROACH--><g class="entity" data-entity="UC_APPROACH" data-source-line="16" data-uid="ent0007" id="entity_UC_APPROACH"><ellipse cx="880.0903" cy="814.5569" fill="#F1F1F1" rx="103.5503" ry="23.1101" style="stroke:#181818;stroke-width:0.5;"/><text fill="#000000" font-family="sans-serif" font-size="14" lengthAdjust="spacing" textLength="183.8525" x="788.164" y="819.2054">Approach Station (V2X ID)</text></g><!--entity UC_FUEL--><g class="entity" data-entity="UC_FUEL" data-source-line="17" data-uid="ent0008" id="entity_UC_FUEL"><ellipse cx="515.3866" cy="738.5542" fill="#F1F1F1" rx="98.4866" ry="22.0973" style="stroke:#181818;stroke-width:0.5;"/><text fill="#000000" font-family="sans-serif" font-size="14" lengthAdjust="spacing" textLength="172.7168" x="429.0282" y="743.2026">Initiate Fueling/Charging</text></g><!--entity UC_OVERRIDE_FUEL--><g class="entity" data-entity="UC_OVERRIDE_FUEL" data-source-line="18" data-uid="ent0009" id="entity_UC_OVERRIDE_FUEL"><ellipse cx="515.3877" cy="324.5564" fill="#F1F1F1" rx="106.2477" ry="23.6495" style="stroke:#181818;stroke-width:0.5;"/><text fill="#000000" font-family="sans-serif" font-size="14" lengthAdjust="spacing" textLength="189.7383" x="420.5185" y="329.2048">Select/Override Fuel Grade</text></g><!--entity UC_PAY--><g class="entity" data-entity="UC_PAY" data-source-line="19" data-uid="ent0010" id="entity_UC_PAY"><ellipse cx="880.0871" cy="632.5583" fill="#F1F1F1" rx="106.2571" ry="23.6514" style="stroke:#181818;stroke-width:0.5;"/><text fill="#000000" font-family="sans-serif" font-size="14" lengthAdjust="spacing" textLength="189.7588" x="785.2077" y="637.2067">Make Contactless Payment</text></g><!--entity UC_RECEIPT--><g class="entity" data-entity="UC_RECEIPT" data-source-line="20" data-uid="ent0011" id="entity_UC_RECEIPT"><ellipse cx="515.3948" cy="907.5598" fill="#F1F1F1" rx="93.9648" ry="21.193" style="stroke:#181818;stroke-width:0.5;"/><text fill="#000000" font-family="sans-serif" font-size="14" lengthAdjust="spacing" textLength="162.6611" x="434.0642" y="912.2083">Receive Digital Receipt</text></g><!--entity UC_ALT_STATION--><g class="entity" data-entity="UC_ALT_STATION" data-source-line="21" data-uid="ent0012" id="entity_UC_ALT_STATION"><ellipse cx="880.0925" cy="715.5574" fill="#F1F1F1" rx="110.2025" ry="24.4405" style="stroke:#181818;stroke-width:0.5;"/><text fill="#000000" font-family="sans-serif" font-size="14" lengthAdjust="spacing" textLength="198.3174" x="780.9338" y="720.2058">View Alt. Station Suggestion</text></g><!--entity UC_FEEDBACK--><g class="entity" data-entity="UC_FEEDBACK" data-source-line="22" data-uid="ent0013" id="entity_UC_FEEDBACK"><ellipse cx="515.3858" cy="407.556" fill="#F1F1F1" rx="112.0958" ry="24.8192" style="stroke:#181818;stroke-width:0.5;"/><text fill="#000000" font-family="sans-serif" font-size="14" lengthAdjust="spacing" textLength="202.4053" x="414.1832" y="412.2045">Provide Feedback on Service</text></g><!--entity UC_VIEW_CARBON--><g class="entity" data-entity="UC_VIEW_CARBON" data-source-line="23" data-uid="ent0014" id="entity_UC_VIEW_CARBON"><ellipse cx="515.3896" cy="657.5568" fill="#F1F1F1" rx="109.9496" ry="24.3899" style="stroke:#181818;stroke-width:0.5;"/><text fill="#000000" font-family="sans-serif" font-size="14" lengthAdjust="spacing" textLength="197.7705" x="416.5044" y="662.2052">View Carbon Intensity Score</text></g><!--entity UC_STATION_SAFETY--><g class="entity" data-entity="UC_STATION_SAFETY" data-source-line="25" data-uid="ent0015" id="entity_UC_STATION_SAFETY"><ellipse cx="515.3863" cy="1079.5581" fill="#F1F1F1" rx="115.0063" ry="25.4013" style="stroke:#181818;stroke-width:0.5;"/><text fill="#000000" font-family="sans-serif" font-size="14" lengthAdjust="spacing" textLength="208.667" x="411.0528" y="1084.2066">Oversee Station Safety &amp; Ops</text></g><!--entity UC_HANDLE_EXC--><g class="entity" data-entity="UC_HANDLE_EXC" data-source-line="26" data-uid="ent0016" id="entity_UC_HANDLE_EXC"><ellipse cx="515.3902" cy="1164.5529" fill="#F1F1F1" rx="110.4302" ry="24.486" style="stroke:#181818;stroke-width:0.5;"/><text fill="#000000" font-family="sans-serif" font-size="14" lengthAdjust="spacing" textLength="198.8096" x="415.9854" y="1169.2013">Handle Exceptions &amp; Alarms</text></g><!--entity UC_ALERT_LEAK--><g class="entity" data-entity="UC_ALERT_LEAK" data-source-line="27" data-uid="ent0017" id="entity_UC_ALERT_LEAK"><ellipse cx="515.3946" cy="1264.5578" fill="#F1F1F1" rx="105.7046" ry="23.5409" style="stroke:#181818;stroke-width:0.5;"/><text fill="#000000" font-family="sans-serif" font-size="14" lengthAdjust="spacing" textLength="188.5557" x="421.1168" y="1269.2062">Respond to Fuel Leak Alert</text></g><!--entity UC_ALERT_ARM--><g class="entity" data-entity="UC_ALERT_ARM" data-source-line="28" data-uid="ent0018" id="entity_UC_ALERT_ARM"><ellipse cx="515.3893" cy="1434.5567" fill="#F1F1F1" rx="112.9493" ry="24.9899" style="stroke:#181818;stroke-width:0.5;"/><text fill="#000000" font-family="sans-serif" font-size="14" lengthAdjust="spacing" textLength="204.2441" x="413.2672" y="1439.2052">Respond to Arm Torque Alert</text></g><!--entity UC_ALERT_EDGE--><g class="entity" data-entity="UC_ALERT_EDGE" data-source-line="29" data-uid="ent0019" id="entity_UC_ALERT_EDGE"><ellipse cx="515.3942" cy="1348.5597" fill="#F1F1F1" rx="115.9142" ry="25.5828" style="stroke:#181818;stroke-width:0.5;"/><text fill="#000000" font-family="sans-serif" font-size="14" lengthAdjust="spacing" textLength="210.6152" x="410.0866" y="1353.2082">Respond to Edge Node Offline</text></g><!--entity UC_MANUAL_OVERRIDE--><g class="entity" data-entity="UC_MANUAL_OVERRIDE" data-source-line="30" data-uid="ent0020" id="entity_UC_MANUAL_OVERRIDE"><ellipse cx="515.39" cy="492.5529" fill="#F1F1F1" rx="116.08" ry="25.616" style="stroke:#181818;stroke-width:0.5;"/><text fill="#000000" font-family="sans-serif" font-size="14" lengthAdjust="spacing" textLength="210.9707" x="409.9046" y="497.2013">Perform Manual Override (AR)</text></g><!--entity UC_ESTOP--><g class="entity" data-entity="UC_ESTOP" data-source-line="31" data-uid="ent0021" id="entity_UC_ESTOP"><ellipse cx="515.3907" cy="575.553" fill="#F1F1F1" rx="100.6807" ry="22.5361" style="stroke:#181818;stroke-width:0.5;"/><text fill="#000000" font-family="sans-serif" font-size="14" lengthAdjust="spacing" textLength="177.5566" x="426.6124" y="580.2014">Activate Emergency Stop</text></g><!--entity UC_REENABLE--><g class="entity" data-entity="UC_REENABLE" data-source-line="32" data-uid="ent0022" id="entity_UC_REENABLE"><ellipse cx="515.3904" cy="991.559" fill="#F1F1F1" rx="126.2104" ry="27.6421" style="stroke:#181818;stroke-width:0.5;"/><text fill="#000000" font-family="sans-serif" font-size="14" lengthAdjust="spacing" textLength="232.5586" x="399.1111" y="996.2074">Re-enable Dispensers Post-EStop</text></g><!--entity UC_LOCAL_OPS--><g class="entity" data-entity="UC_LOCAL_OPS" data-source-line="33" data-uid="ent0023" id="entity_UC_LOCAL_OPS"><ellipse cx="515.3894" cy="823.5568" fill="#F1F1F1" rx="129.4994" ry="28.2999" style="stroke:#181818;stroke-width:0.5;"/><text fill="#000000" font-family="sans-serif" font-size="14" lengthAdjust="spacing" textLength="239.5176" x="395.6306" y="828.2052">Manage Local Ops (Cloud Outage)</text></g><!--entity Driver--><g class="entity" data-entity="Driver" data-source-line="8" data-uid="ent0002" id="entity_Driver"><ellipse cx="64.44" cy="385.4069" fill="#F1F1F1" rx="16" ry="16" style="stroke:#181818;stroke-width:0.5;"/><path d="M64.44,405.4069 C68.44,405.4069 71.44,405.4069 75.44,401.4069 C83.44,401.4069 91.44,409.4069 91.44,417.4069 L91.44,421.4069 C91.44,425.4069 87.44,429.4069 83.44,429.4069 L45.44,429.4069 C41.44,429.4069 37.44,425.4069 37.44,421.4069 L37.44,417.4069 C37.44,409.4069 45.44,401.4069 53.44,401.4069 C57.44,405.4069 60.44,405.4069 64.44,405.4069" fill="#F1F1F1" style="stroke:#181818;stroke-width:0.5;"/><text fill="#000000" font-family="sans-serif" font-size="14" lengthAdjust="spacing" textLength="43.0801" x="42.9" y="442.902">Driver</text></g><!--entity AVU--><g class="entity" data-entity="AVU" data-source-line="9" data-uid="ent0003" id="entity_AVU"><ellipse cx="64.4439" cy="913.4069" fill="#F1F1F1" rx="16" ry="16" style="stroke:#181818;stroke-width:0.5;"/><path d="M64.4439,933.4069 C68.4439,933.4069 71.4439,933.4069 75.4439,929.4069 C83.4439,929.4069 91.4439,937.4069 91.4439,945.4069 L91.4439,949.4069 C91.4439,953.4069 87.4439,957.4069 83.4439,957.4069 L45.4439,957.4069 C41.4439,957.4069 37.4439,953.4069 37.4439,949.4069 L37.4439,945.4069 C37.4439,937.4069 45.4439,929.4069 53.4439,929.4069 C57.4439,933.4069 60.4439,933.4069 64.4439,933.4069" fill="#F1F1F1" style="stroke:#181818;stroke-width:0.5;"/><text fill="#000000" font-family="sans-serif" font-size="14" lengthAdjust="spacing" textLength="107.4678" x="10.71" y="970.902">AV Control Unit</text></g><!--entity PG_Ext--><g class="entity" data-entity="PG_Ext" data-source-line="10" data-uid="ent0004" id="entity_PG_Ext"><ellipse cx="1117.3974" cy="610.4069" fill="#F1F1F1" rx="16" ry="16" style="stroke:#181818;stroke-width:0.5;"/><path d="M1117.3974,630.4069 C1121.3974,630.4069 1124.3974,630.4069 1128.3974,626.4069 C1136.3974,626.4069 1144.3974,634.4069 1144.3974,642.4069 L1144.3974,646.4069 C1144.3974,650.4069 1140.3974,654.4069 1136.3974,654.4069 L1098.3974,654.4069 C1094.3974,654.4069 1090.3974,650.4069 1090.3974,646.4069 L1090.3974,642.4069 C1090.3974,634.4069 1098.3974,626.4069 1106.3974,626.4069 C1110.3974,630.4069 1113.3974,630.4069 1117.3974,630.4069" fill="#F1F1F1" style="stroke:#181818;stroke-width:0.5;"/><text fill="#000000" font-family="sans-serif" font-size="14" lengthAdjust="spacing" textLength="128.2148" x="1053.29" y="667.902">Payment Gateway</text></g><!--entity SO_Int--><g class="entity" data-entity="SO_Int" data-source-line="13" data-uid="ent0005" id="entity_SO_Int"><ellipse cx="64.4438" cy="801.4069" fill="#F1F1F1" rx="16" ry="16" style="stroke:#181818;stroke-width:0.5;"/><path d="M64.4438,821.4069 C68.4438,821.4069 71.4438,821.4069 75.4438,817.4069 C83.4438,817.4069 91.4438,825.4069 91.4438,833.4069 L91.4438,837.4069 C91.4438,841.4069 87.4438,845.4069 83.4438,845.4069 L45.4438,845.4069 C41.4438,845.4069 37.4438,841.4069 37.4438,837.4069 L37.4438,833.4069 C37.4438,825.4069 45.4438,817.4069 53.4438,817.4069 C57.4438,821.4069 60.4438,821.4069 64.4438,821.4069" fill="#F1F1F1" style="stroke:#181818;stroke-width:0.5;"/><text fill="#000000" font-family="sans-serif" font-size="14" lengthAdjust="spacing" textLength="116.8877" x="6" y="858.902">Station Operator</text></g><!--link Driver to UC_APPROACH--><g class="link" data-entity-1="Driver" data-entity-2="UC_APPROACH" data-source-line="37" data-uid="lnk24" id="link_Driver_UC_APPROACH"><path d="M92.17,381.6869 C108.53,367.1269 130.56,349.6869 152.89,338.5569 C349.78,240.3469 470.59,149.2669 644.89,283.5569 C666.46,300.1769 752.89,736.2769 769.89,757.5569 C783.1,774.1069 796.9923,783.8194 815.7323,792.6494" fill="none" id="Driver-to-UC_APPROACH" style="stroke:#181818;stroke-width:1;"/><polygon fill="#181818" points="821.16,795.2069,814.7235,787.7523,816.6369,793.0757,811.3135,794.9892,821.16,795.2069" style="stroke:#181818;stroke-width:1;"/></g><!--link Driver to UC_FUEL--><g class="link" data-entity-1="Driver" data-entity-2="UC_FUEL" data-source-line="38" data-uid="lnk25" id="link_Driver_UC_FUEL"><path d="M66.6,446.3369 C70.56,504.3269 86.93,612.9569 152.89,670.5569 C226.48,734.8269 335.2304,746.6385 415.6604,745.6785" fill="none" id="Driver-to-UC_FUEL" style="stroke:#181818;stroke-width:1;"/><polygon fill="#181818" points="421.66,745.6069,412.6129,741.7146,416.6604,745.6665,412.7084,749.714,421.66,745.6069" style="stroke:#181818;stroke-width:1;"/></g><!--link Driver to UC_OVERRIDE_FUEL--><g class="link" data-entity-1="Driver" data-entity-2="UC_OVERRIDE_FUEL" data-source-line="39" data-uid="lnk26" id="link_Driver_UC_OVERRIDE_FUEL"><path d="M92.38,398.5369 C109.54,393.0469 132.34,386.2069 152.89,381.5569 C243.2,361.1069 341.9115,346.2515 415.3015,336.5715" fill="none" id="Driver-to-UC_OVERRIDE_FUEL" style="stroke:#181818;stroke-width:1;"/><polygon fill="#181818" points="421.25,335.7869,411.8042,332.9981,416.2929,336.4407,412.8503,340.9294,421.25,335.7869" style="stroke:#181818;stroke-width:1;"/></g><!--link Driver to UC_RECEIPT--><g class="link" data-entity-1="Driver" data-entity-2="UC_RECEIPT" data-source-line="40" data-uid="lnk27" id="link_Driver_UC_RECEIPT"><path d="M65.73,446.6269 C68.16,515.2569 82.05,658.9169 152.89,751.5569 C221.19,840.8769 345.0915,878.6658 429.1415,895.0958" fill="none" id="Driver-to-UC_RECEIPT" style="stroke:#181818;stroke-width:1;"/><polygon fill="#181818" points="435.03,896.2469,426.9646,890.5945,430.1229,895.2876,425.4298,898.4459,435.03,896.2469" style="stroke:#181818;stroke-width:1;"/></g><!--link Driver to UC_ALT_STATION--><g class="link" data-entity-1="Driver" data-entity-2="UC_ALT_STATION" data-source-line="41" data-uid="lnk28" id="link_Driver_UC_ALT_STATION"><path d="M71.32,368.5169 C80.31,324.1669 102.13,253.7869 152.89,221.5569 C373.14,81.7269 549.4,43.2969 739.89,221.5569 C813.39,290.3369 710.18,592.5069 769.89,673.5569 C777.78,684.2669 783.4045,689.5815 795.4045,695.5315" fill="none" id="Driver-to-UC_ALT_STATION" style="stroke:#181818;stroke-width:1;"/><polygon fill="#181818" points="800.78,698.1969,794.4937,690.6152,796.3004,695.9758,790.9399,697.7825,800.78,698.1969" style="stroke:#181818;stroke-width:1;"/></g><!--link Driver to UC_FEEDBACK--><g class="link" data-entity-1="Driver" data-entity-2="UC_FEEDBACK" data-source-line="42" data-uid="lnk29" id="link_Driver_UC_FEEDBACK"><path d="M92.18,407.5569 C151.93,407.5569 293.14,407.5569 396.86,407.5569" fill="none" id="Driver-to-UC_FEEDBACK" style="stroke:#181818;stroke-width:1;"/><polygon fill="#181818" points="402.86,407.5569,393.86,403.5569,397.86,407.5569,393.86,411.5569,402.86,407.5569" style="stroke:#181818;stroke-width:1;"/></g><!--link Driver to UC_VIEW_CARBON--><g class="link" data-entity-1="Driver" data-entity-2="UC_VIEW_CARBON" data-source-line="43" data-uid="lnk30" id="link_Driver_UC_VIEW_CARBON"><path d="M68.47,446.5469 C74.75,497.9869 94,587.0969 152.89,630.5569 C191.94,659.3769 309.1808,663.3723 400.9708,661.9123" fill="none" id="Driver-to-UC_VIEW_CARBON" style="stroke:#181818;stroke-width:1;"/><polygon fill="#181818" points="406.97,661.8169,397.9075,657.9605,401.9706,661.8964,398.0348,665.9595,406.97,661.8169" style="stroke:#181818;stroke-width:1;"/></g><!--link AVU to UC_APPROACH--><g class="link" data-entity-1="AVU" data-entity-2="UC_APPROACH" data-source-line="46" data-uid="lnk31" id="link_AVU_UC_APPROACH"><path d="M64.81,974.6369 C63.74,1096.3469 67.7,1464.8369 152.89,1538.5569 C350.16,1709.2869 538.75,1704.7069 739.89,1538.5569 C851.52,1446.3369 874.357,957.6134 878.207,843.8734" fill="none" id="AVU-to-UC_APPROACH" style="stroke:#181818;stroke-width:1;"/><polygon fill="#181818" points="878.41,837.8769,874.1078,846.7364,878.2409,842.874,882.1032,847.007,878.41,837.8769" style="stroke:#181818;stroke-width:1;"/></g><!--link AVU to UC_FUEL--><g class="link" data-entity-1="AVU" data-entity-2="UC_FUEL" data-source-line="47" data-uid="lnk32" id="link_AVU_UC_FUEL"><path d="M118.5,902.2469 C176.43,867.0969 272.85,812.0969 361.89,777.5569 C387.24,767.7269 410.0892,761.0618 435.6792,754.8518" fill="none" id="AVU-to-UC_FUEL" style="stroke:#181818;stroke-width:1;"/><polygon fill="#181818" points="441.51,753.4369,431.8205,751.6722,436.651,754.616,433.7072,759.4465,441.51,753.4369" style="stroke:#181818;stroke-width:1;"/></g><!--link AVU to UC_RECEIPT--><g class="link" data-entity-1="AVU" data-entity-2="UC_RECEIPT" data-source-line="48" data-uid="lnk33" id="link_AVU_UC_RECEIPT"><path d="M118.26,932.2669 C193.48,927.5669 326.4816,919.2804 418.1916,913.5604" fill="none" id="AVU-to-UC_RECEIPT" style="stroke:#181818;stroke-width:1;"/><polygon fill="#181818" points="424.18,913.1869,414.9485,909.7549,419.1897,913.4981,415.4465,917.7394,424.18,913.1869" style="stroke:#181818;stroke-width:1;"/></g><!--link AVU to UC_ALT_STATION--><g class="link" data-entity-1="AVU" data-entity-2="UC_ALT_STATION" data-source-line="49" data-uid="lnk34" id="link_AVU_UC_ALT_STATION"><path d="M69.14,974.4569 C78.69,1068.0269 106.7,1302.5169 152.89,1364.5569 C286.81,1544.4369 472.99,1620.5869 644.89,1476.5569 C888.13,1272.7469 583.11,1030.1169 769.89,773.5569 C781.83,757.1569 794.4485,747.6102 812.4185,738.7502" fill="none" id="AVU-to-UC_ALT_STATION" style="stroke:#181818;stroke-width:1;"/><polygon fill="#181818" points="817.8,736.0969,807.959,736.4892,813.3155,738.308,811.4967,743.6644,817.8,736.0969" style="stroke:#181818;stroke-width:1;"/></g><!--link AVU to UC_VIEW_CARBON--><g class="link" data-entity-1="AVU" data-entity-2="UC_VIEW_CARBON" data-source-line="50" data-uid="lnk35" id="link_AVU_UC_VIEW_CARBON"><path d="M109.34,896.6769 C114.26,891.2169 118.93,885.4569 122.89,879.5569 C142.68,850.0969 128.92,831.7269 152.89,805.5569 C224.45,727.4069 337.4552,690.7834 419.2352,673.1234" fill="none" id="AVU-to-UC_VIEW_CARBON" style="stroke:#181818;stroke-width:1;"/><polygon fill="#181818" points="425.1,671.8569,415.4585,669.8467,420.2127,672.9123,417.1471,677.6665,425.1,671.8569" style="stroke:#181818;stroke-width:1;"/></g><!--reverse link UC_PAY to PG_Ext--><g class="link" data-entity-1="UC_PAY" data-entity-2="PG_Ext" data-source-line="53" data-uid="lnk36" id="link_UC_PAY_PG_Ext"><path d="M992.7,632.5569 C1015.3,632.5569 1032.5,632.5569 1052.92,632.5569" fill="none" id="UC_PAY-backto-PG_Ext" style="stroke:#181818;stroke-width:1;"/><polygon fill="#181818" points="986.7,632.5569,995.7,636.5569,991.7,632.5569,995.7,628.5569,986.7,632.5569" style="stroke:#181818;stroke-width:1;"/></g><!--reverse link UC_FUEL to UC_PAY--><g class="link" data-entity-1="UC_FUEL" data-entity-2="UC_PAY" data-source-line="56" data-uid="lnk37" id="link_UC_FUEL_UC_PAY"><path d="M582.4491,719.2539 C648.1191,700.0639 747,671.1569 814.36,651.4769" fill="none" id="UC_FUEL-backto-UC_PAY" style="stroke:#181818;stroke-width:1;stroke-dasharray:7.0,7.0;"/><polygon fill="#181818" points="576.69,720.9369,586.4507,722.2519,581.4893,719.5344,584.2068,714.5731,576.69,720.9369" style="stroke:#181818;stroke-width:1;"/><text fill="#000000" font-family="sans-serif" font-size="13" lengthAdjust="spacing" textLength="63.0068" x="675.89" y="672.6238">&#171;include&#187;</text></g><!--reverse link UC_FUEL to UC_APPROACH--><g class="link" data-entity-1="UC_FUEL" data-entity-2="UC_APPROACH" data-source-line="57" data-uid="lnk38" id="link_UC_FUEL_UC_APPROACH"><path d="M594.3524,754.8975 C656.5324,767.9275 740.17,785.4469 803.39,798.6969" fill="none" id="UC_FUEL-backto-UC_APPROACH" style="stroke:#181818;stroke-width:1;stroke-dasharray:7.0,7.0;"/><polygon fill="#181818" points="588.48,753.6669,596.4683,759.4277,593.3737,754.6924,598.1091,751.5978,588.48,753.6669" style="stroke:#181818;stroke-width:1;"/><text fill="#000000" font-family="sans-serif" font-size="13" lengthAdjust="spacing" textLength="63.0068" x="675.89" y="768.6238">&#171;include&#187;</text></g><!--link UC_OVERRIDE_FUEL to UC_FUEL--><g class="link" data-entity-1="UC_OVERRIDE_FUEL" data-entity-2="UC_FUEL" data-source-line="58" data-uid="lnk39" id="link_UC_OVERRIDE_FUEL_UC_FUEL"><path d="M419.92,335.3169 C398.88,341.4669 378.07,350.9569 361.89,365.5569 C235.57,479.5169 259.22,603.4369 269.55,625.0569 C298.45,685.4969 365.4855,712.5034 424.4555,725.7334" fill="none" id="UC_OVERRIDE_FUEL-to-UC_FUEL" style="stroke:#181818;stroke-width:1;stroke-dasharray:7.0,7.0;"/><polygon fill="#181818" points="430.31,727.0469,422.4039,721.1737,425.4313,725.9523,420.6527,728.9797,430.31,727.0469" style="stroke:#181818;stroke-width:1;"/><text fill="#000000" font-family="sans-serif" font-size="13" lengthAdjust="spacing" textLength="61.1851" x="222.89" y="621.1238">&#171;extend&#187;</text></g><!--link UC_ALT_STATION to UC_APPROACH--><g class="link" data-entity-1="UC_ALT_STATION" data-entity-2="UC_APPROACH" data-source-line="59" data-uid="lnk40" id="link_UC_ALT_STATION_UC_APPROACH"><path d="M880.09,740.2269 C880.09,755.7969 880.09,769.7669 880.09,785.0969" fill="none" id="UC_ALT_STATION-to-UC_APPROACH" style="stroke:#181818;stroke-width:1;stroke-dasharray:7.0,7.0;"/><polygon fill="#181818" points="880.09,791.0969,884.09,782.0969,880.09,786.0969,876.09,782.0969,880.09,791.0969" style="stroke:#181818;stroke-width:1;"/><text fill="#000000" font-family="sans-serif" font-size="13" lengthAdjust="spacing" textLength="61.1851" x="838.09" y="770.2938">&#171;extend&#187;</text></g><!--link SO_Int to UC_STATION_SAFETY--><g class="link" data-entity-1="SO_Int" data-entity-2="UC_STATION_SAFETY" data-source-line="62" data-uid="lnk41" id="link_SO_Int_UC_STATION_SAFETY"><path d="M111.97,862.3969 C116.26,867.7569 120.05,873.5069 122.89,879.5569 C158.85,956.2469 90.68,1202.0669 152.89,1259.5569 C218.49,1320.1869 288.9,1320.8569 353.89,1259.5569 C376.07,1238.6269 342.78,1146.3269 361.89,1122.5569 C374.3,1107.1169 386.133,1098.9663 404.863,1092.3463" fill="none" id="SO_Int-to-UC_STATION_SAFETY" style="stroke:#181818;stroke-width:1;"/><polygon fill="#181818" points="410.52,1090.3469,400.7015,1089.5747,405.8058,1092.0131,403.3674,1097.1174,410.52,1090.3469" style="stroke:#181818;stroke-width:1;"/></g><!--link SO_Int to UC_HANDLE_EXC--><g class="link" data-entity-1="SO_Int" data-entity-2="UC_HANDLE_EXC" data-source-line="63" data-uid="lnk42" id="link_SO_Int_UC_HANDLE_EXC"><path d="M112.02,862.3769 C116.3,867.7269 120.08,873.4869 122.89,879.5569 C143.07,923.1169 117.78,1277.8169 152.89,1310.5569 C218.21,1371.4969 287.89,1370.7669 353.89,1310.5569 C368.23,1297.4769 350.19,1239.0469 361.89,1223.5569 C378.05,1202.1469 397.3902,1190.4698 422.5202,1181.7698" fill="none" id="SO_Int-to-UC_HANDLE_EXC" style="stroke:#181818;stroke-width:1;"/><polygon fill="#181818" points="428.19,1179.8069,418.3766,1178.9713,423.4651,1181.4426,420.9938,1186.5311,428.19,1179.8069" style="stroke:#181818;stroke-width:1;"/></g><!--link UC_ALERT_LEAK to UC_HANDLE_EXC--><g class="link" data-entity-1="UC_ALERT_LEAK" data-entity-2="UC_HANDLE_EXC" data-source-line="64" data-uid="lnk43" id="link_UC_ALERT_LEAK_UC_HANDLE_EXC"><path d="M515.39,1240.6069 C515.39,1225.1169 515.39,1211.0069 515.39,1195.3569" fill="none" id="UC_ALERT_LEAK-to-UC_HANDLE_EXC" style="stroke:#181818;stroke-width:1;stroke-dasharray:7.0,7.0;"/><polygon fill="#181818" points="515.39,1189.3569,511.39,1198.3569,515.39,1194.3569,519.39,1198.3569,515.39,1189.3569" style="stroke:#181818;stroke-width:1;"/><text fill="#000000" font-family="sans-serif" font-size="13" lengthAdjust="spacing" textLength="300.4219" x="353.89" y="1219.5938">&#171;extend&#187; ' This should be fine as it's UC to UC</text></g><!--link UC_ALERT_ARM to UC_HANDLE_EXC--><g class="link" data-entity-1="UC_ALERT_ARM" data-entity-2="UC_HANDLE_EXC" data-source-line="65" data-uid="lnk44" id="link_UC_ALERT_ARM_UC_HANDLE_EXC"><path d="M427.72,1418.4369 C405.3,1412.0869 381.9,1403.3869 361.89,1391.5569 C268.99,1336.6069 129.91,1291.6469 200.55,1210.0569 C255.14,1147.0169 348.8971,1141.9377 421.5171,1148.8577" fill="none" id="UC_ALERT_ARM-to-UC_HANDLE_EXC" style="stroke:#181818;stroke-width:1;stroke-dasharray:7.0,7.0;"/><polygon fill="#181818" points="427.49,1149.4269,418.91,1144.5912,422.5125,1148.9526,418.1511,1152.5551,427.49,1149.4269" style="stroke:#181818;stroke-width:1;"/><text fill="#000000" font-family="sans-serif" font-size="13" lengthAdjust="spacing" textLength="199.8623" x="153.89" y="1223.1238">&#171;extend&#187;  ' This should be fine</text></g><!--link UC_ALERT_EDGE to UC_HANDLE_EXC--><g class="link" data-entity-1="UC_ALERT_EDGE" data-entity-2="UC_HANDLE_EXC" data-source-line="66" data-uid="lnk45" id="link_UC_ALERT_EDGE_UC_HANDLE_EXC"><path d="M419.18,1333.9969 C302.52,1312.5469 129.95,1266.3169 202.55,1188.0569 C262.47,1123.4769 365.6757,1129.9441 437.8757,1144.3341" fill="none" id="UC_ALERT_EDGE-to-UC_HANDLE_EXC" style="stroke:#181818;stroke-width:1;stroke-dasharray:7.0,7.0;"/><polygon fill="#181818" points="443.76,1145.5069,435.7155,1139.8249,438.8564,1144.5296,434.1517,1147.6706,443.76,1145.5069" style="stroke:#181818;stroke-width:1;"/><text fill="#000000" font-family="sans-serif" font-size="13" lengthAdjust="spacing" textLength="195.73" x="155.89" y="1201.1238">&#171;extend&#187; ' This should be fine</text></g><!--link SO_Int to UC_MANUAL_OVERRIDE--><g class="link" data-entity-1="SO_Int" data-entity-2="UC_MANUAL_OVERRIDE" data-source-line="67" data-uid="lnk46" id="link_SO_Int_UC_MANUAL_OVERRIDE"><path d="M66.07,784.5869 C69.29,725.1369 84.65,612.4969 152.89,553.5569 C222.25,493.6469 321.9606,481.7513 401.1806,482.8813" fill="none" id="SO_Int-to-UC_MANUAL_OVERRIDE" style="stroke:#181818;stroke-width:1;"/><polygon fill="#181818" points="407.18,482.9669,398.238,478.8389,402.1805,482.8956,398.1239,486.8381,407.18,482.9669" style="stroke:#181818;stroke-width:1;"/></g><!--link SO_Int to UC_ESTOP--><g class="link" data-entity-1="SO_Int" data-entity-2="UC_ESTOP" data-source-line="68" data-uid="lnk47" id="link_SO_Int_UC_ESTOP"><path d="M68.93,784.6269 C75.7,734.2569 95.48,647.9469 152.89,605.5569 C235.59,544.4869 353.8808,548.2546 433.0408,559.6146" fill="none" id="SO_Int-to-UC_ESTOP" style="stroke:#181818;stroke-width:1;"/><polygon fill="#181818" points="438.98,560.4669,430.6395,555.229,434.0307,559.7566,429.5031,563.1478,438.98,560.4669" style="stroke:#181818;stroke-width:1;"/></g><!--link SO_Int to UC_REENABLE--><g class="link" data-entity-1="SO_Int" data-entity-2="UC_REENABLE" data-source-line="69" data-uid="lnk48" id="link_SO_Int_UC_REENABLE"><path d="M111.92,862.4169 C116.22,867.7669 120.03,873.5169 122.89,879.5569 C156.18,949.9169 95.54,1175.9269 152.89,1228.5569 C185.8,1258.7569 321.65,1259.4769 353.89,1228.5569 C369.3,1213.7769 348.75,1053.3869 361.89,1036.5569 C373.1,1022.1969 383.098,1014.4973 400.028,1007.6473" fill="none" id="SO_Int-to-UC_REENABLE" style="stroke:#181818;stroke-width:1;"/><polygon fill="#181818" points="405.59,1005.3969,395.7468,1005.0645,400.955,1007.2722,398.7473,1012.4805,405.59,1005.3969" style="stroke:#181818;stroke-width:1;"/></g><!--link SO_Int to UC_LOCAL_OPS--><g class="link" data-entity-1="SO_Int" data-entity-2="UC_LOCAL_OPS" data-source-line="70" data-uid="lnk49" id="link_SO_Int_UC_LOCAL_OPS"><path d="M123.22,823.5569 C189.17,823.5569 293.11,823.5569 379.67,823.5569" fill="none" id="SO_Int-to-UC_LOCAL_OPS" style="stroke:#181818;stroke-width:1;"/><polygon fill="#181818" points="385.67,823.5569,376.67,819.5569,380.67,823.5569,376.67,827.5569,385.67,823.5569" style="stroke:#181818;stroke-width:1;"/></g><!--SRC=[dLLDRwD84BtpAqe-vEFWZBJ7KHIfWpk9DOv1O7jdJrORohXbJBFTJJBHQlxx5c08pNYqqlg4g-jLl_fwRQND4UAJqFQfmXpY3sFnz1NyobXrGWrN45jXfIeWA54tNmPkPcY5p36zzRmSznQi0YspWuLKQang9yySPL4ABKuW4gjqR3_e8l6EXi8E3akH74M6xN6D5KMMe-TT0_zXKHSY1rRZZTU4WPcMRwZFVoPi0xugh5Ovh0jf9o0CiCswEmx5nmaB2y_2uhluQ8x3vor5hY-O5vSkcBZvAjsWuc1BxfxNCuJ9XH8r4KMJlvd0FnxGhpAO24F-h2or4icXzxxP_F4TvhFRveArlsLX60NCVt5XSyfB4d-e-oEBx8j_43gZZmxsjEOB5n9ZJZI_15GeBTCM2SzQfDXXWWsFelcCNm2_YYCsHQKySZHKiBQ87JHaVxc021Eadi1CPj9IDPl_PUyVSP_FmvMBsKXy1vRRkxuOSPLbQEhFlXoBrJPUiTKyMBhWKAkt9Yt4T4VZ0pKSzPjC-loUE9yzCl_RXLjzeNVdLXL6sW-84wLxu6RE_zpwB7gaIrrmNKs3-4bOx97GLpGdfaEVwMvZziHNepAzY2AbiU4_4YpRBRgY2WXzwj4lR3bRy2t_xeyBR4fLfFMIDPrSe3WI5BNzB1MFLji5Pzz-YsJw12kb_wxm4fH5hxz5yZH3M2egUB3VqmIY2-MpPpxg3-gzekjUHL7HFFHZUCEYVjPVsNBD5lqSZZQ5DkYj7dbEwvLXaL2Jh2exB8zNGJYcEyL2xF9w2ar9ZQLUGQYCdV8XCk9yoHuNV3pn1IaGB5HIior9tlnSLIa4bILxJtaH-3NZCFP-rkhH2f6pyjxPDfq-EFlicfkLSqtkEhfdtVwCOW-MOnI-6ttNx0psDOo4qqs35FIN70QsXkJWVyTm21lG6vX794Ro33GrlMrDdV6fFLuhEN0_dGwaEyAyVOeEalhrBkr15c0FmnVaJ1Jkx-xWfWro2r_X_buMILwb-F3mYqkNx0K_fqDmrzUXyKHwgOgqTHnaVdRhehgkbCJueN6Q05D8SK_RbeBOa_apCzZbAZbwxOlKLNQaFExXG5WSiJWJ_3nsAC8rh0xIW3ceAazXXr3JgPT1skjw8sfnM0z2aeZyHyJB8Jr7I_uFgL6-Ot5nJrlvS6szCBZcVkN_1G00]--></g></svg>