<svg xmlns="http://www.w3.org/2000/svg" xmlns:xlink="http://www.w3.org/1999/xlink" contentStyleType="text/css" data-diagram-type="DESCRIPTION" height="2602px" preserveAspectRatio="none" style="width:1587px;height:2602px;background:#FFFFFF;" version="1.1" viewBox="0 0 1587 2602" width="1587px" zoomAndPan="magnify"><title>SmartFuel System: Backend &amp; Management Operations (Detailed)</title><defs/><g><g class="title" data-source-line="1"><text fill="#000000" font-family="sans-serif" font-size="14" font-weight="bold" lengthAdjust="spacing" textLength="523.5166" x="524.8106" y="22.9951">SmartFuel System: Backend &amp; Management Operations (Detailed)</text></g><!--cluster Backend Operations & Management--><g class="cluster" data-entity="Backend Operations &amp; Management" data-source-line="17" data-uid="ent0008" id="cluster_Backend Operations &amp; Management"><rect fill="none" height="2246" rx="2.5" ry="2.5" style="stroke:#181818;stroke-width:1;" width="900.15" x="223.15" y="44.2969"/><text fill="#000000" font-family="sans-serif" font-size="14" font-weight="bold" lengthAdjust="spacing" textLength="284.2725" x="531.0888" y="59.292">Backend Operations &amp; Management</text></g><!--entity UC_KPI--><g class="entity" data-entity="UC_KPI" data-source-line="19" data-uid="ent0009" id="entity_UC_KPI"><ellipse cx="388.6247" cy="710.2958" fill="#F1F1F1" rx="79.9447" ry="18.3889" style="stroke:#181818;stroke-width:0.5;"/><text fill="#000000" font-family="sans-serif" font-size="14" lengthAdjust="spacing" textLength="130.5459" x="323.3517" y="714.9442">Define/Modify KPIs</text></g><!--entity UC_DASHBOARD--><g class="entity" data-entity="UC_DASHBOARD" data-source-line="20" data-uid="ent0010" id="entity_UC_DASHBOARD"><ellipse cx="388.6225" cy="789.2954" fill="#F1F1F1" rx="118.1425" ry="26.0285" style="stroke:#181818;stroke-width:0.5;"/><text fill="#000000" font-family="sans-serif" font-size="14" lengthAdjust="spacing" textLength="215.3867" x="280.9291" y="793.9438">View Performance Dashboards</text></g><!--entity UC_MINE_DATA--><g class="entity" data-entity="UC_MINE_DATA" data-source-line="21" data-uid="ent0011" id="entity_UC_MINE_DATA"><ellipse cx="388.6233" cy="871.2975" fill="#F1F1F1" rx="91.8533" ry="20.7707" style="stroke:#181818;stroke-width:0.5;"/><text fill="#000000" font-family="sans-serif" font-size="14" lengthAdjust="spacing" textLength="157.9238" x="309.6614" y="875.946">Mine Operational Data</text></g><!--entity UC_FORECAST--><g class="entity" data-entity="UC_FORECAST" data-source-line="22" data-uid="ent0012" id="entity_UC_FORECAST"><ellipse cx="388.623" cy="945.2935" fill="#F1F1F1" rx="77.133" ry="17.8266" style="stroke:#181818;stroke-width:0.5;"/><text fill="#000000" font-family="sans-serif" font-size="14" lengthAdjust="spacing" textLength="123.8672" x="326.6894" y="949.9419">Forecast Demand</text></g><!--entity UC_DYNAMIC_PRICE--><g class="entity" data-entity="UC_DYNAMIC_PRICE" data-source-line="23" data-uid="ent0013" id="entity_UC_DYNAMIC_PRICE"><ellipse cx="388.6246" cy="1117.2978" fill="#F1F1F1" rx="84.4546" ry="19.2909" style="stroke:#181818;stroke-width:0.5;"/><text fill="#000000" font-family="sans-serif" font-size="14" lengthAdjust="spacing" textLength="141.0664" x="318.0914" y="1121.9462">Set Dynamic Pricing</text></g><!--entity UC_INV_ALERT--><g class="entity" data-entity="UC_INV_ALERT" data-source-line="24" data-uid="ent0014" id="entity_UC_INV_ALERT"><ellipse cx="388.625" cy="1290.2939" fill="#F1F1F1" rx="98.085" ry="22.017" style="stroke:#181818;stroke-width:0.5;"/><text fill="#000000" font-family="sans-serif" font-size="14" lengthAdjust="spacing" textLength="171.8281" x="302.7109" y="1294.9423">Receive Inventory Alerts</text></g><!--entity UC_EXPORT_ML--><g class="entity" data-entity="UC_EXPORT_ML" data-source-line="25" data-uid="ent0015" id="entity_UC_EXPORT_ML"><ellipse cx="388.6162" cy="1374.2941" fill="#F1F1F1" rx="121.5862" ry="26.7172" style="stroke:#181818;stroke-width:0.5;"/><text fill="#000000" font-family="sans-serif" font-size="14" lengthAdjust="spacing" textLength="222.7354" x="277.2485" y="1378.9426">Export Anonymized Data for ML</text></g><!--entity UC_MONITOR_EVENTS--><g class="entity" data-entity="UC_MONITOR_EVENTS" data-source-line="26" data-uid="ent0016" id="entity_UC_MONITOR_EVENTS"><ellipse cx="388.6247" cy="1462.3018" fill="#F1F1F1" rx="121.6247" ry="26.7249" style="stroke:#181818;stroke-width:0.5;"/><text fill="#000000" font-family="sans-serif" font-size="14" lengthAdjust="spacing" textLength="222.8174" x="277.216" y="1466.9503">Monitor Station Events (OCPPN)</text></g><!--entity UC_REVIEW_SAFETY_FLAGS--><g class="entity" data-entity="UC_REVIEW_SAFETY_FLAGS" data-source-line="27" data-uid="ent0017" id="entity_UC_REVIEW_SAFETY_FLAGS"><ellipse cx="388.6154" cy="1548.296" fill="#F1F1F1" rx="111.8454" ry="24.7691" style="stroke:#181818;stroke-width:0.5;"/><text fill="#000000" font-family="sans-serif" font-size="14" lengthAdjust="spacing" textLength="201.8652" x="287.6828" y="1552.9444">Review Safety Incident Flags</text></g><!--entity UC_ANALYZE_FEEDBACK--><g class="entity" data-entity="UC_ANALYZE_FEEDBACK" data-source-line="28" data-uid="ent0018" id="entity_UC_ANALYZE_FEEDBACK"><ellipse cx="388.6164" cy="1636.3002" fill="#F1F1F1" rx="129.2664" ry="28.2533" style="stroke:#181818;stroke-width:0.5;"/><text fill="#000000" font-family="sans-serif" font-size="14" lengthAdjust="spacing" textLength="239.0254" x="269.1037" y="1640.9486">Analyze Processed User Feedback</text></g><!--entity UC_RESPOND_FAULT--><g class="entity" data-entity="UC_RESPOND_FAULT" data-source-line="31" data-uid="ent0019" id="entity_UC_RESPOND_FAULT"><ellipse cx="388.6227" cy="2165.2994" fill="#F1F1F1" rx="113.9627" ry="25.1925" style="stroke:#181818;stroke-width:0.5;"/><text fill="#000000" font-family="sans-serif" font-size="14" lengthAdjust="spacing" textLength="206.4248" x="285.4103" y="2169.9479">Respond to Equipment Faults</text></g><!--entity UC_SCHEDULE_REFILL--><g class="entity" data-entity="UC_SCHEDULE_REFILL" data-source-line="32" data-uid="ent0020" id="entity_UC_SCHEDULE_REFILL"><ellipse cx="388.6211" cy="2250.2951" fill="#F1F1F1" rx="109.7411" ry="24.3482" style="stroke:#181818;stroke-width:0.5;"/><text fill="#000000" font-family="sans-serif" font-size="14" lengthAdjust="spacing" textLength="197.3193" x="289.9614" y="2254.9435">Schedule Fuel/Supply Refills</text></g><!--entity UC_VIEW_MTTR--><g class="entity" data-entity="UC_VIEW_MTTR" data-source-line="33" data-uid="ent0021" id="entity_UC_VIEW_MTTR"><ellipse cx="388.6236" cy="1820.3016" fill="#F1F1F1" rx="131.5236" ry="28.7047" style="stroke:#181818;stroke-width:0.5;"/><text fill="#000000" font-family="sans-serif" font-size="14" lengthAdjust="spacing" textLength="243.79" x="266.7286" y="1824.95">View MTTR Targets &amp; Performance</text></g><!--entity UC_SCAN_PARTS--><g class="entity" data-entity="UC_SCAN_PARTS" data-source-line="34" data-uid="ent0022" id="entity_UC_SCAN_PARTS"><ellipse cx="388.6235" cy="1908.3016" fill="#F1F1F1" rx="107.4235" ry="23.8847" style="stroke:#181818;stroke-width:0.5;"/><text fill="#000000" font-family="sans-serif" font-size="14" lengthAdjust="spacing" textLength="192.2949" x="292.476" y="1912.95">Scan Spare Parts (Barcode)</text></g><!--entity UC_DIGITAL_TWIN--><g class="entity" data-entity="UC_DIGITAL_TWIN" data-source-line="35" data-uid="ent0023" id="entity_UC_DIGITAL_TWIN"><ellipse cx="388.6243" cy="1991.2997" fill="#F1F1F1" rx="108.2643" ry="24.0529" style="stroke:#181818;stroke-width:0.5;"/><text fill="#000000" font-family="sans-serif" font-size="14" lengthAdjust="spacing" textLength="194.1201" x="291.5643" y="1995.9482">Use Digital Twin for Repairs</text></g><!--entity UC_PREVENT_MAINT--><g class="entity" data-entity="UC_PREVENT_MAINT" data-source-line="36" data-uid="ent0024" id="entity_UC_PREVENT_MAINT"><ellipse cx="388.6243" cy="2077.3017" fill="#F1F1F1" rx="124.8243" ry="27.3649" style="stroke:#181818;stroke-width:0.5;"/><text fill="#000000" font-family="sans-serif" font-size="14" lengthAdjust="spacing" textLength="229.6191" x="273.8147" y="2081.9502">Perform Preventive Maintenance</text></g><!--entity UC_SCHEDULE_DRONE_AUTO--><g class="entity" data-entity="UC_SCHEDULE_DRONE_AUTO" data-source-line="39" data-uid="ent0025" id="entity_UC_SCHEDULE_DRONE_AUTO"><ellipse cx="951.7008" cy="1030.297" fill="#F1F1F1" rx="155.6008" ry="33.5202" style="stroke:#181818;stroke-width:0.5;"/><text fill="#000000" font-family="sans-serif" font-size="14" lengthAdjust="spacing" textLength="294.123" x="804.6393" y="1034.9455">Automate Drone Fuel Delivery Scheduling</text></g><!--entity UC_OPERATE_DRONE_MANUAL--><g class="entity" data-entity="UC_OPERATE_DRONE_MANUAL" data-source-line="40" data-uid="ent0026" id="entity_UC_OPERATE_DRONE_MANUAL"><ellipse cx="388.6156" cy="1202.292" fill="#F1F1F1" rx="143.0256" ry="31.0051" style="stroke:#181818;stroke-width:0.5;"/><text fill="#000000" font-family="sans-serif" font-size="14" lengthAdjust="spacing" textLength="267.9346" x="254.6483" y="1206.9404">Manually Operate Fuel Delivery Drone</text></g><!--entity UC_ADHERE_NOFLY--><g class="entity" data-entity="UC_ADHERE_NOFLY" data-source-line="41" data-uid="ent0027" id="entity_UC_ADHERE_NOFLY"><ellipse cx="388.6193" cy="630.2927" fill="#F1F1F1" rx="118.9293" ry="26.1859" style="stroke:#181818;stroke-width:0.5;"/><text fill="#000000" font-family="sans-serif" font-size="14" lengthAdjust="spacing" textLength="217.0684" x="280.0851" y="634.9412">Ensure No-Fly Zone Adherence</text></g><!--entity UC_MONITOR_DRONE_ALG--><g class="entity" data-entity="UC_MONITOR_DRONE_ALG" data-source-line="42" data-uid="ent0028" id="entity_UC_MONITOR_DRONE_ALG"><ellipse cx="388.6238" cy="1728.2976" fill="#F1F1F1" rx="129.3538" ry="28.2708" style="stroke:#181818;stroke-width:0.5;"/><text fill="#000000" font-family="sans-serif" font-size="14" lengthAdjust="spacing" textLength="239.21" x="269.0188" y="1732.9461">Monitor Drone Dispatch Algorithm</text></g><!--entity UC_AUTO_REORDER--><g class="entity" data-entity="UC_AUTO_REORDER" data-source-line="45" data-uid="ent0029" id="entity_UC_AUTO_REORDER"><ellipse cx="388.6242" cy="1030.3017" fill="#F1F1F1" rx="149.4742" ry="32.2948" style="stroke:#181818;stroke-width:0.5;"/><text fill="#000000" font-family="sans-serif" font-size="14" lengthAdjust="spacing" textLength="281.3877" x="247.9303" y="1034.9501">Automate Underground Fuel Reordering</text></g><!--entity UC_MANAGE_SMART_ROAD--><g class="entity" data-entity="UC_MANAGE_SMART_ROAD" data-source-line="46" data-uid="ent0030" id="entity_UC_MANAGE_SMART_ROAD"><ellipse cx="388.6189" cy="101.2947" fill="#F1F1F1" rx="99.1889" ry="22.2378" style="stroke:#181818;stroke-width:0.5;"/><text fill="#000000" font-family="sans-serif" font-size="14" lengthAdjust="spacing" textLength="174.2686" x="301.4846" y="105.9431">Manage Smart Road Ops</text></g><!--entity UC_MANAGE_DATA_SECURITY--><g class="entity" data-entity="UC_MANAGE_DATA_SECURITY" data-source-line="47" data-uid="ent0031" id="entity_UC_MANAGE_DATA_SECURITY"><ellipse cx="388.6242" cy="185.3017" fill="#F1F1F1" rx="121.7242" ry="26.7448" style="stroke:#181818;stroke-width:0.5;"/><text fill="#000000" font-family="sans-serif" font-size="14" lengthAdjust="spacing" textLength="223.0293" x="277.1096" y="189.9502">Centrally Manage Data Security</text></g><!--entity UC_MANAGE_ENERGY_MIX--><g class="entity" data-entity="UC_MANAGE_ENERGY_MIX" data-source-line="48" data-uid="ent0032" id="entity_UC_MANAGE_ENERGY_MIX"><ellipse cx="388.6164" cy="277.2962" fill="#F1F1F1" rx="141.1464" ry="30.6293" style="stroke:#181818;stroke-width:0.5;"/><text fill="#000000" font-family="sans-serif" font-size="14" lengthAdjust="spacing" textLength="264.0039" x="256.6145" y="281.9446">Manage Energy Source Mix Reporting</text></g><!--entity UC_OVERSEE_CARBON_SCORES--><g class="entity" data-entity="UC_OVERSEE_CARBON_SCORES" data-source-line="49" data-uid="ent0033" id="entity_UC_OVERSEE_CARBON_SCORES"><ellipse cx="388.6188" cy="370.2986" fill="#F1F1F1" rx="126.5588" ry="27.7118" style="stroke:#181818;stroke-width:0.5;"/><text fill="#000000" font-family="sans-serif" font-size="14" lengthAdjust="spacing" textLength="233.2969" x="271.9704" y="374.9471">Oversee Carbon Score Publishing</text></g><!--entity UC_MANAGE_VAPOR_RECOVERY--><g class="entity" data-entity="UC_MANAGE_VAPOR_RECOVERY" data-source-line="50" data-uid="ent0034" id="entity_UC_MANAGE_VAPOR_RECOVERY"><ellipse cx="388.6221" cy="458.2973" fill="#F1F1F1" rx="116.4021" ry="25.6804" style="stroke:#181818;stroke-width:0.5;"/><text fill="#000000" font-family="sans-serif" font-size="14" lengthAdjust="spacing" textLength="211.6611" x="282.7915" y="462.9457">Manage Vapor Recovery Units</text></g><!--entity UC_MANAGE_OPEN_DATA_FUEL--><g class="entity" data-entity="UC_MANAGE_OPEN_DATA_FUEL" data-source-line="51" data-uid="ent0035" id="entity_UC_MANAGE_OPEN_DATA_FUEL"><ellipse cx="388.6203" cy="544.2929" fill="#F1F1F1" rx="112.5303" ry="24.9061" style="stroke:#181818;stroke-width:0.5;"/><text fill="#000000" font-family="sans-serif" font-size="14" lengthAdjust="spacing" textLength="203.3418" x="286.9495" y="548.9414">Manage Open Data Provision</text></g><!--entity MTS_Ext--><g class="entity" data-entity="MTS_Ext" data-source-line="8" data-uid="ent0002" id="entity_MTS_Ext"><ellipse cx="951.6974" cy="2435.1469" fill="#F1F1F1" rx="16" ry="16" style="stroke:#181818;stroke-width:0.5;"/><path d="M951.6974,2455.1469 C955.6974,2455.1469 958.6974,2455.1469 962.6974,2451.1469 C970.6974,2451.1469 978.6974,2459.1469 978.6974,2467.1469 L978.6974,2471.1469 C978.6974,2475.1469 974.6974,2479.1469 970.6974,2479.1469 L932.6974,2479.1469 C928.6974,2479.1469 924.6974,2475.1469 924.6974,2471.1469 L924.6974,2467.1469 C924.6974,2459.1469 932.6974,2451.1469 940.6974,2451.1469 C944.6974,2455.1469 947.6974,2455.1469 951.6974,2455.1469" fill="#F1F1F1" style="stroke:#181818;stroke-width:0.5;"/><text fill="#000000" font-family="sans-serif" font-size="14" lengthAdjust="spacing" textLength="172.0947" x="865.65" y="2492.642">Municipal Traffic System</text></g><!--entity GACA_Ext--><g class="entity" data-entity="GACA_Ext" data-source-line="9" data-uid="ent0003" id="entity_GACA_Ext"><ellipse cx="1486.2189" cy="829.1469" fill="#F1F1F1" rx="16" ry="16" style="stroke:#181818;stroke-width:0.5;"/><path d="M1486.2189,849.1469 C1490.2189,849.1469 1493.2189,849.1469 1497.2189,845.1469 C1505.2189,845.1469 1513.2189,853.1469 1513.2189,861.1469 L1513.2189,865.1469 C1513.2189,869.1469 1509.2189,873.1469 1505.2189,873.1469 L1467.2189,873.1469 C1463.2189,873.1469 1459.2189,869.1469 1459.2189,865.1469 L1459.2189,861.1469 C1459.2189,853.1469 1467.2189,845.1469 1475.2189,845.1469 C1479.2189,849.1469 1482.2189,849.1469 1486.2189,849.1469" fill="#F1F1F1" style="stroke:#181818;stroke-width:0.5;"/><text fill="#000000" font-family="sans-serif" font-size="14" lengthAdjust="spacing" textLength="187.8379" x="1392.3" y="886.642">GACA / Drone Logistics API</text></g><!--entity FC_Ext--><g class="entity" data-entity="FC_Ext" data-source-line="10" data-uid="ent0004" id="entity_FC_Ext"><ellipse cx="951.6907" cy="2323.1469" fill="#F1F1F1" rx="16" ry="16" style="stroke:#181818;stroke-width:0.5;"/><path d="M951.6907,2343.1469 C955.6907,2343.1469 958.6907,2343.1469 962.6907,2339.1469 C970.6907,2339.1469 978.6907,2347.1469 978.6907,2355.1469 L978.6907,2359.1469 C978.6907,2363.1469 974.6907,2367.1469 970.6907,2367.1469 L932.6907,2367.1469 C928.6907,2367.1469 924.6907,2363.1469 924.6907,2359.1469 L924.6907,2355.1469 C924.6907,2347.1469 932.6907,2339.1469 940.6907,2339.1469 C944.6907,2343.1469 947.6907,2343.1469 951.6907,2343.1469" fill="#F1F1F1" style="stroke:#181818;stroke-width:0.5;"/><text fill="#000000" font-family="sans-serif" font-size="14" lengthAdjust="spacing" textLength="100.4814" x="901.45" y="2380.642">Fuel Company</text></g><!--entity FOA_Int--><g class="entity" data-entity="FOA_Int" data-source-line="13" data-uid="ent0005" id="entity_FOA_Int"><ellipse cx="91.0732" cy="849.1469" fill="#F1F1F1" rx="16" ry="16" style="stroke:#181818;stroke-width:0.5;"/><path d="M91.0732,869.1469 C95.0732,869.1469 98.0732,869.1469 102.0732,865.1469 C110.0732,865.1469 118.0732,873.1469 118.0732,881.1469 L118.0732,885.1469 C118.0732,889.1469 114.0732,893.1469 110.0732,893.1469 L72.0732,893.1469 C68.0732,893.1469 64.0732,889.1469 64.0732,885.1469 L64.0732,881.1469 C64.0732,873.1469 72.0732,865.1469 80.0732,865.1469 C84.0732,869.1469 87.0732,869.1469 91.0732,869.1469" fill="#F1F1F1" style="stroke:#181818;stroke-width:0.5;"/><text fill="#000000" font-family="sans-serif" font-size="14" lengthAdjust="spacing" textLength="113.0664" x="34.54" y="906.642">FuelOps Analyst</text></g><!--entity MT_Int--><g class="entity" data-entity="MT_Int" data-source-line="14" data-uid="ent0006" id="entity_MT_Int"><ellipse cx="91.0732" cy="2033.1469" fill="#F1F1F1" rx="16" ry="16" style="stroke:#181818;stroke-width:0.5;"/><path d="M91.0732,2053.1469 C95.0732,2053.1469 98.0732,2053.1469 102.0732,2049.1469 C110.0732,2049.1469 118.0732,2057.1469 118.0732,2065.1469 L118.0732,2069.1469 C118.0732,2073.1469 114.0732,2077.1469 110.0732,2077.1469 L72.0732,2077.1469 C68.0732,2077.1469 64.0732,2073.1469 64.0732,2069.1469 L64.0732,2065.1469 C64.0732,2057.1469 72.0732,2049.1469 80.0732,2049.1469 C84.0732,2053.1469 87.0732,2053.1469 91.0732,2053.1469" fill="#F1F1F1" style="stroke:#181818;stroke-width:0.5;"/><text fill="#000000" font-family="sans-serif" font-size="14" lengthAdjust="spacing" textLength="170.1465" x="6" y="2090.642">Maintenance Technician</text></g><!--entity DP_Int--><g class="entity" data-entity="DP_Int" data-source-line="15" data-uid="ent0007" id="entity_DP_Int"><ellipse cx="1486.2172" cy="1644.1469" fill="#F1F1F1" rx="16" ry="16" style="stroke:#181818;stroke-width:0.5;"/><path d="M1486.2172,1664.1469 C1490.2172,1664.1469 1493.2172,1664.1469 1497.2172,1660.1469 C1505.2172,1660.1469 1513.2172,1668.1469 1513.2172,1676.1469 L1513.2172,1680.1469 C1513.2172,1684.1469 1509.2172,1688.1469 1505.2172,1688.1469 L1467.2172,1688.1469 C1463.2172,1688.1469 1459.2172,1684.1469 1459.2172,1680.1469 L1459.2172,1676.1469 C1459.2172,1668.1469 1467.2172,1660.1469 1475.2172,1660.1469 C1479.2172,1664.1469 1482.2172,1664.1469 1486.2172,1664.1469" fill="#F1F1F1" style="stroke:#181818;stroke-width:0.5;"/><text fill="#000000" font-family="sans-serif" font-size="14" lengthAdjust="spacing" textLength="77.3145" x="1447.56" y="1701.642">Drone Pilot</text></g><!--link FOA_Int to UC_KPI--><g class="link" data-entity-1="FOA_Int" data-entity-2="UC_KPI" data-source-line="55" data-uid="lnk36" id="link_FOA_Int_UC_KPI"><path d="M119.69,832.4369 C142.13,803.8569 176.34,766.4369 215.15,745.2969 C244.66,729.2269 274.7265,721.3974 306.1765,716.6774" fill="none" id="FOA_Int-to-UC_KPI" style="stroke:#181818;stroke-width:1;"/><polygon fill="#181818" points="312.11,715.7869,302.616,713.1669,307.1654,716.529,303.8033,721.0783,312.11,715.7869" style="stroke:#181818;stroke-width:1;"/></g><!--link FOA_Int to UC_DASHBOARD--><g class="link" data-entity-1="FOA_Int" data-entity-2="UC_DASHBOARD" data-source-line="56" data-uid="lnk37" id="link_FOA_Int_UC_DASHBOARD"><path d="M147.96,853.3969 C168.96,846.8469 193.08,839.5169 215.15,833.2969 C245.34,824.7969 272.8821,817.5838 302.1521,810.2038" fill="none" id="FOA_Int-to-UC_DASHBOARD" style="stroke:#181818;stroke-width:1;"/><polygon fill="#181818" points="307.97,808.7369,298.2652,807.0586,303.1217,809.9593,300.2211,814.8158,307.97,808.7369" style="stroke:#181818;stroke-width:1;"/></g><!--link FOA_Int to UC_MINE_DATA--><g class="link" data-entity-1="FOA_Int" data-entity-2="UC_MINE_DATA" data-source-line="57" data-uid="lnk38" id="link_FOA_Int_UC_MINE_DATA"><path d="M148.01,871.2969 C189.85,871.2969 241.96,871.2969 290.47,871.2969" fill="none" id="FOA_Int-to-UC_MINE_DATA" style="stroke:#181818;stroke-width:1;"/><polygon fill="#181818" points="296.47,871.2969,287.47,867.2969,291.47,871.2969,287.47,875.2969,296.47,871.2969" style="stroke:#181818;stroke-width:1;"/></g><!--link FOA_Int to UC_FORECAST--><g class="link" data-entity-1="FOA_Int" data-entity-2="UC_FORECAST" data-source-line="58" data-uid="lnk39" id="link_FOA_Int_UC_FORECAST"><path d="M147.82,889.7269 C168.8,896.3369 192.95,903.5669 215.15,909.2969 C252.17,918.8569 288.2716,926.515 321.5516,933.025" fill="none" id="FOA_Int-to-UC_FORECAST" style="stroke:#181818;stroke-width:1;"/><polygon fill="#181818" points="327.44,934.1769,319.3753,928.5235,322.533,933.217,317.8395,936.3747,327.44,934.1769" style="stroke:#181818;stroke-width:1;"/></g><!--link FOA_Int to UC_DYNAMIC_PRICE--><g class="link" data-entity-1="FOA_Int" data-entity-2="UC_DYNAMIC_PRICE" data-source-line="59" data-uid="lnk40" id="link_FOA_Int_UC_DYNAMIC_PRICE"><path d="M104.16,910.3569 C121.04,958.1469 156.41,1037.9269 215.15,1080.2969 C241.22,1099.1169 269.0018,1107.7913 299.6818,1112.5813" fill="none" id="FOA_Int-to-UC_DYNAMIC_PRICE" style="stroke:#181818;stroke-width:1;"/><polygon fill="#181818" points="305.61,1113.5069,297.3348,1108.1664,300.6698,1112.7356,296.1007,1116.0707,305.61,1113.5069" style="stroke:#181818;stroke-width:1;"/></g><!--link FOA_Int to UC_INV_ALERT--><g class="link" data-entity-1="FOA_Int" data-entity-2="UC_INV_ALERT" data-source-line="60" data-uid="lnk41" id="link_FOA_Int_UC_INV_ALERT"><path d="M92.7,910.2169 C96.15,987.3669 115.29,1160.1169 215.15,1251.2969 C236.12,1270.4469 258.5646,1279.68 286.2046,1285.16" fill="none" id="FOA_Int-to-UC_INV_ALERT" style="stroke:#181818;stroke-width:1;"/><polygon fill="#181818" points="292.09,1286.3269,284.0397,1280.6529,287.1855,1285.3545,282.4839,1288.5002,292.09,1286.3269" style="stroke:#181818;stroke-width:1;"/></g><!--link FOA_Int to UC_EXPORT_ML--><g class="link" data-entity-1="FOA_Int" data-entity-2="UC_EXPORT_ML" data-source-line="61" data-uid="lnk42" id="link_FOA_Int_UC_EXPORT_ML"><path d="M97.41,910.1569 C111.84,1009.7569 154.69,1270.5769 215.15,1330.2969 C231.74,1346.6969 247.8014,1355.5282 270.3114,1362.2582" fill="none" id="FOA_Int-to-UC_EXPORT_ML" style="stroke:#181818;stroke-width:1;"/><polygon fill="#181818" points="276.06,1363.9769,268.5829,1357.5664,271.2695,1362.5446,266.2913,1365.2312,276.06,1363.9769" style="stroke:#181818;stroke-width:1;"/></g><!--link FOA_Int to UC_MONITOR_EVENTS--><g class="link" data-entity-1="FOA_Int" data-entity-2="UC_MONITOR_EVENTS" data-source-line="62" data-uid="lnk43" id="link_FOA_Int_UC_MONITOR_EVENTS"><path d="M95.63,910.4369 C106.64,1023.1169 143.83,1344.9169 215.15,1418.2969 C231.3,1434.9169 247.0476,1443.8377 269.3676,1450.5977" fill="none" id="FOA_Int-to-UC_MONITOR_EVENTS" style="stroke:#181818;stroke-width:1;"/><polygon fill="#181818" points="275.11,1452.3369,267.6558,1445.8998,270.3247,1450.8876,265.3369,1453.5564,275.11,1452.3369" style="stroke:#181818;stroke-width:1;"/></g><!--link FOA_Int to UC_REVIEW_SAFETY_FLAGS--><g class="link" data-entity-1="FOA_Int" data-entity-2="UC_REVIEW_SAFETY_FLAGS" data-source-line="63" data-uid="lnk44" id="link_FOA_Int_UC_REVIEW_SAFETY_FLAGS"><path d="M94.26,910.3869 C102.01,1034.9369 132.32,1419.4469 215.15,1506.2969 C232.48,1524.4769 250.4546,1533.8212 274.8146,1540.1812" fill="none" id="FOA_Int-to-UC_REVIEW_SAFETY_FLAGS" style="stroke:#181818;stroke-width:1;"/><polygon fill="#181818" points="280.62,1541.6969,272.9224,1535.5531,275.7822,1540.4338,270.9014,1543.2936,280.62,1541.6969" style="stroke:#181818;stroke-width:1;"/></g><!--link FOA_Int to UC_ANALYZE_FEEDBACK--><g class="link" data-entity-1="FOA_Int" data-entity-2="UC_ANALYZE_FEEDBACK" data-source-line="64" data-uid="lnk45" id="link_FOA_Int_UC_ANALYZE_FEEDBACK"><path d="M93.36,910.1369 C98.6,1044.8169 122.72,1489.0469 215.15,1590.2969 C229.98,1606.5469 244.1658,1615.406 265.1458,1622.496" fill="none" id="FOA_Int-to-UC_ANALYZE_FEEDBACK" style="stroke:#181818;stroke-width:1;"/><polygon fill="#181818" points="270.83,1624.4169,263.5843,1617.746,266.0932,1622.8161,261.0231,1625.325,270.83,1624.4169" style="stroke:#181818;stroke-width:1;"/></g><!--link FOA_Int to UC_MONITOR_DRONE_ALG--><g class="link" data-entity-1="FOA_Int" data-entity-2="UC_MONITOR_DRONE_ALG" data-source-line="65" data-uid="lnk46" id="link_FOA_Int_UC_MONITOR_DRONE_ALG"><path d="M92.53,910.4469 C95.04,1056.3769 111.23,1566.2669 215.15,1682.2969 C229.83,1698.6869 243.9472,1707.6019 264.9072,1714.7019" fill="none" id="FOA_Int-to-UC_MONITOR_DRONE_ALG" style="stroke:#181818;stroke-width:1;"/><polygon fill="#181818" points="270.59,1716.6269,263.3491,1709.9508,265.8543,1715.0227,260.7824,1717.5279,270.59,1716.6269" style="stroke:#181818;stroke-width:1;"/></g><!--link FOA_Int to UC_MANAGE_SMART_ROAD--><g class="link" data-entity-1="FOA_Int" data-entity-2="UC_MANAGE_SMART_ROAD" data-source-line="66" data-uid="lnk47" id="link_FOA_Int_UC_MANAGE_SMART_ROAD"><path d="M93.13,832.2369 C97.65,695.7169 119.7,242.7469 215.15,141.2969 C234.53,120.7069 256.3697,110.9392 283.9397,105.3492" fill="none" id="FOA_Int-to-UC_MANAGE_SMART_ROAD" style="stroke:#181818;stroke-width:1;"/><polygon fill="#181818" points="289.82,104.1569,280.2046,102.0251,284.9197,105.1504,281.7943,109.8655,289.82,104.1569" style="stroke:#181818;stroke-width:1;"/></g><!--link FOA_Int to UC_MANAGE_DATA_SECURITY--><g class="link" data-entity-1="FOA_Int" data-entity-2="UC_MANAGE_DATA_SECURITY" data-source-line="67" data-uid="lnk48" id="link_FOA_Int_UC_MANAGE_DATA_SECURITY"><path d="M94.2,832.2669 C101.83,706.9369 131.91,317.7169 215.15,229.2969 C231.03,212.4269 246.6695,203.4022 268.9695,196.6222" fill="none" id="FOA_Int-to-UC_MANAGE_DATA_SECURITY" style="stroke:#181818;stroke-width:1;"/><polygon fill="#181818" points="274.71,194.8769,264.9356,193.6678,269.9262,196.3313,267.2627,201.3219,274.71,194.8769" style="stroke:#181818;stroke-width:1;"/></g><!--link FOA_Int to UC_MANAGE_ENERGY_MIX--><g class="link" data-entity-1="FOA_Int" data-entity-2="UC_MANAGE_ENERGY_MIX" data-source-line="68" data-uid="lnk49" id="link_FOA_Int_UC_MANAGE_ENERGY_MIX"><path d="M95.71,832.3069 C106.96,720.0369 144.73,399.3069 215.15,325.2969 C229.18,310.5469 241.7038,302.3184 260.9338,295.0884" fill="none" id="FOA_Int-to-UC_MANAGE_ENERGY_MIX" style="stroke:#181818;stroke-width:1;"/><polygon fill="#181818" points="266.55,292.9769,256.718,292.4001,261.8699,294.7365,259.5334,299.8883,266.55,292.9769" style="stroke:#181818;stroke-width:1;"/></g><!--link FOA_Int to UC_OVERSEE_CARBON_SCORES--><g class="link" data-entity-1="FOA_Int" data-entity-2="UC_OVERSEE_CARBON_SCORES" data-source-line="69" data-uid="lnk50" id="link_FOA_Int_UC_OVERSEE_CARBON_SCORES"><path d="M97.51,832.3569 C112.13,733.1769 155.25,474.6969 215.15,415.2969 C231.08,399.5069 246.1042,390.8717 267.6542,383.9917" fill="none" id="FOA_Int-to-UC_OVERSEE_CARBON_SCORES" style="stroke:#181818;stroke-width:1;"/><polygon fill="#181818" points="273.37,382.1669,263.5798,381.0936,268.6069,383.6875,266.0129,388.7146,273.37,382.1669" style="stroke:#181818;stroke-width:1;"/></g><!--link FOA_Int to UC_MANAGE_VAPOR_RECOVERY--><g class="link" data-entity-1="FOA_Int" data-entity-2="UC_MANAGE_VAPOR_RECOVERY" data-source-line="70" data-uid="lnk51" id="link_FOA_Int_UC_MANAGE_VAPOR_RECOVERY"><path d="M93.37,832.2669 C98.06,757.0069 119.35,591.4269 215.15,502.2969 C233.25,485.4569 251.0978,476.4489 275.0278,469.8189" fill="none" id="FOA_Int-to-UC_MANAGE_VAPOR_RECOVERY" style="stroke:#181818;stroke-width:1;"/><polygon fill="#181818" points="280.81,468.2169,271.0687,466.7651,275.9915,469.5519,273.2047,474.4747,280.81,468.2169" style="stroke:#181818;stroke-width:1;"/></g><!--link FOA_Int to UC_MANAGE_OPEN_DATA_FUEL--><g class="link" data-entity-1="FOA_Int" data-entity-2="UC_MANAGE_OPEN_DATA_FUEL" data-source-line="71" data-uid="lnk52" id="link_FOA_Int_UC_MANAGE_OPEN_DATA_FUEL"><path d="M97.68,832.2869 C108.69,770.4869 139.05,650.5269 215.15,586.2969 C234.46,569.9969 253.2774,561.3249 277.8474,555.0349" fill="none" id="FOA_Int-to-UC_MANAGE_OPEN_DATA_FUEL" style="stroke:#181818;stroke-width:1;"/><polygon fill="#181818" points="283.66,553.5469,273.9492,551.9039,278.8162,554.7869,275.9332,559.654,283.66,553.5469" style="stroke:#181818;stroke-width:1;"/></g><!--link MT_Int to UC_RESPOND_FAULT--><g class="link" data-entity-1="MT_Int" data-entity-2="UC_RESPOND_FAULT" data-source-line="74" data-uid="lnk53" id="link_MT_Int_UC_RESPOND_FAULT"><path d="M156.38,2094.2969 C174.89,2104.4169 195.42,2114.6169 215.15,2122.2969 C242.75,2133.0569 268.0739,2140.3942 296.2339,2147.1142" fill="none" id="MT_Int-to-UC_RESPOND_FAULT" style="stroke:#181818;stroke-width:1;"/><polygon fill="#181818" points="302.07,2148.5069,294.2443,2142.5271,297.2066,2147.3463,292.3873,2150.3086,302.07,2148.5069" style="stroke:#181818;stroke-width:1;"/></g><!--link MT_Int to UC_SCHEDULE_REFILL--><g class="link" data-entity-1="MT_Int" data-entity-2="UC_SCHEDULE_REFILL" data-source-line="75" data-uid="lnk54" id="link_MT_Int_UC_SCHEDULE_REFILL"><path d="M113.4,2094.3769 C134.61,2129.5269 170.41,2179.8669 215.15,2208.2969 C238.04,2222.8469 259.7308,2230.9771 286.0108,2237.1871" fill="none" id="MT_Int-to-UC_SCHEDULE_REFILL" style="stroke:#181818;stroke-width:1;"/><polygon fill="#181818" points="291.85,2238.5669,284.0111,2232.6044,286.984,2237.417,282.1713,2240.39,291.85,2238.5669" style="stroke:#181818;stroke-width:1;"/></g><!--link MT_Int to UC_VIEW_MTTR--><g class="link" data-entity-1="MT_Int" data-entity-2="UC_VIEW_MTTR" data-source-line="76" data-uid="lnk55" id="link_MT_Int_UC_VIEW_MTTR"><path d="M107.42,2016.4369 C126.35,1973.5269 162.61,1905.4969 215.15,1867.2969 C234.22,1853.4269 251.4364,1845.392 274.2764,1838.492" fill="none" id="MT_Int-to-UC_VIEW_MTTR" style="stroke:#181818;stroke-width:1;"/><polygon fill="#181818" points="280.02,1836.7569,270.2478,1835.5305,275.2336,1838.2028,272.5613,1843.1887,280.02,1836.7569" style="stroke:#181818;stroke-width:1;"/></g><!--link MT_Int to UC_SCAN_PARTS--><g class="link" data-entity-1="MT_Int" data-entity-2="UC_SCAN_PARTS" data-source-line="77" data-uid="lnk56" id="link_MT_Int_UC_SCAN_PARTS"><path d="M127.92,2016.1769 C150.79,1993.4669 182.25,1966.1069 215.15,1949.2969 C240.5,1936.3469 264.1952,1928.7189 291.5952,1922.5789" fill="none" id="MT_Int-to-UC_SCAN_PARTS" style="stroke:#181818;stroke-width:1;"/><polygon fill="#181818" points="297.45,1921.2669,287.7931,1919.3317,292.571,1922.3602,289.5425,1927.1381,297.45,1921.2669" style="stroke:#181818;stroke-width:1;"/></g><!--link MT_Int to UC_DIGITAL_TWIN--><g class="link" data-entity-1="MT_Int" data-entity-2="UC_DIGITAL_TWIN" data-source-line="78" data-uid="lnk57" id="link_MT_Int_UC_DIGITAL_TWIN"><path d="M176.37,2037.0469 C218.34,2027.9569 262.8856,2018.3055 303.9356,2009.4255" fill="none" id="MT_Int-to-UC_DIGITAL_TWIN" style="stroke:#181818;stroke-width:1;"/><polygon fill="#181818" points="309.8,2008.1569,300.1577,2006.1502,304.913,2009.214,301.8492,2013.9693,309.8,2008.1569" style="stroke:#181818;stroke-width:1;"/></g><!--link MT_Int to UC_PREVENT_MAINT--><g class="link" data-entity-1="MT_Int" data-entity-2="UC_PREVENT_MAINT" data-source-line="79" data-uid="lnk58" id="link_MT_Int_UC_PREVENT_MAINT"><path d="M176.37,2061.5769 C205.46,2063.7369 232.6166,2065.761 263.8866,2068.091" fill="none" id="MT_Int-to-UC_PREVENT_MAINT" style="stroke:#181818;stroke-width:1;"/><polygon fill="#181818" points="269.87,2068.5369,261.1921,2063.8792,264.8838,2068.1653,260.5977,2071.8571,269.87,2068.5369" style="stroke:#181818;stroke-width:1;"/></g><!--link DP_Int to UC_OPERATE_DRONE_MANUAL--><g class="link" data-entity-1="DP_Int" data-entity-2="UC_OPERATE_DRONE_MANUAL" data-source-line="82" data-uid="lnk59" id="link_DP_Int_UC_OPERATE_DRONE_MANUAL"><path d="M1483.19,1704.9769 C1473.55,1844.1169 1419.81,2321.1669 1131.3,2513.2969 C1007.3,2595.8769 942.29,2541.9669 796.09,2513.2969 C688.7,2492.2369 630.3,2510.3369 568.09,2420.2969 C494.18,2313.3069 615.95,1354.4569 538.09,1250.2969 C528.69,1237.7169 521.3063,1231.0104 507.1863,1224.0804" fill="none" id="DP_Int-to-UC_OPERATE_DRONE_MANUAL" style="stroke:#181818;stroke-width:1;"/><polygon fill="#181818" points="501.8,1221.4369,508.117,1228.993,506.2885,1223.6398,511.6417,1221.8113,501.8,1221.4369" style="stroke:#181818;stroke-width:1;"/></g><!--link UC_SCHEDULE_DRONE_AUTO to DP_Int--><g class="link" data-entity-1="UC_SCHEDULE_DRONE_AUTO" data-entity-2="DP_Int" data-source-line="83" data-uid="lnk60" id="link_UC_SCHEDULE_DRONE_AUTO_DP_Int"><path d="M980.58,1063.5969 C1070.99,1171.5869 1351.9683,1507.1564 1448.7783,1622.7864" fill="none" id="UC_SCHEDULE_DRONE_AUTO-to-DP_Int" style="stroke:#181818;stroke-width:1;"/><polygon fill="#181818" points="1452.63,1627.3869,1449.9194,1617.9184,1449.4202,1623.5531,1443.7855,1623.054,1452.63,1627.3869" style="stroke:#181818;stroke-width:1;"/><text fill="#000000" font-family="sans-serif" font-size="13" lengthAdjust="spacing" textLength="145.1074" x="1178.3" y="1250.3638">(notifies for oversight)</text></g><!--link UC_AUTO_REORDER to UC_SCHEDULE_DRONE_AUTO--><g class="link" data-entity-1="UC_AUTO_REORDER" data-entity-2="UC_SCHEDULE_DRONE_AUTO" data-source-line="86" data-uid="lnk61" id="link_UC_AUTO_REORDER_UC_SCHEDULE_DRONE_AUTO"><path d="M538.51,1030.2969 C617.88,1030.2969 709.45,1030.2969 789.72,1030.2969" fill="none" id="UC_AUTO_REORDER-to-UC_SCHEDULE_DRONE_AUTO" style="stroke:#181818;stroke-width:1;stroke-dasharray:7.0,7.0;"/><polygon fill="#181818" points="795.72,1030.2969,786.72,1026.2969,790.72,1030.2969,786.72,1034.2969,795.72,1030.2969" style="stroke:#181818;stroke-width:1;"/><text fill="#000000" font-family="sans-serif" font-size="13" lengthAdjust="spacing" textLength="63.0068" x="635.59" y="1026.3638">&#171;include&#187;</text></g><!--link UC_AUTO_REORDER to FC_Ext--><g class="link" data-entity-1="UC_AUTO_REORDER" data-entity-2="FC_Ext" data-source-line="87" data-uid="lnk62" id="link_UC_AUTO_REORDER_FC_Ext"><path d="M499.1,1052.2769 C513.77,1059.2069 527.42,1068.3169 538.09,1080.2969 C903.97,1490.7669 433.71,1876.7369 796.09,2290.2969 C822.57,2320.5069 860.8735,2333.072 895.2535,2339.212" fill="none" id="UC_AUTO_REORDER-to-FC_Ext" style="stroke:#181818;stroke-width:1;"/><polygon fill="#181818" points="901.16,2340.2669,893.0034,2334.7469,896.2379,2339.3878,891.5969,2342.6223,901.16,2340.2669" style="stroke:#181818;stroke-width:1;"/><text fill="#000000" font-family="sans-serif" font-size="13" lengthAdjust="spacing" textLength="119.1963" x="607.59" y="1126.3638">(sends request to)</text></g><!--reverse link UC_ADHERE_NOFLY to GACA_Ext--><g class="link" data-entity-1="UC_ADHERE_NOFLY" data-entity-2="GACA_Ext" data-source-line="90" data-uid="lnk63" id="link_UC_ADHERE_NOFLY_GACA_Ext"><path d="M483.3115,649.1934 C686.8015,690.2434 1183.27,790.3969 1391.97,832.4869" fill="none" id="UC_ADHERE_NOFLY-backto-GACA_Ext" style="stroke:#181818;stroke-width:1;"/><polygon fill="#181818" points="477.43,648.0069,485.4613,653.7076,482.3313,648.9956,487.0433,645.8656,477.43,648.0069" style="stroke:#181818;stroke-width:1;"/><text fill="#000000" font-family="sans-serif" font-size="13" lengthAdjust="spacing" textLength="158.958" x="872.7" y="711.3638">(System gets data from)</text></g><!--reverse link UC_SCHEDULE_DRONE_AUTO to GACA_Ext--><g class="link" data-entity-1="UC_SCHEDULE_DRONE_AUTO" data-entity-2="GACA_Ext" data-source-line="91" data-uid="lnk64" id="link_UC_SCHEDULE_DRONE_AUTO_GACA_Ext"><path d="M1042.7673,1000.0252 C1139.3973,967.5452 1291.57,916.3969 1391.83,882.6869" fill="none" id="UC_SCHEDULE_DRONE_AUTO-backto-GACA_Ext" style="stroke:#181818;stroke-width:1;"/><polygon fill="#181818" points="1037.08,1001.9369,1046.8854,1002.8609,1041.8194,1000.3438,1044.3365,995.2778,1037.08,1001.9369" style="stroke:#181818;stroke-width:1;"/><text fill="#000000" font-family="sans-serif" font-size="13" lengthAdjust="spacing" textLength="221.4507" x="1140.3" y="891.3638">(System requests clearance from)</text></g><!--reverse link UC_DYNAMIC_PRICE to MTS_Ext--><g class="link" data-entity-1="UC_DYNAMIC_PRICE" data-entity-2="MTS_Ext" data-source-line="92" data-uid="lnk65" id="link_UC_DYNAMIC_PRICE_MTS_Ext"><path d="M479.017,1120.0156 C503.607,1124.8556 522.25,1133.7069 538.09,1153.2969 C615.88,1249.4969 505.39,2159.6569 568.09,2266.2969 C630.56,2372.5369 772.89,2421.3069 865.24,2442.4669" fill="none" id="UC_DYNAMIC_PRICE-backto-MTS_Ext" style="stroke:#181818;stroke-width:1;"/><polygon fill="#181818" points="473.13,1118.8569,481.1881,1124.5197,478.0359,1119.8225,482.7331,1116.6703,473.13,1118.8569" style="stroke:#181818;stroke-width:1;"/><text fill="#000000" font-family="sans-serif" font-size="13" lengthAdjust="spacing" textLength="196.625" x="569.09" y="2262.3638">(System consumes data from)</text></g><!--SRC=[ZLVBRjiw4DtxAuWisdgHPbyK0HY9IeNgOKYostGZC19j4vL9bvBIkXVtt- -GUbXY5E1sbPhpufapSwY6DnL3wOcgncjPXT9BtR3J9_H0YvzCbEWT2gcW1tPYea7ncIdQS2bgzC5b3UKLAzUhLSNs3MeaKlnmR5395IkqqQh-oSMPAdf2j6YaIfiBfAA_MIrFR79uXbIGeJlMlbGSAhPQlKVaJyEKe1N2shzUcJ3e9cm5B_WPViyKtUzvqLTzWsYDmYpDmM-mVSGEHdV8LL8m5CW3hnjUr0XlV6EjZwVc1WD7divKN8o1vvXZACONYyLeZ_WC4U48gkYSOfo3-LWlvU0hg2WOobXnrDLJqLSxDUogtF1ATd7SZJbTZQ2Wcw4larPCMtI3_baX-FSURPZQItKoITzrrPcRRsk675gpsjYrDIlWFv2QxRbWTw4i-Vw2lcxysbImTNBuUswwu-ptBBnBw-EpfAeSVLoSVdc8SUBEFKD8SQqSe7HfGmUVq8y8E6PuxkD9fVzgaCiWMpbOUt5279ncS-EKWTr5q1DmOgC0Pd4OItgASEWx-IRn7JBtIbZ1-0k33hy0X59T4AwOQiRR-D4knm59h6Japrcg1g2LudBYVrbfheC05XG6Wo_vlecJB0y32mafk6vvsXWe4D6POQfYPxE9rYCaSUHdSPAJ7Ocor2xwHVSXfNlMNA3qWfTwHBsA7iR24xBpoRSynHx9dd8lm8zM44EBlq0v9GjMrt05e8T27cFbCn1jY8CZ73pz8Bb7YFk0dQ-hdcDJOh-RJDU7OLRMRz4jOVLP0erXQv1VBJ-RzUBHjcecnQURE79p3sy3kyt5aPKjZ8CUlhkqFP-h2qg0mLKrkgVE5-9k0m9nF3y85YWSPbc2CgeEhD53D67q4CEWfytiz5IW59ON00Tx4-xxG5KXIxQ-9iTHli69tJIDXiiFlD6xwpSNXYm9ErEkhhFZF_eP3lBicn_DlViAeLjCqqLJTjA1mN-J6Bha8VQZREXKjrcc-tlirfizmcqZJxHXlRDPZIwh82rCID-2oO2DWBj939ECjrbiSPwAbbRGgQuCEwB9CWIBDoJ1sH0hnD4MMoqaecwX0P6yzI3a3rqXBezCiGaKsFr24f97iHSyBSzVTpMNrsVQ54UO-uDKl3cUx0dixnGy3e0Eu9Izzi1bHD53Er5CJnRj_q1uAqgc3agsC186bOH91JzDuDLu0fVZn2N9ArmXNQVXA95KYyF89e0EFv8y3O6CUH9ZQoCxKAGoJUcZc1MMig8562vM4BsSyvGusyJFdXPh80Ak0UIGhOAL4F8_cjom92Vtw6EHY2IFJx3qlyy3nS25cccqr3FinRIGUihQvuhNnqcKU4UIb93SmSb3707tG0xInP9sz6nch926PLlekmtE3iEE1cmT7NNvOa1PqM43g_A5rz1eAmWmDkeGyhOaMFshdmpMsw1xGj2E9gl-aO1kR-y7cRL-kggeTN2LIkjWL4KxqapyhCEhl5a7L-soyyzroJfTKXtBv9MWl97WEdQsmIjQBnlCARjiCw6YPR3CikKe5ecMZIoIhEOIUdqRpfdIFHAly4vrSNvcYzxyz2fdjjUeLlE3cHJDZooL6HJ6l5tdrNUFs17IfSM-h1x6fVV-X3u8sV0zPxNHJ3tCjVxSMElS_Gfs5IY9WDV-TJc3GFravfanUY1mvx05k572bRLQqSUFzs-e6HJn-JCNHTMMxFx-bQEkjljQqDNMy4YluMlcLyjg_N6qddtFz0LFSJBN6aNvxYhLAql8qEVRs_6xHQVgWvbdJ6bUe4gUrc-1-ePtNscDYeh1LvccunXcjZrCWFuZQ-9VGANjYKqh-0y0]--></g></svg>