<svg xmlns="http://www.w3.org/2000/svg" xmlns:xlink="http://www.w3.org/1999/xlink" contentStyleType="text/css" data-diagram-type="DESCRIPTION" height="1207px" preserveAspectRatio="none" style="width:815px;height:1207px;background:#FFFFFF;" version="1.1" viewBox="0 0 815 1207" width="815px" zoomAndPan="magnify"><title>SmartFuel System: External Integrations &amp; Compliance (Detailed)</title><defs/><g><g class="title" data-source-line="1"><text fill="#000000" font-family="sans-serif" font-size="14" font-weight="bold" lengthAdjust="spacing" textLength="520.4268" x="140.7718" y="22.9951">SmartFuel System: External Integrations &amp; Compliance (Detailed)</text></g><!--cluster Compliance, Auditing & External Reporting--><g class="cluster" data-entity="Compliance, Auditing &amp; External Reporting" data-source-line="16" data-uid="ent0007" id="cluster_Compliance, Auditing &amp; External Reporting"><rect fill="none" height="1157" rx="2.5" ry="2.5" style="stroke:#181818;stroke-width:1;" width="354.21" x="200.07" y="44.2969"/><text fill="#000000" font-family="sans-serif" font-size="14" font-weight="bold" lengthAdjust="spacing" textLength="339.6299" x="207.3601" y="59.292">Compliance, Auditing &amp; External Reporting</text></g><!--entity UC_SETTLEMENT--><g class="entity" data-entity="UC_SETTLEMENT" data-source-line="17" data-uid="ent0008" id="entity_UC_SETTLEMENT"><ellipse cx="376.6831" cy="1156.2955" fill="#F1F1F1" rx="130.8431" ry="28.5686" style="stroke:#181818;stroke-width:0.5;"/><text fill="#000000" font-family="sans-serif" font-size="14" lengthAdjust="spacing" textLength="242.3545" x="255.5058" y="1160.9439">Process Daily Financial Settlement</text></g><!--entity UC_SUBMIT_INCIDENT_REPORTS--><g class="entity" data-entity="UC_SUBMIT_INCIDENT_REPORTS" data-source-line="18" data-uid="ent0009" id="entity_UC_SUBMIT_INCIDENT_REPORTS"><ellipse cx="376.6809" cy="784.299" fill="#F1F1F1" rx="151.5109" ry="32.7022" style="stroke:#181818;stroke-width:0.5;"/><text fill="#000000" font-family="sans-serif" font-size="14" lengthAdjust="spacing" textLength="285.626" x="233.8679" y="788.9475">Submit Auto-Generated Incident Reports</text></g><!--entity UC_PROVIDE_CARBON_AUDIT--><g class="entity" data-entity="UC_PROVIDE_CARBON_AUDIT" data-source-line="19" data-uid="ent0010" id="entity_UC_PROVIDE_CARBON_AUDIT"><ellipse cx="376.6792" cy="487.2947" fill="#F1F1F1" rx="147.8892" ry="31.9778" style="stroke:#181818;stroke-width:0.5;"/><text fill="#000000" font-family="sans-serif" font-size="14" lengthAdjust="spacing" textLength="278.0859" x="237.6362" y="491.9431">Provide Carbon Footprint Data for Audit</text></g><!--entity UC_PROVIDE_SAFETY_AUDIT--><g class="entity" data-entity="UC_PROVIDE_SAFETY_AUDIT" data-source-line="20" data-uid="ent0011" id="entity_UC_PROVIDE_SAFETY_AUDIT"><ellipse cx="376.6778" cy="387.2924" fill="#F1F1F1" rx="154.2278" ry="33.2456" style="stroke:#181818;stroke-width:0.5;"/><text fill="#000000" font-family="sans-serif" font-size="14" lengthAdjust="spacing" textLength="291.2725" x="231.0415" y="391.9409">Provide Safety Compliance Data for Audit</text></g><!--entity UC_PROVIDE_REVENUE_AUDIT--><g class="entity" data-entity="UC_PROVIDE_REVENUE_AUDIT" data-source-line="21" data-uid="ent0012" id="entity_UC_PROVIDE_REVENUE_AUDIT"><ellipse cx="376.6803" cy="292.2929" fill="#F1F1F1" rx="120.8803" ry="26.5761" style="stroke:#181818;stroke-width:0.5;"/><text fill="#000000" font-family="sans-serif" font-size="14" lengthAdjust="spacing" textLength="221.2314" x="266.0646" y="296.9414">Provide Revenue Data for Audit</text></g><!--entity UC_PROVIDE_RENEWABLE_CERT_DATA--><g class="entity" data-entity="UC_PROVIDE_RENEWABLE_CERT_DATA" data-source-line="22" data-uid="ent0013" id="entity_UC_PROVIDE_RENEWABLE_CERT_DATA"><ellipse cx="376.6773" cy="972.3003" fill="#F1F1F1" rx="141.2673" ry="30.6535" style="stroke:#181818;stroke-width:0.5;"/><text fill="#000000" font-family="sans-serif" font-size="14" lengthAdjust="spacing" textLength="264.2568" x="244.5489" y="976.9488">Provide Renewable Energy Cert. Data</text></g><!--entity UC_COMPLY_OPEN_BANKING--><g class="entity" data-entity="UC_COMPLY_OPEN_BANKING" data-source-line="23" data-uid="ent0014" id="entity_UC_COMPLY_OPEN_BANKING"><ellipse cx="376.6813" cy="199.3011" fill="#F1F1F1" rx="143.4213" ry="31.0843" style="stroke:#181818;stroke-width:0.5;"/><text fill="#000000" font-family="sans-serif" font-size="14" lengthAdjust="spacing" textLength="268.7617" x="242.3004" y="203.9496">Comply with SAMA Open Banking APIs</text></g><!--entity UC_MAINTAIN_ISO_CARBON_CERT--><g class="entity" data-entity="UC_MAINTAIN_ISO_CARBON_CERT" data-source-line="24" data-uid="ent0015" id="entity_UC_MAINTAIN_ISO_CARBON_CERT"><ellipse cx="376.6778" cy="106.2924" fill="#F1F1F1" rx="123.8778" ry="27.1756" style="stroke:#181818;stroke-width:0.5;"/><text fill="#000000" font-family="sans-serif" font-size="14" lengthAdjust="spacing" textLength="227.6094" x="262.8731" y="110.9409">Maintain ISO 14067 Certification</text></g><!--entity UC_UNDERGO_PEN_TESTS--><g class="entity" data-entity="UC_UNDERGO_PEN_TESTS" data-source-line="25" data-uid="ent0016" id="entity_UC_UNDERGO_PEN_TESTS"><ellipse cx="376.6767" cy="686.3002" fill="#F1F1F1" rx="138.2167" ry="30.0433" style="stroke:#181818;stroke-width:0.5;"/><text fill="#000000" font-family="sans-serif" font-size="14" lengthAdjust="spacing" textLength="257.8652" x="247.744" y="690.9486">Undergo Quarterly Penetration Tests</text></g><!--entity UC_ENFORCE_KSA_CCC--><g class="entity" data-entity="UC_ENFORCE_KSA_CCC" data-source-line="26" data-uid="ent0017" id="entity_UC_ENFORCE_KSA_CCC"><ellipse cx="376.6774" cy="587.2984" fill="#F1F1F1" rx="155.6074" ry="33.5215" style="stroke:#181818;stroke-width:0.5;"/><text fill="#000000" font-family="sans-serif" font-size="14" lengthAdjust="spacing" textLength="294.1367" x="229.6091" y="591.9468">Enforce KSA Cloud Cybersecurity Controls</text></g><!--entity UC_PUBLISH_OPEN_DATA--><g class="entity" data-entity="UC_PUBLISH_OPEN_DATA" data-source-line="27" data-uid="ent0018" id="entity_UC_PUBLISH_OPEN_DATA"><ellipse cx="376.677" cy="879.3003" fill="#F1F1F1" rx="124.367" ry="27.2734" style="stroke:#181818;stroke-width:0.5;"/><text fill="#000000" font-family="sans-serif" font-size="14" lengthAdjust="spacing" textLength="228.6484" x="262.3528" y="883.9487">Publish Open Data (Fuel/Energy)</text></g><!--entity UC_SELF_REPORT_ENERGY--><g class="entity" data-entity="UC_SELF_REPORT_ENERGY" data-source-line="28" data-uid="ent0019" id="entity_UC_SELF_REPORT_ENERGY"><ellipse cx="376.6754" cy="1065.3" fill="#F1F1F1" rx="126.8654" ry="27.7731" style="stroke:#181818;stroke-width:0.5;"/><text fill="#000000" font-family="sans-serif" font-size="14" lengthAdjust="spacing" textLength="233.9463" x="259.7023" y="1069.9484">Self-Report Electricity Source Mix</text></g><!--entity PG_Ext--><g class="entity" data-entity="PG_Ext" data-source-line="8" data-uid="ent0002" id="entity_PG_Ext"><ellipse cx="703.6274" cy="1134.1469" fill="#F1F1F1" rx="16" ry="16" style="stroke:#181818;stroke-width:0.5;"/><path d="M703.6274,1154.1469 C707.6274,1154.1469 710.6274,1154.1469 714.6274,1150.1469 C722.6274,1150.1469 730.6274,1158.1469 730.6274,1166.1469 L730.6274,1170.1469 C730.6274,1174.1469 726.6274,1178.1469 722.6274,1178.1469 L684.6274,1178.1469 C680.6274,1178.1469 676.6274,1174.1469 676.6274,1170.1469 L676.6274,1166.1469 C676.6274,1158.1469 684.6274,1150.1469 692.6274,1150.1469 C696.6274,1154.1469 699.6274,1154.1469 703.6274,1154.1469" fill="#F1F1F1" style="stroke:#181818;stroke-width:0.5;"/><text fill="#000000" font-family="sans-serif" font-size="14" lengthAdjust="spacing" textLength="128.2148" x="639.52" y="1191.642">Payment Gateway</text></g><!--entity NSMO_Ext--><g class="entity" data-entity="NSMO_Ext" data-source-line="9" data-uid="ent0003" id="entity_NSMO_Ext"><ellipse cx="703.6252" cy="835.1469" fill="#F1F1F1" rx="16" ry="16" style="stroke:#181818;stroke-width:0.5;"/><path d="M703.6252,855.1469 C707.6252,855.1469 710.6252,855.1469 714.6252,851.1469 C722.6252,851.1469 730.6252,859.1469 730.6252,867.1469 L730.6252,871.1469 C730.6252,875.1469 726.6252,879.1469 722.6252,879.1469 L684.6252,879.1469 C680.6252,879.1469 676.6252,875.1469 676.6252,871.1469 L676.6252,867.1469 C676.6252,859.1469 684.6252,851.1469 692.6252,851.1469 C696.6252,855.1469 699.6252,855.1469 703.6252,855.1469" fill="#F1F1F1" style="stroke:#181818;stroke-width:0.5;"/><text fill="#000000" font-family="sans-serif" font-size="14" lengthAdjust="spacing" textLength="210.6904" x="598.28" y="892.642">National Smart-Mobility Office</text></g><!--entity SEC_Ext--><g class="entity" data-entity="SEC_Ext" data-source-line="10" data-uid="ent0004" id="entity_SEC_Ext"><ellipse cx="703.6264" cy="973.1469" fill="#F1F1F1" rx="16" ry="16" style="stroke:#181818;stroke-width:0.5;"/><path d="M703.6264,993.1469 C707.6264,993.1469 710.6264,993.1469 714.6264,989.1469 C722.6264,989.1469 730.6264,997.1469 730.6264,1005.1469 L730.6264,1009.1469 C730.6264,1013.1469 726.6264,1017.1469 722.6264,1017.1469 L684.6264,1017.1469 C680.6264,1017.1469 676.6264,1013.1469 676.6264,1009.1469 L676.6264,1005.1469 C676.6264,997.1469 684.6264,989.1469 692.6264,989.1469 C696.6264,993.1469 699.6264,993.1469 703.6264,993.1469" fill="#F1F1F1" style="stroke:#181818;stroke-width:0.5;"/><text fill="#000000" font-family="sans-serif" font-size="14" lengthAdjust="spacing" textLength="159.6328" x="623.81" y="1030.642">SEC / Energy Authority</text></g><!--entity FR_Ext--><g class="entity" data-entity="FR_Ext" data-source-line="11" data-uid="ent0005" id="entity_FR_Ext"><ellipse cx="81.0347" cy="365.1469" fill="#F1F1F1" rx="16" ry="16" style="stroke:#181818;stroke-width:0.5;"/><path d="M81.0347,385.1469 C85.0347,385.1469 88.0347,385.1469 92.0347,381.1469 C100.0347,381.1469 108.0347,389.1469 108.0347,397.1469 L108.0347,401.1469 C108.0347,405.1469 104.0347,409.1469 100.0347,409.1469 L62.0347,409.1469 C58.0347,409.1469 54.0347,405.1469 54.0347,401.1469 L54.0347,397.1469 C54.0347,389.1469 62.0347,381.1469 70.0347,381.1469 C74.0347,385.1469 77.0347,385.1469 81.0347,385.1469" fill="#F1F1F1" style="stroke:#181818;stroke-width:0.5;"/><text fill="#000000" font-family="sans-serif" font-size="14" lengthAdjust="spacing" textLength="150.0693" x="6" y="422.642">Finance &amp; Regulators</text></g><!--entity FOA_Int--><g class="entity" data-entity="FOA_Int" data-source-line="14" data-uid="ent0006" id="entity_FOA_Int"><ellipse cx="81.0332" cy="614.1469" fill="#F1F1F1" rx="16" ry="16" style="stroke:#181818;stroke-width:0.5;"/><path d="M81.0332,634.1469 C85.0332,634.1469 88.0332,634.1469 92.0332,630.1469 C100.0332,630.1469 108.0332,638.1469 108.0332,646.1469 L108.0332,650.1469 C108.0332,654.1469 104.0332,658.1469 100.0332,658.1469 L62.0332,658.1469 C58.0332,658.1469 54.0332,654.1469 54.0332,650.1469 L54.0332,646.1469 C54.0332,638.1469 62.0332,630.1469 70.0332,630.1469 C74.0332,634.1469 77.0332,634.1469 81.0332,634.1469" fill="#F1F1F1" style="stroke:#181818;stroke-width:0.5;"/><text fill="#000000" font-family="sans-serif" font-size="14" lengthAdjust="spacing" textLength="113.0664" x="24.5" y="671.642">FuelOps Analyst</text></g><!--link FR_Ext to UC_PROVIDE_CARBON_AUDIT--><g class="link" data-entity-1="FR_Ext" data-entity-2="UC_PROVIDE_CARBON_AUDIT" data-source-line="32" data-uid="lnk20" id="link_FR_Ext_UC_PROVIDE_CARBON_AUDIT"><path d="M156.48,423.9069 C168.25,429.0769 180.39,434.0669 192.07,438.2969 C218.59,447.8969 242.0828,455.0102 269.3328,462.2802" fill="none" id="FR_Ext-to-UC_PROVIDE_CARBON_AUDIT" style="stroke:#181818;stroke-width:1;"/><polygon fill="#181818" points="275.13,463.8269,267.4652,457.6421,270.299,462.538,265.4031,465.3717,275.13,463.8269" style="stroke:#181818;stroke-width:1;"/></g><!--link FR_Ext to UC_PROVIDE_SAFETY_AUDIT--><g class="link" data-entity-1="FR_Ext" data-entity-2="UC_PROVIDE_SAFETY_AUDIT" data-source-line="33" data-uid="lnk21" id="link_FR_Ext_UC_PROVIDE_SAFETY_AUDIT"><path d="M156.51,387.2969 C176.65,387.2969 193.2,387.2969 215.98,387.2969" fill="none" id="FR_Ext-to-UC_PROVIDE_SAFETY_AUDIT" style="stroke:#181818;stroke-width:1;"/><polygon fill="#181818" points="221.98,387.2969,212.98,383.2969,216.98,387.2969,212.98,391.2969,221.98,387.2969" style="stroke:#181818;stroke-width:1;"/></g><!--link FR_Ext to UC_PROVIDE_REVENUE_AUDIT--><g class="link" data-entity-1="FR_Ext" data-entity-2="UC_PROVIDE_REVENUE_AUDIT" data-source-line="34" data-uid="lnk22" id="link_FR_Ext_UC_PROVIDE_REVENUE_AUDIT"><path d="M156.38,350.4269 C168.17,345.2869 180.34,340.3769 192.07,336.2969 C221.95,325.9069 249.5437,318.4462 279.6137,311.5062" fill="none" id="FR_Ext-to-UC_PROVIDE_REVENUE_AUDIT" style="stroke:#181818;stroke-width:1;"/><polygon fill="#181818" points="285.46,310.1569,275.791,308.2833,280.5881,311.2813,277.5901,316.0784,285.46,310.1569" style="stroke:#181818;stroke-width:1;"/></g><!--link FR_Ext to UC_COMPLY_OPEN_BANKING--><g class="link" data-entity-1="FR_Ext" data-entity-2="UC_COMPLY_OPEN_BANKING" data-source-line="35" data-uid="lnk23" id="link_FR_Ext_UC_COMPLY_OPEN_BANKING"><path d="M103.35,348.2569 C122.54,316.7169 153.61,273.5469 192.07,248.2969 C212.62,234.8069 230.9984,226.7255 254.8984,219.6255" fill="none" id="FR_Ext-to-UC_COMPLY_OPEN_BANKING" style="stroke:#181818;stroke-width:1;"/><polygon fill="#181818" points="260.65,217.9169,250.8836,216.6454,255.857,219.3407,253.1617,224.3142,260.65,217.9169" style="stroke:#181818;stroke-width:1;"/></g><!--link FR_Ext to UC_MAINTAIN_ISO_CARBON_CERT--><g class="link" data-entity-1="FR_Ext" data-entity-2="UC_MAINTAIN_ISO_CARBON_CERT" data-source-line="36" data-uid="lnk24" id="link_FR_Ext_UC_MAINTAIN_ISO_CARBON_CERT"><path d="M89.15,348.4869 C100.95,295.5069 129.75,201.2869 192.07,150.2969 C211.99,134.0069 231.1503,125.1042 256.2003,118.4642" fill="none" id="FR_Ext-to-UC_MAINTAIN_ISO_CARBON_CERT" style="stroke:#181818;stroke-width:1;"/><polygon fill="#181818" points="262,116.9269,252.2756,115.3664,257.1669,118.208,254.3253,123.0993,262,116.9269" style="stroke:#181818;stroke-width:1;"/></g><!--link FR_Ext to UC_UNDERGO_PEN_TESTS--><g class="link" data-entity-1="FR_Ext" data-entity-2="UC_UNDERGO_PEN_TESTS" data-source-line="37" data-uid="lnk25" id="link_FR_Ext_UC_UNDERGO_PEN_TESTS"><path d="M96.98,426.3469 C122.87,493.1569 174.93,623.6569 192.07,638.2969 C210.24,653.8069 227.1125,662.5893 250.1825,669.7893" fill="none" id="FR_Ext-to-UC_UNDERGO_PEN_TESTS" style="stroke:#181818;stroke-width:1;"/><polygon fill="#181818" points="255.91,671.5769,248.5104,665.0772,251.137,670.0873,246.127,672.7139,255.91,671.5769" style="stroke:#181818;stroke-width:1;"/></g><!--link FR_Ext to UC_ENFORCE_KSA_CCC--><g class="link" data-entity-1="FR_Ext" data-entity-2="UC_ENFORCE_KSA_CCC" data-source-line="38" data-uid="lnk26" id="link_FR_Ext_UC_ENFORCE_KSA_CCC"><path d="M101.27,426.3669 C119.95,460.3169 151.41,508.3069 192.07,536.2969 C210.87,549.2369 227.1772,557.042 249.2872,564.272" fill="none" id="FR_Ext-to-UC_ENFORCE_KSA_CCC" style="stroke:#181818;stroke-width:1;"/><polygon fill="#181818" points="254.99,566.1369,247.679,559.5377,250.2376,564.5828,245.1925,567.1415,254.99,566.1369" style="stroke:#181818;stroke-width:1;"/></g><!--link UC_SUBMIT_INCIDENT_REPORTS to NSMO_Ext--><g class="link" data-entity-1="UC_SUBMIT_INCIDENT_REPORTS" data-entity-2="NSMO_Ext" data-source-line="41" data-uid="lnk27" id="link_UC_SUBMIT_INCIDENT_REPORTS_NSMO_Ext"><path d="M482.73,807.8969 C519.63,816.1869 555.2158,824.1822 592.0858,832.4622" fill="none" id="UC_SUBMIT_INCIDENT_REPORTS-to-NSMO_Ext" style="stroke:#181818;stroke-width:1;"/><polygon fill="#181818" points="597.94,833.7769,590.0352,827.902,593.0615,832.6813,588.2822,835.7076,597.94,833.7769" style="stroke:#181818;stroke-width:1;"/></g><!--link UC_PUBLISH_OPEN_DATA to NSMO_Ext--><g class="link" data-entity-1="UC_PUBLISH_OPEN_DATA" data-entity-2="NSMO_Ext" data-source-line="42" data-uid="lnk28" id="link_UC_PUBLISH_OPEN_DATA_NSMO_Ext"><path d="M495.91,871.2969 C529.3,869.0269 559.4037,866.9916 591.9437,864.7916" fill="none" id="UC_PUBLISH_OPEN_DATA-to-NSMO_Ext" style="stroke:#181818;stroke-width:1;"/><polygon fill="#181818" points="597.93,864.3869,588.6807,861.0031,592.9414,864.7242,589.2203,868.9849,597.93,864.3869" style="stroke:#181818;stroke-width:1;"/></g><!--link UC_PROVIDE_RENEWABLE_CERT_DATA to SEC_Ext--><g class="link" data-entity-1="UC_PROVIDE_RENEWABLE_CERT_DATA" data-entity-2="SEC_Ext" data-source-line="45" data-uid="lnk29" id="link_UC_PROVIDE_RENEWABLE_CERT_DATA_SEC_Ext"><path d="M511.25,981.7469 C549.42,984.4569 583.785,986.8833 617.555,989.2733" fill="none" id="UC_PROVIDE_RENEWABLE_CERT_DATA-to-SEC_Ext" style="stroke:#181818;stroke-width:1;"/><polygon fill="#181818" points="623.54,989.6969,614.8448,985.0715,618.5525,989.3439,614.2801,993.0515,623.54,989.6969" style="stroke:#181818;stroke-width:1;"/></g><!--link UC_SELF_REPORT_ENERGY to SEC_Ext--><g class="link" data-entity-1="UC_SELF_REPORT_ENERGY" data-entity-2="SEC_Ext" data-source-line="46" data-uid="lnk30" id="link_UC_SELF_REPORT_ENERGY_SEC_Ext"><path d="M468.19,1045.7969 C516.93,1035.2969 570.6145,1023.7303 617.5045,1013.6303" fill="none" id="UC_SELF_REPORT_ENERGY-to-SEC_Ext" style="stroke:#181818;stroke-width:1;"/><polygon fill="#181818" points="623.37,1012.3669,613.7295,1010.3517,618.4821,1013.4197,615.4141,1018.1723,623.37,1012.3669" style="stroke:#181818;stroke-width:1;"/></g><!--reverse link UC_SETTLEMENT to PG_Ext--><g class="link" data-entity-1="UC_SETTLEMENT" data-entity-2="PG_Ext" data-source-line="49" data-uid="lnk31" id="link_UC_SETTLEMENT_PG_Ext"><path d="M513.98,1156.2969 C559.18,1156.2969 601.84,1156.2969 639.2,1156.2969" fill="none" id="UC_SETTLEMENT-backto-PG_Ext" style="stroke:#181818;stroke-width:1;"/><polygon fill="#181818" points="507.98,1156.2969,516.98,1160.2969,512.98,1156.2969,516.98,1152.2969,507.98,1156.2969" style="stroke:#181818;stroke-width:1;"/></g><!--link FOA_Int to UC_SETTLEMENT--><g class="link" data-entity-1="FOA_Int" data-entity-2="UC_SETTLEMENT" data-source-line="52" data-uid="lnk32" id="link_FOA_Int_UC_SETTLEMENT"><path d="M85.89,675.2569 C96.75,777.1669 130.86,1048.0069 192.07,1110.2969 C209,1127.5269 225.6021,1136.8929 248.8621,1144.0029" fill="none" id="FOA_Int-to-UC_SETTLEMENT" style="stroke:#181818;stroke-width:1;"/><polygon fill="#181818" points="254.6,1145.7569,247.1624,1139.3007,249.8184,1144.2953,244.8238,1146.9512,254.6,1145.7569" style="stroke:#181818;stroke-width:1;"/></g><!--link FOA_Int to UC_SUBMIT_INCIDENT_REPORTS--><g class="link" data-entity-1="FOA_Int" data-entity-2="UC_SUBMIT_INCIDENT_REPORTS" data-source-line="53" data-uid="lnk33" id="link_FOA_Int_UC_SUBMIT_INCIDENT_REPORTS"><path d="M116.9,675.0469 C137.06,695.3369 163.96,719.0569 192.07,734.2969 C213.85,746.1069 232.8723,753.5989 257.0223,760.6789" fill="none" id="FOA_Int-to-UC_SUBMIT_INCIDENT_REPORTS" style="stroke:#181818;stroke-width:1;"/><polygon fill="#181818" points="262.78,762.3669,255.2688,755.9965,257.9819,760.9602,253.0182,763.6734,262.78,762.3669" style="stroke:#181818;stroke-width:1;"/></g><!--link FOA_Int to UC_PROVIDE_CARBON_AUDIT--><g class="link" data-entity-1="FOA_Int" data-entity-2="UC_PROVIDE_CARBON_AUDIT" data-source-line="54" data-uid="lnk34" id="link_FOA_Int_UC_PROVIDE_CARBON_AUDIT"><path d="M116.25,597.1669 C136.41,576.3369 163.51,551.8669 192.07,536.2969 C214.08,524.2969 233.4417,516.7483 257.8917,509.7483" fill="none" id="FOA_Int-to-UC_PROVIDE_CARBON_AUDIT" style="stroke:#181818;stroke-width:1;"/><polygon fill="#181818" points="263.66,508.0969,253.9067,506.7285,258.8531,509.4731,256.1086,514.4195,263.66,508.0969" style="stroke:#181818;stroke-width:1;"/></g><!--link FOA_Int to UC_PROVIDE_SAFETY_AUDIT--><g class="link" data-entity-1="FOA_Int" data-entity-2="UC_PROVIDE_SAFETY_AUDIT" data-source-line="55" data-uid="lnk35" id="link_FOA_Int_UC_PROVIDE_SAFETY_AUDIT"><path d="M93.43,597.4869 C108.63,552.5369 139.86,479.4269 192.07,438.2969 C209.61,424.4769 224.9921,416.3362 246.4821,408.9962" fill="none" id="FOA_Int-to-UC_PROVIDE_SAFETY_AUDIT" style="stroke:#181818;stroke-width:1;"/><polygon fill="#181818" points="252.16,407.0569,242.3502,406.1806,247.4284,408.673,244.936,413.7512,252.16,407.0569" style="stroke:#181818;stroke-width:1;"/></g><!--link FOA_Int to UC_PROVIDE_REVENUE_AUDIT--><g class="link" data-entity-1="FOA_Int" data-entity-2="UC_PROVIDE_REVENUE_AUDIT" data-source-line="56" data-uid="lnk36" id="link_FOA_Int_UC_PROVIDE_REVENUE_AUDIT"><path d="M97.55,597.2969 C112.87,558.4369 136.75,496.9869 156.07,443.2969 C173.06,396.0869 155.04,370.1569 192.07,336.2969 C211.42,318.5969 230.8056,309.1863 256.2856,302.5163" fill="none" id="FOA_Int-to-UC_PROVIDE_REVENUE_AUDIT" style="stroke:#181818;stroke-width:1;"/><polygon fill="#181818" points="262.09,300.9969,252.3704,299.4064,257.253,302.2631,254.3963,307.1457,262.09,300.9969" style="stroke:#181818;stroke-width:1;"/></g><!--link FOA_Int to UC_PROVIDE_RENEWABLE_CERT_DATA--><g class="link" data-entity-1="FOA_Int" data-entity-2="UC_PROVIDE_RENEWABLE_CERT_DATA" data-source-line="57" data-uid="lnk37" id="link_FOA_Int_UC_PROVIDE_RENEWABLE_CERT_DATA"><path d="M85.72,675.2169 C93.7,737.2369 118.33,858.2069 192.07,924.2969 C209.12,939.5769 224.7486,948.2375 246.7686,955.4575" fill="none" id="FOA_Int-to-UC_PROVIDE_RENEWABLE_CERT_DATA" style="stroke:#181818;stroke-width:1;"/><polygon fill="#181818" points="252.47,957.3269,245.1642,950.7219,247.7189,955.7691,242.6717,958.3237,252.47,957.3269" style="stroke:#181818;stroke-width:1;"/></g><!--link FOA_Int to UC_COMPLY_OPEN_BANKING--><g class="link" data-entity-1="FOA_Int" data-entity-2="UC_COMPLY_OPEN_BANKING" data-source-line="58" data-uid="lnk38" id="link_FOA_Int_UC_COMPLY_OPEN_BANKING"><path d="M99.36,597.4669 C115.95,558.9869 140.65,498.0469 156.07,443.2969 C179.95,358.4669 132.24,313.0069 192.07,248.2969 C207.19,231.9469 221.4485,222.8218 242.5685,215.2918" fill="none" id="FOA_Int-to-UC_COMPLY_OPEN_BANKING" style="stroke:#181818;stroke-width:1;"/><polygon fill="#181818" points="248.22,213.2769,238.3994,212.5316,243.5104,214.956,241.086,220.067,248.22,213.2769" style="stroke:#181818;stroke-width:1;"/></g><!--link FOA_Int to UC_MAINTAIN_ISO_CARBON_CERT--><g class="link" data-entity-1="FOA_Int" data-entity-2="UC_MAINTAIN_ISO_CARBON_CERT" data-source-line="59" data-uid="lnk39" id="link_FOA_Int_UC_MAINTAIN_ISO_CARBON_CERT"><path d="M100.25,597.2869 C117.37,558.9369 142.36,498.3169 156.07,443.2969 C171.93,379.6469 148.37,199.2269 192.07,150.2969 C208.88,131.4669 226.4137,121.6098 250.7937,114.7598" fill="none" id="FOA_Int-to-UC_MAINTAIN_ISO_CARBON_CERT" style="stroke:#181818;stroke-width:1;"/><polygon fill="#181818" points="256.57,113.1369,246.8235,111.7204,251.7564,114.4893,248.9875,119.4222,256.57,113.1369" style="stroke:#181818;stroke-width:1;"/></g><!--link FOA_Int to UC_UNDERGO_PEN_TESTS--><g class="link" data-entity-1="FOA_Int" data-entity-2="UC_UNDERGO_PEN_TESTS" data-source-line="60" data-uid="lnk40" id="link_FOA_Int_UC_UNDERGO_PEN_TESTS"><path d="M137.96,645.8169 C174.32,652.0069 217.0252,659.2792 260.8152,666.7392" fill="none" id="FOA_Int-to-UC_UNDERGO_PEN_TESTS" style="stroke:#181818;stroke-width:1;"/><polygon fill="#181818" points="266.73,667.7469,258.5296,662.2922,261.801,666.9072,257.1861,670.1786,266.73,667.7469" style="stroke:#181818;stroke-width:1;"/></g><!--link FOA_Int to UC_ENFORCE_KSA_CCC--><g class="link" data-entity-1="FOA_Int" data-entity-2="UC_ENFORCE_KSA_CCC" data-source-line="61" data-uid="lnk41" id="link_FOA_Int_UC_ENFORCE_KSA_CCC"><path d="M137.96,626.9669 C170.41,621.5469 206.7019,615.495 246.5319,608.845" fill="none" id="FOA_Int-to-UC_ENFORCE_KSA_CCC" style="stroke:#181818;stroke-width:1;"/><polygon fill="#181818" points="252.45,607.8569,242.9142,605.3936,247.5183,608.6803,244.2316,613.2844,252.45,607.8569" style="stroke:#181818;stroke-width:1;"/></g><!--link FOA_Int to UC_PUBLISH_OPEN_DATA--><g class="link" data-entity-1="FOA_Int" data-entity-2="UC_PUBLISH_OPEN_DATA" data-source-line="62" data-uid="lnk42" id="link_FOA_Int_UC_PUBLISH_OPEN_DATA"><path d="M93.22,675.3869 C108.21,720.5969 139.24,793.9669 192.07,834.2969 C212.94,850.2269 232.8979,859.0686 258.4479,865.7986" fill="none" id="FOA_Int-to-UC_PUBLISH_OPEN_DATA" style="stroke:#181818;stroke-width:1;"/><polygon fill="#181818" points="264.25,867.3269,256.5657,861.1664,259.4149,866.0533,254.528,868.9025,264.25,867.3269" style="stroke:#181818;stroke-width:1;"/></g><!--link FOA_Int to UC_SELF_REPORT_ENERGY--><g class="link" data-entity-1="FOA_Int" data-entity-2="UC_SELF_REPORT_ENERGY" data-source-line="63" data-uid="lnk43" id="link_FOA_Int_UC_SELF_REPORT_ENERGY"><path d="M81.2,675.3469 C81.78,752.8169 94.61,926.5469 192.07,1020.2969 C210.04,1037.5869 227.7617,1046.9257 251.9017,1053.8357" fill="none" id="FOA_Int-to-UC_SELF_REPORT_ENERGY" style="stroke:#181818;stroke-width:1;"/><polygon fill="#181818" points="257.67,1055.4869,250.1183,1049.1646,252.8631,1054.1109,247.9167,1056.8557,257.67,1055.4869" style="stroke:#181818;stroke-width:1;"/></g><!--SRC=[XLLHZvj647xdLupk8RsJwgILgbQAgaeOhrqK6mZWLFU4rdXihmul5Yove2h_FRDmnbx0ZYLUlDzyE_FDDxDAg0mXEl92pIlC8AfBXSUFmBufB2JFm9KAzmLN8fSbl0CdFvuomMMAy3X3nKM6soVBod2dGELGYFr1mLOKcEe8gtmHyiGBVWIUgho8L4styLSiyoDU7Pvu-iBts1xhM2xt6LhMBvSyR1rVMWqDF0IyFg9KiE0ANtdz0Bo4O94G-epmcfGfiAbjiiet8XEg1d-t4oas0Lwqygz38kR01s0IYtqDTgKEUK4H3PIEhf5p8Hi9ta68-ohZEhK6DmyR62MkTHj9N8lidqgmwOYaReDyEo6uPNMLmyD5vryfbQrGGkxfkawE44zveVzyWFyje5zLOifBYWoAFCMoX1drfeOsKw5rG4MjrgerbwwT969nl6GhviKcGrHjZa9f1VB90aaE4dbB1QLYgpLlhouxblLqvSQ9wpdkZAYIa0L-64U3fBvID3YysEGIvdckJeKWiXbN77QaJ5FacJC8_I_4bZXsEFMzn5xFt7YSCE8xfAvUsV8-OsJFMVnyZp74hoYhd_64x0lprkm-aIHlRgYRRvPoi53l6zuXcyV-iwTBgfY5SJApOzlaREghuLMe0qJsoWR_X1AcNBveNzY1sxN3yLV1yZdn0-ObKzlxv7eBash5INVwm8ry-FsFt_xygqbCq5Wq8tCcMjck5zEN4ExS29sToRQMMwejXyyLJHaMb6D0PQjsOK2CvSKeQs_6meMVwCnY5lKjmYI9JVtx5DdWP7cr1QVUO477bHv3Qh5KHPvrTCoR-w734i8dZkFqUb1jCb4UMfcQJZxgoVlGTkAfqtyzNRhHlwrQGzKZp7QJrkx0CXhEGgGwbIYlTAOhyUqoIilvc_CfCIhpsVgkjy3OecXN0q_RbJg1BUw4f07ZE_hxilrWa-NfYzLk59XC_hav6ECGm-dZ4DF49cRCHoRYfa5CsB3jvdc_ZwJQ_Trjw6VTta3D1TsE7-ksYQ2Bnr-0mOLtnhQXFByMeyOm47HdxoaRLjTjQVXxCZc_SjfRvbC2ZzsJGsE2SEIIx_LsK0SaCv_QPm7B9-ljlJatuEePw9_SMEqzsBWfnp6cAySnFLlU0WrNPWywQc4JSjl39cx4n2QWx-9-reD5CsX2toS_0000]--></g></svg>