<svg xmlns="http://www.w3.org/2000/svg" xmlns:xlink="http://www.w3.org/1999/xlink" contentStyleType="text/css" data-diagram-type="DESCRIPTION" height="689.0625px" preserveAspectRatio="none" style="width:810px;height:689px;background:#FFFFFF;" version="1.1" viewBox="0 0 810 689" width="810.9375px" zoomAndPan="magnify"><title>&#171;system&#187; SmartFuel Station - Simplified System Context</title><defs/><g><g class="title" data-source-line="1"><text fill="#000000" font-family="sans-serif" font-size="21.875" font-weight="bold" lengthAdjust="spacing" textLength="700.2029" x="45.191" y="35.9299">&#171;system&#187; SmartFuel Station - Simplified System Context</text></g><!--entity Station--><g class="entity" data-entity="Station" data-source-line="14" data-uid="ent0002" id="entity_Station"><rect fill="#EAF6FF" height="56.7139" rx="11.7188" ry="11.7188" style="stroke:#003366;stroke-width:0.7813;" width="340.9286" x="462.1562" y="347.3389"/><text fill="#000000" font-family="sans-serif" font-size="21.875" lengthAdjust="spacing" textLength="309.6786" x="477.7812" y="383.2687">&#171;system&#187; SmartFuel Station</text></g><!--entity AVU--><g class="entity" data-entity="AVU" data-source-line="17" data-uid="ent0003" id="entity_AVU"><rect fill="#EAF6FF" height="56.7139" rx="11.7188" ry="11.7188" style="stroke:#003366;stroke-width:0.7813;" width="291.1972" x="44.0781" y="69.2139"/><text fill="#000000" font-family="sans-serif" font-size="21.875" lengthAdjust="spacing" textLength="259.9472" x="59.7031" y="105.1437">&#171;system&#187; Vehicle / AVU</text></g><!--entity Dispenser--><g class="entity" data-entity="Dispenser" data-source-line="18" data-uid="ent0004" id="entity_Dispenser"><rect fill="#EAF6FF" height="56.7139" rx="11.7188" ry="11.7188" style="stroke:#003366;stroke-width:0.7813;" width="304.9118" x="37.2188" y="180.1514"/><text fill="#000000" font-family="sans-serif" font-size="21.875" lengthAdjust="spacing" textLength="273.6618" x="52.8438" y="216.0812">&#171;system&#187; Dispenser Unit</text></g><!--entity Arm--><g class="entity" data-entity="Arm" data-source-line="19" data-uid="ent0005" id="entity_Arm"><rect fill="#EAF6FF" height="56.7139" rx="11.7188" ry="11.7188" style="stroke:#003366;stroke-width:0.7813;" width="278.8071" x="50.2656" y="291.0889"/><text fill="#000000" font-family="sans-serif" font-size="21.875" lengthAdjust="spacing" textLength="247.5571" x="65.8906" y="327.0187">&#171;system&#187; Robotic Arm</text></g><!--entity Edge--><g class="entity" data-entity="Edge" data-source-line="20" data-uid="ent0006" id="entity_Edge"><rect fill="#EAF6FF" height="56.7139" rx="11.7188" ry="11.7188" style="stroke:#003366;stroke-width:0.7813;" width="314.1403" x="32.6094" y="402.0264"/><text fill="#000000" font-family="sans-serif" font-size="21.875" lengthAdjust="spacing" textLength="282.8903" x="48.2344" y="437.9562">&#171;system&#187; Edge Controller</text></g><!--entity TankSensors--><g class="entity" data-entity="TankSensors" data-source-line="21" data-uid="ent0007" id="entity_TankSensors"><rect fill="#EAF6FF" height="56.7139" rx="11.7188" ry="11.7188" style="stroke:#003366;stroke-width:0.7813;" width="343.6203" x="17.8594" y="512.9639"/><text fill="#000000" font-family="sans-serif" font-size="21.875" lengthAdjust="spacing" textLength="312.3703" x="33.4844" y="548.8937">&#171;system&#187; Fuel Tank Sensors</text></g><!--entity Backend--><g class="entity" data-entity="Backend" data-source-line="22" data-uid="ent0008" id="entity_Backend"><rect fill="#EAF6FF" height="56.7139" rx="11.7188" ry="11.7188" style="stroke:#003366;stroke-width:0.7813;" width="357.4738" x="10.9375" y="623.9014"/><text fill="#000000" font-family="sans-serif" font-size="21.875" lengthAdjust="spacing" textLength="326.2238" x="26.5625" y="659.8312">&#171;system&#187; SmartFuel Backend</text></g><!--link AVU to Station--><g class="link" data-entity-1="AVU" data-entity-2="Station" data-source-line="25" data-uid="lnk9" id="link_AVU_Station"><path d="M309.3125,126.6514 C329.625,133.7139 350.0625,142.1982 368.4063,152.2607 C466.0156,205.8545 554.0197,292.6925 598.3634,339.9112" fill="none" id="AVU-to-Station" style="stroke:#181818;stroke-width:1.5625;"/><polygon fill="#181818" points="604.7813,346.7451,599.7105,332.2157,599.4331,341.0502,590.5986,340.7728,604.7813,346.7451" style="stroke:#181818;stroke-width:1.5625;"/></g><!--link Dispenser to Station--><g class="link" data-entity-1="Dispenser" data-entity-2="Station" data-source-line="26" data-uid="lnk10" id="link_Dispenser_Station"><path d="M292.1094,237.6357 C317.2031,245.4326 343.9375,254.2139 368.4063,263.1982 C438.0312,288.7764 507.3682,318.9669 560.1182,342.8888" fill="none" id="Dispenser-to-Station" style="stroke:#181818;stroke-width:1.5625;"/><polygon fill="#181818" points="568.6563,346.7607,558.4305,335.2607,561.5412,343.5341,553.2678,346.6448,568.6563,346.7607" style="stroke:#181818;stroke-width:1.5625;"/></g><!--link Arm to Station--><g class="link" data-entity-1="Arm" data-entity-2="Station" data-source-line="27" data-uid="lnk11" id="link_Arm_Station"><path d="M329.7969,337.167 C371.5938,342.5107 408.654,347.2579 452.2321,352.8361" fill="none" id="Arm-to-Station" style="stroke:#181818;stroke-width:1.5625;"/><polygon fill="#181818" points="461.5313,354.0264,448.3761,346.0415,453.782,353.0344,446.789,358.4403,461.5313,354.0264" style="stroke:#181818;stroke-width:1.5625;"/></g><!--link Edge to Station--><g class="link" data-entity-1="Edge" data-entity-2="Station" data-source-line="28" data-uid="lnk12" id="link_Edge_Station"><path d="M346.9219,411.0264 C383.9844,406.417 414.4155,402.6371 452.0874,397.9496" fill="none" id="Edge-to-Station" style="stroke:#181818;stroke-width:1.5625;"/><polygon fill="#181818" points="461.3906,396.792,446.664,392.3262,453.6379,397.7567,448.2075,404.7306,461.3906,396.792" style="stroke:#181818;stroke-width:1.5625;"/></g><!--link TankSensors to Station--><g class="link" data-entity-1="TankSensors" data-entity-2="Station" data-source-line="29" data-uid="lnk13" id="link_TankSensors_Station"><path d="M291.6094,512.2607 C316.8438,504.4326 343.7656,495.6201 368.4063,486.6357 C437.4688,461.4639 506.2351,431.9863 558.9851,408.4551" fill="none" id="TankSensors-to-Station" style="stroke:#181818;stroke-width:1.5625;"/><polygon fill="#181818" points="567.5469,404.6357,552.158,404.6569,560.4121,407.8185,557.2505,416.0725,567.5469,404.6357" style="stroke:#181818;stroke-width:1.5625;"/></g><!--link Backend to Station--><g class="link" data-entity-1="Backend" data-entity-2="Station" data-source-line="30" data-uid="lnk14" id="link_Backend_Station"><path d="M309.2813,623.1201 C329.5938,616.0889 350.0469,607.6201 368.4063,597.5732 C465.8281,544.3076 553.8806,458.1292 598.2869,411.2542" fill="none" id="Backend-to-Station" style="stroke:#181818;stroke-width:1.5625;"/><polygon fill="#181818" points="604.7344,404.4482,590.5259,410.3588,599.3615,410.1198,599.6004,418.9555,604.7344,404.4482" style="stroke:#181818;stroke-width:1.5625;"/></g><!--SRC=[XL91Ri8m4Bpx5Qlsq1Cg5Ih7IfIIKqy4k9ja4omSErflL53L5_K9lV6osauAeLBQYsDFTiOxisR56k7qwOwEiJfzGLf9ugH13IbBLjR0259LrLeL2dD8OntChM4yi11khqmjILP0cB4qfLTx5m3FCjkNP1kJpwss1BUBMJ9Dal37KexKeUFnP3ATUZJnWYssrPxgaMLB9eC43u_YetTLZeLiDAzy1pEjIbEXOSZyWjIlgfKdZeN6We4ja2ft3BaAZNfVGjp1F7AWDIyk3cx-2kG6fFlP1v75mMiOgJiPDw2pmPtAF7OFiyqwQlZlGEsBSZKQvrjR6yMn-0mDK9PsQrbbCAEg5QSXGukyn3X0ibeZnUg03PH7wojfzf3w-osvI0X0T_utj_0MqEIHr-r3Rg_oQ1i6IMJV71HaAy1VKOQnyGwxsO8r-YXyQZ0QFPqdSCcgZthxL-TekW_q35pXNODzx1i0]--></g></svg>