<svg xmlns="http://www.w3.org/2000/svg" xmlns:xlink="http://www.w3.org/1999/xlink" contentStyleType="text/css" data-diagram-type="DESCRIPTION" height="689.0625px" preserveAspectRatio="none" style="width:943px;height:689px;background:#FFFFFF;" version="1.1" viewBox="0 0 943 689" width="943.75px" zoomAndPan="magnify"><title>&#171;system&#187; SmartFuel Backend - System Context</title><defs/><g><g class="title" data-source-line="1"><text fill="#000000" font-family="sans-serif" font-size="21.875" font-weight="bold" lengthAdjust="spacing" textLength="583.8638" x="169.5237" y="35.9299">&#171;system&#187; SmartFuel Backend - System Context</text></g><!--entity Backend--><g class="entity" data-entity="Backend" data-source-line="14" data-uid="ent0002" id="entity_Backend"><rect fill="#E6FFEB" height="56.7139" rx="11.7188" ry="11.7188" style="stroke:#00713D;stroke-width:0.7813;" width="357.4738" x="577.9375" y="347.3389"/><text fill="#000000" font-family="sans-serif" font-size="21.875" lengthAdjust="spacing" textLength="326.2238" x="593.5625" y="383.2687">&#171;system&#187; SmartFuel Backend</text></g><!--entity Station--><g class="entity" data-entity="Station" data-source-line="17" data-uid="ent0003" id="entity_Station"><rect fill="#E6FFEB" height="56.7139" rx="11.7188" ry="11.7188" style="stroke:#00713D;stroke-width:0.7813;" width="352.3254" x="71.4063" y="69.2139"/><text fill="#000000" font-family="sans-serif" font-size="21.875" lengthAdjust="spacing" textLength="321.0754" x="87.0313" y="105.1437">&#171;system&#187; SmartFuel Stations</text></g><!--entity Payment--><g class="entity" data-entity="Payment" data-source-line="18" data-uid="ent0004" id="entity_Payment"><rect fill="#E6FFEB" height="56.7139" rx="11.7188" ry="11.7188" style="stroke:#00713D;stroke-width:0.7813;" width="344.3893" x="75.375" y="180.1514"/><text fill="#000000" font-family="sans-serif" font-size="21.875" lengthAdjust="spacing" textLength="313.1393" x="91" y="216.0812">&#171;system&#187; Payment Gateway</text></g><!--entity GACA--><g class="entity" data-entity="GACA" data-source-line="19" data-uid="ent0005" id="entity_GACA"><rect fill="#E6FFEB" height="56.7139" rx="11.7188" ry="11.7188" style="stroke:#00713D;stroke-width:0.7813;" width="321.2646" x="86.9375" y="291.0889"/><text fill="#000000" font-family="sans-serif" font-size="21.875" lengthAdjust="spacing" textLength="290.0146" x="102.5625" y="327.0187">&#171;system&#187; GACA Drone API</text></g><!--entity SEC--><g class="entity" data-entity="SEC" data-source-line="20" data-uid="ent0006" id="entity_SEC"><rect fill="#E6FFEB" height="56.7139" rx="11.7188" ry="11.7188" style="stroke:#00713D;stroke-width:0.7813;" width="326.8402" x="84.1406" y="402.0264"/><text fill="#000000" font-family="sans-serif" font-size="21.875" lengthAdjust="spacing" textLength="295.5902" x="99.7656" y="437.9562">&#171;system&#187; SEC / Energy API</text></g><!--entity NSMO--><g class="entity" data-entity="NSMO" data-source-line="21" data-uid="ent0007" id="entity_NSMO"><rect fill="#E6FFEB" height="56.7139" rx="11.7188" ry="11.7188" style="stroke:#00713D;stroke-width:0.7813;" width="473.2574" x="10.9375" y="512.9639"/><text fill="#000000" font-family="sans-serif" font-size="21.875" lengthAdjust="spacing" textLength="442.0074" x="26.5625" y="548.8937">&#171;system&#187; National Smart-Mobility Office</text></g><!--entity Traffic--><g class="entity" data-entity="Traffic" data-source-line="22" data-uid="ent0008" id="entity_Traffic"><rect fill="#E6FFEB" height="56.7139" rx="11.7188" ry="11.7188" style="stroke:#00713D;stroke-width:0.7813;" width="384.7641" x="55.1875" y="623.9014"/><text fill="#000000" font-family="sans-serif" font-size="21.875" lengthAdjust="spacing" textLength="353.5141" x="70.8125" y="659.8312">&#171;system&#187; Municipal Traffic Feed</text></g><!--link Station to Backend--><g class="link" data-entity-1="Station" data-entity-2="Backend" data-source-line="25" data-uid="lnk9" id="link_Station_Backend"><path d="M417.4844,126.6982 C440.5,133.5576 463.3438,141.9639 484.1875,152.2607 C586.4063,202.792 677.4268,291.8791 722.5362,339.926" fill="none" id="Station-to-Backend" style="stroke:#181818;stroke-width:1.5625;"/><polygon fill="#181818" points="728.9531,346.7607,723.8843,332.2307,723.6057,341.0651,714.7713,340.7865,728.9531,346.7607" style="stroke:#181818;stroke-width:1.5625;"/></g><!--link Payment to Backend--><g class="link" data-entity-1="Payment" data-entity-2="Backend" data-source-line="26" data-uid="lnk10" id="link_Payment_Backend"><path d="M391.25,237.5889 C422.1563,245.0264 454.4844,253.6514 484.1875,263.1982 C557.6563,286.8232 630.5147,318.0008 684.7335,342.6883" fill="none" id="Payment-to-Backend" style="stroke:#181818;stroke-width:1.5625;"/><polygon fill="#181818" points="693.2656,346.5732,683.0574,335.0577,686.1555,343.3358,677.8774,346.4339,693.2656,346.5732" style="stroke:#181818;stroke-width:1.5625;"/></g><!--link GACA to Backend--><g class="link" data-entity-1="GACA" data-entity-2="Backend" data-source-line="27" data-uid="lnk11" id="link_GACA_Backend"><path d="M408.5313,337.167 C462.2656,343.1514 513.2447,348.8204 568.2916,354.9297" fill="none" id="GACA-to-Backend" style="stroke:#181818;stroke-width:1.5625;"/><polygon fill="#181818" points="577.6094,355.9639,564.3221,348.2008,569.8446,355.1021,562.9433,360.6245,577.6094,355.9639" style="stroke:#181818;stroke-width:1.5625;"/></g><!--link SEC to Backend--><g class="link" data-entity-1="SEC" data-entity-2="Backend" data-source-line="28" data-uid="lnk12" id="link_SEC_Backend"><path d="M411.3125,412.8545 C464.2188,407.1357 513.8979,401.767 567.8823,395.9389" fill="none" id="SEC-to-Backend" style="stroke:#181818;stroke-width:1.5625;"/><polygon fill="#181818" points="577.2031,394.9326,562.551,390.2281,569.4358,395.7712,563.8927,402.6559,577.2031,394.9326" style="stroke:#181818;stroke-width:1.5625;"/></g><!--link NSMO to Backend--><g class="link" data-entity-1="NSMO" data-entity-2="Backend" data-source-line="29" data-uid="lnk13" id="link_NSMO_Backend"><path d="M390.5938,512.2764 C421.6875,504.8232 454.25,496.1826 484.1875,486.6357 C557.3125,463.3232 629.8818,432.7499 684.1162,408.453" fill="none" id="NSMO-to-Backend" style="stroke:#181818;stroke-width:1.5625;"/><polygon fill="#181818" points="692.6719,404.6201,677.2831,404.6657,685.5422,407.8142,682.3937,416.0733,692.6719,404.6201" style="stroke:#181818;stroke-width:1.5625;"/></g><!--link Traffic to Backend--><g class="link" data-entity-1="Traffic" data-entity-2="Backend" data-source-line="30" data-uid="lnk14" id="link_Traffic_Backend"><path d="M416.8281,623.2607 C440.0469,616.3857 463.1406,607.9326 484.1875,597.5732 C586.2031,547.3701 677.2872,458.9263 722.4591,411.2388" fill="none" id="Traffic-to-Backend" style="stroke:#181818;stroke-width:1.5625;"/><polygon fill="#181818" points="728.9063,404.4326,714.698,410.3438,723.5336,410.1045,723.773,418.9401,728.9063,404.4326" style="stroke:#181818;stroke-width:1.5625;"/></g><!--SRC=[XP5DReCm48Ntd6AKBhf2JLIrtLKY1A8kygEI2pWmK2l6ZWQZ15KzKO_GNKvMsq1A5xGRX3_FUxnvQAu5mkMpQYgDvUKBafAHZciKC6Vf0MK6FYJk4a8bDPwrvrK7Be-CM0c4gMQoC1Rl7ZX5GQgMMQY48hY97kCucjiRHHbIHwVJfzdzmj3O6BPiBupKaDTMJ189PW_Un-1J6UQi5dfd4WI25x94gI4r3wJXr94RuTGJc6lG2eWNRneoReDo9Jtl5aAdWNPZxsU3oLyjJ81L_RirYSx6Gp81t9enOowBphBwrpFHp8Qfd6bt615jMUCMNJAD9zOuHST65CiW3611IY84snSdi6WiL1J27KIcxwAvpXiuChvsMStQRXb_fVPSSDt09izvYawyJbQR4VMgbZpbHoFV4RCAY17RQZjWgms8rAaonPuOPVOVzhLtJO7lFrzPty-GkGQ6m2uvFDk8lq0VPy2-0G00]--></g></svg>