<svg xmlns="http://www.w3.org/2000/svg" xmlns:xlink="http://www.w3.org/1999/xlink" contentStyleType="text/css" data-diagram-type="STATE" height="1764px" preserveAspectRatio="none" style="width:1175px;height:1764px;background:#FFFFFF;" version="1.1" viewBox="0 0 1175 1764" width="1175px" zoomAndPan="magnify"><title>SmartFuel Sy:contentReference[oaicite:2]{index=2}&#9472;&#9472;&#9472;&#9472;&#9472;&#9472;&#9472;&#9472;&#9472;&#9472;&#9472;&#9472;&#9472;&#9472;&#9472;&#9472;&#9472;&#9472;&#9472;&#9472;&#9472;&#9472;</title><defs/><g><g class="title" data-source-line="1"><text fill="#000000" font-family="sans-serif" font-size="14" font-weight="bold" lengthAdjust="spacing" textLength="603.4082" x="275.7959" y="22.9951">SmartFuel Sy:contentReference[oaicite:2]{index=2}&#9472;&#9472;&#9472;&#9472;&#9472;&#9472;&#9472;&#9472;&#9472;&#9472;&#9472;&#9472;&#9472;&#9472;&#9472;&#9472;&#9472;&#9472;&#9472;&#9472;&#9472;&#9472;</text></g><!--cluster Normal_Operation--><g class="cluster" data-entity="Normal_Operation" data-source-line="9" data-uid="ent0002" id="cluster_Normal_Operation"><path d="M19.5,534.5969 L515.5,534.5969 A12.5,12.5 0 0 1 528,547.0969 L528,555.8938 L7,555.8938 L7,547.0969 A12.5,12.5 0 0 1 19.5,534.5969" fill="#F1F1F1" style="stroke:#F1F1F1;stroke-width:1;"/><rect fill="none" height="1224" rx="12.5" ry="12.5" style="stroke:#181818;stroke-width:0.5;" width="521" x="7" y="534.5969"/><line style="stroke:#181818;stroke-width:0.5;" x1="7" x2="528" y1="555.8938" y2="555.8938"/><text fill="#000000" font-family="sans-serif" font-size="14" lengthAdjust="spacing" textLength="127.5723" x="203.7139" y="551.592">Normal_Operation</text></g><!--cluster Incident--><g class="cluster" data-entity="Incident" data-source-line="34" data-uid="ent0004" id="cluster_Incident"><path d="M580.5,698.5969 L790.5,698.5969 A12.5,12.5 0 0 1 803,711.0969 L803,719.8938 L568,719.8938 L568,711.0969 A12.5,12.5 0 0 1 580.5,698.5969" fill="#F1F1F1" style="stroke:#F1F1F1;stroke-width:1;"/><rect fill="none" height="407" rx="12.5" ry="12.5" style="stroke:#181818;stroke-width:0.5;" width="235" x="568" y="698.5969"/><line style="stroke:#181818;stroke-width:0.5;" x1="568" x2="803" y1="719.8938" y2="719.8938"/><text fill="#000000" font-family="sans-serif" font-size="14" lengthAdjust="spacing" textLength="56.4512" x="657.2744" y="715.592">Incident</text></g><!--cluster Isolated_Mode--><g class="cluster" data-entity="Isolated_Mode" data-source-line="40" data-uid="ent0005" id="cluster_Isolated_Mode"><path d="M980.5,549.5969 L1149.5,549.5969 A12.5,12.5 0 0 1 1162,562.0969 L1162,570.8938 L968,570.8938 L968,562.0969 A12.5,12.5 0 0 1 980.5,549.5969" fill="#F1F1F1" style="stroke:#F1F1F1;stroke-width:1;"/><rect fill="none" height="378" rx="12.5" ry="12.5" style="stroke:#181818;stroke-width:0.5;" width="194" x="968" y="549.5969"/><line style="stroke:#181818;stroke-width:0.5;" x1="968" x2="1162" y1="570.8938" y2="570.8938"/><text fill="#000000" font-family="sans-serif" font-size="14" lengthAdjust="spacing" textLength="100.5908" x="1014.7046" y="566.592">Isolated_Mode</text></g><ellipse cx="375" cy="1455.5969" fill="#222222" rx="10" ry="10" style="stroke:#222222;stroke-width:1;"/><g id="Normal_Operation.Idle"><rect fill="#F1F1F1" height="50" rx="12.5" ry="12.5" style="stroke:#181818;stroke-width:0.5;" width="50" x="261" y="1557.5969"/><line style="stroke:#181818;stroke-width:0.5;" x1="261" x2="311" y1="1583.8938" y2="1583.8938"/><text fill="#000000" font-family="sans-serif" font-size="14" lengthAdjust="spacing" textLength="25.5186" x="273.2407" y="1575.592">Idle</text></g><g id="Normal_Operation.Vehicle_Approach"><rect fill="#F1F1F1" height="50" rx="12.5" ry="12.5" style="stroke:#181818;stroke-width:0.5;" width="144.9746" x="30.51" y="1684.5969"/><line style="stroke:#181818;stroke-width:0.5;" x1="30.51" x2="175.4846" y1="1710.8938" y2="1710.8938"/><text fill="#000000" font-family="sans-serif" font-size="14" lengthAdjust="spacing" textLength="124.9746" x="40.51" y="1702.592">Vehicle_Approach</text></g><g id="Normal_Operation.Identify_Vehicle"><rect fill="#F1F1F1" height="50" rx="12.5" ry="12.5" style="stroke:#181818;stroke-width:0.5;" width="131.248" x="203.38" y="577.5969"/><line style="stroke:#181818;stroke-width:0.5;" x1="203.38" x2="334.628" y1="603.8938" y2="603.8938"/><text fill="#000000" font-family="sans-serif" font-size="14" lengthAdjust="spacing" textLength="111.248" x="213.38" y="595.592">Identify_Vehicle</text></g><g id="Normal_Operation.Authenticate"><rect fill="#F1F1F1" height="50" rx="12.5" ry="12.5" style="stroke:#181818;stroke-width:0.5;" width="110.0566" x="213.97" y="726.5969"/><line style="stroke:#181818;stroke-width:0.5;" x1="213.97" x2="324.0266" y1="752.8938" y2="752.8938"/><text fill="#000000" font-family="sans-serif" font-size="14" lengthAdjust="spacing" textLength="90.0566" x="223.97" y="744.592">Authenticate</text></g><g id="Normal_Operation.AuthOK"><rect fill="#F1F1F1" height="50" rx="12.5" ry="12.5" style="stroke:#181818;stroke-width:0.5;" width="73.0127" x="299.49" y="853.5969"/><line style="stroke:#181818;stroke-width:0.5;" x1="299.49" x2="372.5027" y1="879.8938" y2="879.8938"/><text fill="#000000" font-family="sans-serif" font-size="14" lengthAdjust="spacing" textLength="53.0127" x="309.49" y="871.592">AuthOK</text></g><g id="Normal_Operation.AuthFail"><rect fill="#F1F1F1" height="50" rx="12.5" ry="12.5" style="stroke:#181818;stroke-width:0.5;" width="77.2236" x="165.39" y="951.5969"/><line style="stroke:#181818;stroke-width:0.5;" x1="165.39" x2="242.6136" y1="977.8938" y2="977.8938"/><text fill="#000000" font-family="sans-serif" font-size="14" lengthAdjust="spacing" textLength="57.2236" x="175.39" y="969.592">AuthFail</text></g><g id="Normal_Operation.Dispensing"><rect fill="#F1F1F1" height="50" rx="12.5" ry="12.5" style="stroke:#181818;stroke-width:0.5;" width="97.2803" x="287.36" y="1031.5969"/><line style="stroke:#181818;stroke-width:0.5;" x1="287.36" x2="384.6403" y1="1057.8938" y2="1057.8938"/><text fill="#000000" font-family="sans-serif" font-size="14" lengthAdjust="spacing" textLength="77.2803" x="297.36" y="1049.592">Dispensing</text></g><g id="Normal_Operation.Payment_Processing"><rect fill="#F1F1F1" height="50" rx="12.5" ry="12.5" style="stroke:#181818;stroke-width:0.5;" width="164.2314" x="253.88" y="1176.5969"/><line style="stroke:#181818;stroke-width:0.5;" x1="253.88" x2="418.1114" y1="1202.8938" y2="1202.8938"/><text fill="#000000" font-family="sans-serif" font-size="14" lengthAdjust="spacing" textLength="144.2314" x="263.88" y="1194.592">Payment_Processing</text></g><g id="Normal_Operation.Receipt"><rect fill="#F1F1F1" height="50" rx="12.5" ry="12.5" style="stroke:#181818;stroke-width:0.5;" width="72.917" x="250.54" y="1303.5969"/><line style="stroke:#181818;stroke-width:0.5;" x1="250.54" x2="323.457" y1="1329.8938" y2="1329.8938"/><text fill="#000000" font-family="sans-serif" font-size="14" lengthAdjust="spacing" textLength="52.917" x="260.54" y="1321.592">Receipt</text></g><g id="Normal_Operation.Payment_Failed"><rect fill="#F1F1F1" height="50" rx="12.5" ry="12.5" style="stroke:#181818;stroke-width:0.5;" width="130.8311" x="359.58" y="1303.5969"/><line style="stroke:#181818;stroke-width:0.5;" x1="359.58" x2="490.4111" y1="1329.8938" y2="1329.8938"/><text fill="#000000" font-family="sans-serif" font-size="14" lengthAdjust="spacing" textLength="110.8311" x="369.58" y="1321.592">Payment_Failed</text></g><g id="Normal_Operation.Complete"><rect fill="#F1F1F1" height="50" rx="12.5" ry="12.5" style="stroke:#181818;stroke-width:0.5;" width="87.4707" x="242.26" y="1430.5969"/><line style="stroke:#181818;stroke-width:0.5;" x1="242.26" x2="329.7307" y1="1456.8938" y2="1456.8938"/><text fill="#000000" font-family="sans-serif" font-size="14" lengthAdjust="spacing" textLength="67.4707" x="252.26" y="1448.592">Complete</text></g><ellipse cx="635" cy="751.5969" fill="#222222" rx="10" ry="10" style="stroke:#222222;stroke-width:1;"/><g id="Incident.Safety_Incident"><rect fill="#F1F1F1" height="50" rx="12.5" ry="12.5" style="stroke:#181818;stroke-width:0.5;" width="128.2334" x="601.88" y="853.5969"/><line style="stroke:#181818;stroke-width:0.5;" x1="601.88" x2="730.1134" y1="879.8938" y2="879.8938"/><text fill="#000000" font-family="sans-serif" font-size="14" lengthAdjust="spacing" textLength="108.2334" x="611.88" y="871.592">Safety_Incident</text></g><g id="Incident.Incident_Logged"><rect fill="#F1F1F1" height="50" rx="12.5" ry="12.5" style="stroke:#181818;stroke-width:0.5;" width="135.0898" x="600.46" y="1031.5969"/><line style="stroke:#181818;stroke-width:0.5;" x1="600.46" x2="735.5498" y1="1057.8938" y2="1057.8938"/><text fill="#000000" font-family="sans-serif" font-size="14" lengthAdjust="spacing" textLength="115.0898" x="610.46" y="1049.592">Incident_Logged</text></g><ellipse cx="1035" cy="602.5969" fill="#222222" rx="10" ry="10" style="stroke:#222222;stroke-width:1;"/><g id="Isolated_Mode.Edge_Isolated"><rect fill="#F1F1F1" height="50" rx="12.5" ry="12.5" style="stroke:#181818;stroke-width:0.5;" width="117.6787" x="1000.16" y="726.5969"/><line style="stroke:#181818;stroke-width:0.5;" x1="1000.16" x2="1117.8387" y1="752.8938" y2="752.8938"/><text fill="#000000" font-family="sans-serif" font-size="14" lengthAdjust="spacing" textLength="97.6787" x="1010.16" y="744.592">Edge_Isolated</text></g><g id="Isolated_Mode.Sync_Pending"><rect fill="#F1F1F1" height="50" rx="12.5" ry="12.5" style="stroke:#181818;stroke-width:0.5;" width="117.207" x="1000.4" y="853.5969"/><line style="stroke:#181818;stroke-width:0.5;" x1="1000.4" x2="1117.607" y1="879.8938" y2="879.8938"/><text fill="#000000" font-family="sans-serif" font-size="14" lengthAdjust="spacing" textLength="97.207" x="1010.4" y="871.592">Sync_Pending</text></g><path d="M154.97,44.2969 L365.0204,44.2969 A12.5,12.5 0 0 1 377.5204,56.7969 L377.5204,70.5938 L142.47,70.5938 L142.47,56.7969 A12.5,12.5 0 0 1 154.97,44.2969" fill="#F1F1F1" style="stroke:#F1F1F1;stroke-width:1;"/><rect fill="none" height="419.2969" rx="12.5" ry="12.5" style="stroke:#181818;stroke-width:0.5;" width="235.0504" x="142.47" y="44.2969"/><line style="stroke:#181818;stroke-width:0.5;" x1="142.47" x2="377.5204" y1="70.5938" y2="70.5938"/><text fill="#000000" font-family="sans-serif" font-size="14" lengthAdjust="spacing" textLength="90.1592" x="214.9156" y="62.292">Maintenance</text><ellipse cx="249.66" cy="91.5938" fill="#222222" rx="10" ry="10" style="stroke:#222222;stroke-width:1;"/><g id="Maintenance.Scheduled_Maintenance"><rect fill="#F1F1F1" height="50" rx="12.5" ry="12.5" style="stroke:#181818;stroke-width:0.5;" width="190.3789" x="154.47" y="154.5938"/><line style="stroke:#181818;stroke-width:0.5;" x1="154.47" x2="344.8489" y1="180.8906" y2="180.8906"/><text fill="#000000" font-family="sans-serif" font-size="14" lengthAdjust="spacing" textLength="170.3789" x="164.47" y="172.5889">Scheduled_Maintenance</text></g><g id="Maintenance.Diagnostics"><rect fill="#F1F1F1" height="50" rx="12.5" ry="12.5" style="stroke:#181818;stroke-width:0.5;" width="101.2383" x="199.04" y="241.5938"/><line style="stroke:#181818;stroke-width:0.5;" x1="199.04" x2="300.2783" y1="267.8906" y2="267.8906"/><text fill="#000000" font-family="sans-serif" font-size="14" lengthAdjust="spacing" textLength="81.2383" x="209.04" y="259.5889">Diagnostics</text></g><g id="Maintenance.Maintenance_Done"><rect fill="#F1F1F1" height="50" rx="12.5" ry="12.5" style="stroke:#181818;stroke-width:0.5;" width="153.9912" x="172.66" y="344.5938"/><line style="stroke:#181818;stroke-width:0.5;" x1="172.66" x2="326.6512" y1="370.8906" y2="370.8906"/><text fill="#000000" font-family="sans-serif" font-size="14" lengthAdjust="spacing" textLength="133.9912" x="182.66" y="362.5889">Maintenance_Done</text></g><ellipse cx="249.66" cy="442.5938" fill="none" rx="11" ry="11" style="stroke:#222222;stroke-width:1;"/><ellipse cx="249.66" cy="442.5938" fill="#222222" rx="6" ry="6" style="stroke:#222222;stroke-width:1;"/><!--link *start*Maintenance to Scheduled_Maintenance--><g class="link" data-entity-1="*start*Maintenance" data-entity-2="Scheduled_Maintenance" data-source-line="28" data-uid="lnk31" id="link_*start*Maintenance_Scheduled_Maintenance"><path d="M249.66,101.7937 C249.66,114.1938 249.66,130.7038 249.66,148.1538" fill="none" id="*start*Maintenance-to-Scheduled_Maintenance" style="stroke:#181818;stroke-width:1;"/><polygon fill="#181818" points="249.66,154.1538,253.66,145.1538,249.66,149.1538,245.66,145.1538,249.66,154.1538" style="stroke:#181818;stroke-width:1;"/><text fill="#000000" font-family="sans-serif" font-size="13" lengthAdjust="spacing" textLength="116.8604" x="250.66" y="132.6606">weekly&#160;02:00&#160;KSA</text></g><!--link Scheduled_Maintenance to Diagnostics--><g class="link" data-entity-1="Scheduled_Maintenance" data-entity-2="Diagnostics" data-source-line="29" data-uid="lnk33" id="link_Scheduled_Maintenance_Diagnostics"><path d="M249.66,204.7238 C249.66,216.1138 249.66,223.6738 249.66,235.1038" fill="none" id="Scheduled_Maintenance-to-Diagnostics" style="stroke:#181818;stroke-width:1;"/><polygon fill="#181818" points="249.66,241.1038,253.66,232.1038,249.66,236.1038,245.66,232.1038,249.66,241.1038" style="stroke:#181818;stroke-width:1;"/></g><!--link Diagnostics to Maintenance_Done--><g class="link" data-entity-1="Diagnostics" data-entity-2="Maintenance_Done" data-source-line="30" data-uid="lnk35" id="link_Diagnostics_Maintenance_Done"><path d="M249.66,292.0438 C249.66,307.9238 249.66,322.5338 249.66,338.3738" fill="none" id="Diagnostics-to-Maintenance_Done" style="stroke:#181818;stroke-width:1;"/><polygon fill="#181818" points="249.66,344.3738,253.66,335.3738,249.66,339.3738,245.66,335.3738,249.66,344.3738" style="stroke:#181818;stroke-width:1;"/><text fill="#000000" font-family="sans-serif" font-size="13" lengthAdjust="spacing" textLength="87.0454" x="250.66" y="322.6606">all&#160;checks&#160;OK</text></g><!--link Maintenance_Done to *end*Maintenance--><g class="link" data-entity-1="Maintenance_Done" data-entity-2="*end*Maintenance" data-source-line="31" data-uid="lnk37" id="link_Maintenance_Done_*end*Maintenance"><path d="M249.66,395.0238 C249.66,407.3838 249.66,415.7238 249.66,425.1938" fill="none" id="Maintenance_Done-to-*end*Maintenance" style="stroke:#181818;stroke-width:1;"/><polygon fill="#181818" points="249.66,431.1938,253.66,422.1938,249.66,426.1938,245.66,422.1938,249.66,431.1938" style="stroke:#181818;stroke-width:1;"/></g><path d="M446.29,87.7969 L593.7177,87.7969 A12.5,12.5 0 0 1 606.2177,100.2969 L606.2177,114.0938 L433.79,114.0938 L433.79,100.2969 A12.5,12.5 0 0 1 446.29,87.7969" fill="#F1F1F1" style="stroke:#F1F1F1;stroke-width:1;"/><rect fill="none" height="332.2969" rx="12.5" ry="12.5" style="stroke:#181818;stroke-width:0.5;" width="172.4277" x="433.79" y="87.7969"/><line style="stroke:#181818;stroke-width:0.5;" x1="433.79" x2="606.2177" y1="114.0938" y2="114.0938"/><text fill="#000000" font-family="sans-serif" font-size="14" lengthAdjust="spacing" textLength="68.6875" x="485.6601" y="105.792">Reporting</text><ellipse cx="521.5" cy="135.0938" fill="#222222" rx="10" ry="10" style="stroke:#222222;stroke-width:1;"/><g id="Reporting.Periodic_Reporting"><rect fill="#F1F1F1" height="50" rx="12.5" ry="12.5" style="stroke:#181818;stroke-width:0.5;" width="151.4277" x="445.79" y="198.0938"/><line style="stroke:#181818;stroke-width:0.5;" x1="445.79" x2="597.2177" y1="224.3906" y2="224.3906"/><text fill="#000000" font-family="sans-serif" font-size="14" lengthAdjust="spacing" textLength="131.4277" x="455.79" y="216.0889">Periodic_Reporting</text></g><g id="Reporting.Audit_Complete"><rect fill="#F1F1F1" height="50" rx="12.5" ry="12.5" style="stroke:#181818;stroke-width:0.5;" width="131.1865" x="455.91" y="301.0938"/><line style="stroke:#181818;stroke-width:0.5;" x1="455.91" x2="587.0965" y1="327.3906" y2="327.3906"/><text fill="#000000" font-family="sans-serif" font-size="14" lengthAdjust="spacing" textLength="111.1865" x="465.91" y="319.0889">Audit_Complete</text></g><ellipse cx="521.5" cy="399.0938" fill="none" rx="11" ry="11" style="stroke:#222222;stroke-width:1;"/><ellipse cx="521.5" cy="399.0938" fill="#222222" rx="6" ry="6" style="stroke:#222222;stroke-width:1;"/><!--link *start*Reporting to Periodic_Reporting--><g class="link" data-entity-1="*start*Reporting" data-entity-2="Periodic_Reporting" data-source-line="47" data-uid="lnk52" id="link_*start*Reporting_Periodic_Reporting"><path d="M521.5,145.2938 C521.5,157.6938 521.5,174.2038 521.5,191.6538" fill="none" id="*start*Reporting-to-Periodic_Reporting" style="stroke:#181818;stroke-width:1;"/><polygon fill="#181818" points="521.5,197.6538,525.5,188.6538,521.5,192.6538,517.5,188.6538,521.5,197.6538" style="stroke:#181818;stroke-width:1;"/><text fill="#000000" font-family="sans-serif" font-size="13" lengthAdjust="spacing" textLength="69.7734" x="522.5" y="176.1606">every&#160;24&#160;h</text></g><!--link Periodic_Reporting to Audit_Complete--><g class="link" data-entity-1="Periodic_Reporting" data-entity-2="Audit_Complete" data-source-line="48" data-uid="lnk54" id="link_Periodic_Reporting_Audit_Complete"><path d="M521.5,248.5438 C521.5,264.4238 521.5,279.0338 521.5,294.8738" fill="none" id="Periodic_Reporting-to-Audit_Complete" style="stroke:#181818;stroke-width:1;"/><polygon fill="#181818" points="521.5,300.8738,525.5,291.8738,521.5,295.8738,517.5,291.8738,521.5,300.8738" style="stroke:#181818;stroke-width:1;"/><text fill="#000000" font-family="sans-serif" font-size="13" lengthAdjust="spacing" textLength="70.916" x="522.5" y="279.1606">filings sent</text></g><!--link Audit_Complete to *end*Reporting--><g class="link" data-entity-1="Audit_Complete" data-entity-2="*end*Reporting" data-source-line="49" data-uid="lnk56" id="link_Audit_Complete_*end*Reporting"><path d="M521.5,351.5238 C521.5,363.8837 521.5,372.2238 521.5,381.6938" fill="none" id="Audit_Complete-to-*end*Reporting" style="stroke:#181818;stroke-width:1;"/><polygon fill="#181818" points="521.5,387.6938,525.5,378.6938,521.5,382.6938,517.5,378.6938,521.5,387.6938" style="stroke:#181818;stroke-width:1;"/></g><ellipse cx="651" cy="253.9469" fill="#222222" rx="10" ry="10" style="stroke:#222222;stroke-width:1;"/><!--link *start* to Normal_Operation--><g class="link" data-entity-1="*start*" data-entity-2="Normal_Operation" data-source-line="7" data-uid="lnk3" id="link_*start*_Normal_Operation"><path d="M651.44,264.1069 C652.55,294.0469 653.52,391.2169 624,463.5969 C609.725,498.5969 584.3075,532.5744 562.1738,558.0569 C551.1069,570.7981 540.8609,581.4156 533.2392,588.9753 C531.3338,590.8652 533.9125,588.4004 532.3633,589.8935" fill="none" id="*start*-to-Normal_Operation" style="stroke:#181818;stroke-width:1;"/><polygon fill="#181818" points="528.0431,594.0571,537.2992,590.6918,531.6433,590.5874,531.7476,584.9315,528.0431,594.0571" style="stroke:#181818;stroke-width:1;"/></g><!--link *start*Normal_Operation to Idle--><g class="link" data-entity-1="*start*Normal_Operation" data-entity-2="Idle" data-source-line="10" data-uid="lnk6" id="link_*start*Normal_Operation_Idle"><path d="M370.14,1464.6469 C362.01,1477.9869 344.95,1505.4169 329,1527.5969 C321.86,1537.5169 317.3437,1543.4341 309.9737,1552.5841" fill="none" id="*start*Normal_Operation-to-Idle" style="stroke:#181818;stroke-width:1;"/><polygon fill="#181818" points="306.21,1557.2569,314.9707,1552.7569,309.3464,1553.3629,308.7404,1547.7386,306.21,1557.2569" style="stroke:#181818;stroke-width:1;"/><text fill="#000000" font-family="sans-serif" font-size="13" lengthAdjust="spacing" textLength="61.0645" x="340" y="1523.6638">power&#8209;on</text></g><!--link Idle to Vehicle_Approach--><g class="link" data-entity-1="Idle" data-entity-2="Vehicle_Approach" data-source-line="11" data-uid="lnk8" id="link_Idle_Vehicle_Approach"><path d="M260.55,1600.9769 C228.83,1622.6469 179.3846,1656.4227 143.5446,1680.9027" fill="none" id="Idle-to-Vehicle_Approach" style="stroke:#181818;stroke-width:1;"/><polygon fill="#181818" points="138.59,1684.2869,148.2779,1682.5137,142.7188,1681.4668,143.7657,1675.9076,138.59,1684.2869" style="stroke:#181818;stroke-width:1;"/><text fill="#000000" font-family="sans-serif" font-size="13" lengthAdjust="spacing" textLength="428.1494" x="206" y="1650.6638">VehicleDete:contentReference[oaicite:6]{index=6}ateScan / V2X</text></g><!--link Identify_Vehicle to Authenticate--><g class="link" data-entity-1="Identify_Vehicle" data-entity-2="Authenticate" data-source-line="12" data-uid="lnk11" id="link_Identify_Vehicle_Authenticate"><path d="M269,627.8669 C269,655.1069 269,693.0369 269,720.2869" fill="none" id="Identify_Vehicle-to-Authenticate" style="stroke:#181818;stroke-width:1;"/><polygon fill="#181818" points="269,726.2869,273,717.2869,269,721.2869,265,717.2869,269,726.2869" style="stroke:#181818;stroke-width:1;"/><text fill="#000000" font-family="sans-serif" font-size="13" lengthAdjust="spacing" textLength="83.8589" x="270" y="670.6638">AuthRequest</text></g><!--link Authenticate to AuthOK--><g class="link" data-entity-1="Authenticate" data-entity-2="AuthOK" data-source-line="13" data-uid="lnk13" id="link_Authenticate_AuthOK"><path d="M282.14,777.0569 C287.12,786.3069 292.82,796.9369 298,806.5969 C306.32,822.1269 312.8311,834.2756 320.1611,847.9856" fill="none" id="Authenticate-to-AuthOK" style="stroke:#181818;stroke-width:1;"/><polygon fill="#181818" points="322.99,853.2769,322.2741,843.4541,320.6326,848.8675,315.2191,847.226,322.99,853.2769" style="stroke:#181818;stroke-width:1;"/><text fill="#000000" font-family="sans-serif" font-size="13" lengthAdjust="spacing" textLength="100.7754" x="307" y="819.6638">&#10004; Auth&#160;granted</text></g><!--link Authenticate to AuthFail--><g class="link" data-entity-1="Authenticate" data-entity-2="AuthFail" data-source-line="14" data-uid="lnk15" id="link_Authenticate_AuthFail"><path d="M221.87,776.8469 C211.1,784.7769 201.05,794.6869 195,806.5969 C171.24,853.3569 183.2337,911.3297 193.7337,945.6297" fill="none" id="Authenticate-to-AuthFail" style="stroke:#181818;stroke-width:1;"/><polygon fill="#181818" points="195.49,951.3669,196.6804,941.5902,194.0264,946.5859,189.0308,943.9319,195.49,951.3669" style="stroke:#181818;stroke-width:1;"/><text fill="#000000" font-family="sans-serif" font-size="13" lengthAdjust="spacing" textLength="93.9771" x="196" y="819.6638">&#10006; Auth&#160;denied</text></g><!--link AuthFail to Idle--><g class="link" data-entity-1="AuthFail" data-entity-2="Idle" data-source-line="15" data-uid="lnk16" id="link_AuthFail_Idle"><path d="M204,1001.9169 C204,1033.1969 204,1089.1869 204,1137.0969 C204,1137.0969 204,1137.0969 204,1456.5969 C204,1498.3869 232.0875,1532.9065 256.1575,1555.8565" fill="none" id="AuthFail-to-Idle" style="stroke:#181818;stroke-width:1;"/><polygon fill="#181818" points="260.5,1559.9969,256.7466,1550.8913,256.8813,1556.5465,251.226,1556.6812,260.5,1559.9969" style="stroke:#181818;stroke-width:1;"/><text fill="#000000" font-family="sans-serif" font-size="13" lengthAdjust="spacing" textLength="42.1104" x="205" y="1269.6638">cancel</text></g><!--link AuthOK to Dispensing--><g class="link" data-entity-1="AuthOK" data-entity-2="Dispensing" data-source-line="17" data-uid="lnk18" id="link_AuthOK_Dispensing"><path d="M334.65,903.9069 C333.47,928.5269 332.06,967.7069 333,1001.5969 C333.27,1011.2669 333.4603,1015.9071 334.0003,1025.1571" fill="none" id="AuthOK-to-Dispensing" style="stroke:#181818;stroke-width:1;"/><polygon fill="#181818" points="334.35,1031.1469,337.8187,1021.9291,334.0586,1026.1554,329.8323,1022.3953,334.35,1031.1469" style="stroke:#181818;stroke-width:1;"/><text fill="#000000" font-family="sans-serif" font-size="13" lengthAdjust="spacing" textLength="128.2925" x="334" y="981.1638">ConfigureDispenser</text></g><!--link Dispensing to Payment_Processing--><g class="link" data-entity-1="Dispensing" data-entity-2="Payment_Processing" data-source-line="18" data-uid="lnk20" id="link_Dispensing_Payment_Processing"><path d="M336,1081.8569 C336,1108.1469 336,1143.8769 336,1170.2169" fill="none" id="Dispensing-to-Payment_Processing" style="stroke:#181818;stroke-width:1;"/><polygon fill="#181818" points="336,1176.2169,340,1167.2169,336,1171.2169,332,1167.2169,336,1176.2169" style="stroke:#181818;stroke-width:1;"/><text fill="#000000" font-family="sans-serif" font-size="13" lengthAdjust="spacing" textLength="81.6309" x="337" y="1142.6638">FuelingDone</text></g><!--link Payment_Processing to Receipt--><g class="link" data-entity-1="Payment_Processing" data-entity-2="Receipt" data-source-line="19" data-uid="lnk22" id="link_Payment_Processing_Receipt"><path d="M306.86,1227.0369 C298.87,1235.4869 291.24,1245.6169 287,1256.5969 C281.32,1271.3169 280.7175,1283.0972 282.1375,1297.1672" fill="none" id="Payment_Processing-to-Receipt" style="stroke:#181818;stroke-width:1;"/><polygon fill="#181818" points="282.74,1303.1369,285.8161,1293.7807,282.2379,1298.1621,277.8565,1294.584,282.74,1303.1369" style="stroke:#181818;stroke-width:1;"/><text fill="#000000" font-family="sans-serif" font-size="13" lengthAdjust="spacing" textLength="64.2637" x="288" y="1269.6638">&#128179;&#160;Success</text></g><!--link Payment_Processing to Payment_Failed--><g class="link" data-entity-1="Payment_Processing" data-entity-2="Payment_Failed" data-source-line="20" data-uid="lnk24" id="link_Payment_Processing_Payment_Failed"><path d="M353.37,1226.9969 C369.05,1249.0169 388.5191,1276.3698 404.1891,1298.3698" fill="none" id="Payment_Processing-to-Payment_Failed" style="stroke:#181818;stroke-width:1;"/><polygon fill="#181818" points="407.67,1303.2569,405.7067,1293.6057,404.7692,1299.1843,399.1906,1298.2469,407.67,1303.2569" style="stroke:#181818;stroke-width:1;"/><text fill="#000000" font-family="sans-serif" font-size="13" lengthAdjust="spacing" textLength="68.8022" x="386" y="1269.6638">&#128179;&#160;Declined</text></g><!--link Payment_Failed to Incident--><g class="link" data-entity-1="Payment_Failed" data-entity-2="Incident" data-source-line="21" data-uid="lnk25" id="link_Payment_Failed_Incident"><path d="M446.31,1303.1469 C464.93,1279.2169 489,1240.8769 489,1202.5969 C489,877.5969 489,877.5969 489,877.5969 C489,844.2819 510.075,813.4794 531.48,790.7869 C542.1825,779.4406 552.9675,770.1219 561.2419,763.5303 C563.3105,761.8824 565.2221,760.405 566.9364,759.1089 C567.1507,758.9469 567.3619,758.7877 567.5699,758.6314 C567.6739,758.5533 562.9751,762.0731 563.0776,761.9964" fill="none" id="Payment_Failed-to-Incident" style="stroke:#181818;stroke-width:1;"/><polygon fill="#181818" points="567.8796,758.3991,558.2783,760.5937,563.8779,761.3968,563.0748,766.9964,567.8796,758.3991" style="stroke:#181818;stroke-width:1;"/><text fill="#000000" font-family="sans-serif" font-size="13" lengthAdjust="spacing" textLength="74.8452" x="490" y="1061.1638">triggerAlert</text></g><!--link Receipt to Complete--><g class="link" data-entity-1="Receipt" data-entity-2="Complete" data-source-line="23" data-uid="lnk27" id="link_Receipt_Complete"><path d="M286.8,1353.9969 C286.63,1376.0169 286.4191,1402.2571 286.2391,1424.2571" fill="none" id="Receipt-to-Complete" style="stroke:#181818;stroke-width:1;"/><polygon fill="#181818" points="286.19,1430.2569,290.2635,1421.2899,286.2309,1425.257,282.2638,1421.2245,286.19,1430.2569" style="stroke:#181818;stroke-width:1;"/><text fill="#000000" font-family="sans-serif" font-size="13" lengthAdjust="spacing" textLength="61.8262" x="287" y="1396.6638">e&#8209;Receipt</text></g><!--link Complete to Idle--><g class="link" data-entity-1="Complete" data-entity-2="Idle" data-source-line="24" data-uid="lnk28" id="link_Complete_Idle"><path d="M286,1480.9969 C286,1503.0169 286,1529.2569 286,1551.2569" fill="none" id="Complete-to-Idle" style="stroke:#181818;stroke-width:1;"/><polygon fill="#181818" points="286,1557.2569,290,1548.2569,286,1552.2569,282,1548.2569,286,1557.2569" style="stroke:#181818;stroke-width:1;"/><text fill="#000000" font-family="sans-serif" font-size="13" lengthAdjust="spacing" textLength="33.2109" x="287" y="1523.6638">reset</text></g><!--link *start*Incident to Safety_Incident--><g class="link" data-entity-1="*start*Incident" data-entity-2="Safety_Incident" data-source-line="35" data-uid="lnk40" id="link_*start*Incident_Safety_Incident"><path d="M637.23,761.5869 C641.95,780.6169 651.6455,819.7133 658.5955,847.7333" fill="none" id="*start*Incident-to-Safety_Incident" style="stroke:#181818;stroke-width:1;"/><polygon fill="#181818" points="660.04,853.5569,661.7557,843.8586,658.8363,848.7039,653.991,845.7845,660.04,853.5569" style="stroke:#181818;stroke-width:1;"/><text fill="#000000" font-family="sans-serif" font-size="13" lengthAdjust="spacing" textLength="142.2764" x="653" y="819.6638">E&#8209;Stop&#160;/&#160;Sensor&#160;Alarm</text></g><!--link Safety_Incident to Incident_Logged--><g class="link" data-entity-1="Safety_Incident" data-entity-2="Incident_Logged" data-source-line="36" data-uid="lnk42" id="link_Safety_Incident_Incident_Logged"><path d="M666.28,904.0669 C666.66,937.6969 667.272,991.8173 667.652,1025.3373" fill="none" id="Safety_Incident-to-Incident_Logged" style="stroke:#181818;stroke-width:1;"/><polygon fill="#181818" points="667.72,1031.3369,671.6177,1022.2921,667.6633,1026.3372,663.6182,1022.3828,667.72,1031.3369" style="stroke:#181818;stroke-width:1;"/><text fill="#000000" font-family="sans-serif" font-size="13" lengthAdjust="spacing" textLength="73.9375" x="668" y="981.1638">auto&#8209;report</text></g><!--link Incident_Logged to Idle--><g class="link" data-entity-1="Incident_Logged" data-entity-2="Idle" data-source-line="37" data-uid="lnk43" id="link_Incident_Logged_Idle"><path d="M634.78,1082.0569 C604.02,1107.7769 563,1151.3169 563,1200.5969 C563,1200.5969 563,1200.5969 563,1456.5969 C563,1566.5969 385.2589,1580.2216 317.0689,1581.5316" fill="none" id="Incident_Logged-to-Idle" style="stroke:#181818;stroke-width:1;"/><polygon fill="#181818" points="311.07,1581.6469,320.1452,1585.4733,316.0691,1581.5508,319.9915,1577.4747,311.07,1581.6469" style="stroke:#181818;stroke-width:1;"/><text fill="#000000" font-family="sans-serif" font-size="13" lengthAdjust="spacing" textLength="48.3184" x="564" y="1333.1638">cleared</text></g><!--link *start*Isolated_Mode to Edge_Isolated--><g class="link" data-entity-1="*start*Isolated_Mode" data-entity-2="Edge_Isolated" data-source-line="41" data-uid="lnk46" id="link_*start*Isolated_Mode_Edge_Isolated"><path d="M1036.5,612.7969 C1040.15,635.1669 1048.6333,687.1253 1054.0533,720.3253" fill="none" id="*start*Isolated_Mode-to-Edge_Isolated" style="stroke:#181818;stroke-width:1;"/><polygon fill="#181818" points="1055.02,726.2469,1057.5177,716.72,1054.2144,721.3122,1049.6222,718.0089,1055.02,726.2469" style="stroke:#181818;stroke-width:1;"/><text fill="#000000" font-family="sans-serif" font-size="13" lengthAdjust="spacing" textLength="101.0356" x="1047" y="670.6638">WAN&#160;lost&#8239;&gt;&#8239;60&#8239;s</text></g><!--link Edge_Isolated to Sync_Pending--><g class="link" data-entity-1="Edge_Isolated" data-entity-2="Sync_Pending" data-source-line="42" data-uid="lnk48" id="link_Edge_Isolated_Sync_Pending"><path d="M1059,776.9969 C1059,799.0169 1059,825.2569 1059,847.2569" fill="none" id="Edge_Isolated-to-Sync_Pending" style="stroke:#181818;stroke-width:1;"/><polygon fill="#181818" points="1059,853.2569,1063,844.2569,1059,848.2569,1055,844.2569,1059,853.2569" style="stroke:#181818;stroke-width:1;"/><text fill="#000000" font-family="sans-serif" font-size="13" lengthAdjust="spacing" textLength="90.3652" x="1060" y="819.6638">WAN&#160;restored</text></g><!--link Sync_Pending to Normal_Operation--><g class="link" data-entity-1="Sync_Pending" data-entity-2="Normal_Operation" data-source-line="43" data-uid="lnk49" id="link_Sync_Pending_Normal_Operation"><path d="M1016.57,853.2469 C983.79,833.8169 937.81,805.2169 900,776.5969 C850.06,738.7869 847.08,717.3969 795,682.5969 C773.68,668.3469 767.15,666.2169 743,657.5969 C695.73,640.7219 640.97,627.3769 597.5438,618.1744 C575.8306,613.5731 556.9509,610.0075 543.2577,607.5541 C539.8343,606.9407 536.7352,606.3969 533.9969,605.9237 C532.6278,605.6871 531.3489,605.4683 530.1648,605.2672 C529.5728,605.1667 529.0044,605.0706 528.4604,604.979 C528.3244,604.9561 534.107,605.9276 533.974,605.9053" fill="none" id="Sync_Pending-to-Normal_Operation" style="stroke:#181818;stroke-width:1;"/><polygon fill="#181818" points="528.0569,604.9111,536.2697,610.3471,532.9878,605.7396,537.5953,602.4576,528.0569,604.9111" style="stroke:#181818;stroke-width:1;"/><text fill="#000000" font-family="sans-serif" font-size="13" lengthAdjust="spacing" textLength="81.3008" x="901" y="756.1638">data&#160;re&#8209;sync</text></g><!--link Normal_Operation to Maintenance--><g class="link" data-entity-1="Normal_Operation" data-entity-2="Maintenance" data-source-line="53" data-uid="lnk57" id="link_Normal_Operation_Maintenance"><path d="M522.2885,534.2832 C522.1902,534.027 522.0899,533.7717 521.9876,533.5174 C521.783,533.0089 521.5704,532.5043 521.3494,532.004 C520.9074,531.0035 520.4322,530.0201 519.9219,529.0564 C517.8808,525.2017 515.2788,521.6619 512,518.5969 C489.51,497.5669 256.46,532.6769 235,510.5969 C221.95,497.1669 215.3394,487.0691 210.9294,469.8591" fill="none" id="Normal_Operation-to-Maintenance" style="stroke:#181818;stroke-width:1;"/><polygon fill="#181818" points="209.44,464.0469,207.7992,473.7581,210.6811,468.8904,215.5488,471.7723,209.44,464.0469" style="stroke:#181818;stroke-width:1;"/><text fill="#000000" font-family="sans-serif" font-size="13" lengthAdjust="spacing" textLength="118.0537" x="236" y="506.6638">scheduledWindow</text></g><!--link Maintenance to Normal_Operation--><g class="link" data-entity-1="Maintenance" data-entity-2="Normal_Operation" data-source-line="56" data-uid="lnk60" id="link_Maintenance_Normal_Operation"><path d="M371.16,463.9569 C387.76,482.0269 406.35,498.1369 427,510.5969 C443.24,520.3969 498.57,505.1969 512,518.5969 C515.1763,521.7669 517.7006,525.3862 519.6844,529.2997 C520.1804,530.278 520.6425,531.2748 521.0726,532.2875 C521.2877,532.7938 521.4947,533.3042 521.694,533.8182 C521.7936,534.0752 519.8094,528.7059 519.9051,528.9647" fill="none" id="Maintenance-to-Normal_Operation" style="stroke:#181818;stroke-width:1;"/><polygon fill="#181818" points="521.987,534.5919,522.6156,524.7631,520.2521,529.9026,515.1127,527.5391,521.987,534.5919" style="stroke:#181818;stroke-width:1;"/><text fill="#000000" font-family="sans-serif" font-size="13" lengthAdjust="spacing" textLength="80.7676" x="428" y="506.6638">serviceDone</text></g><!--link Normal_Operation to Incident--><g class="link" data-entity-1="Normal_Operation" data-entity-2="Incident" data-source-line="54" data-uid="lnk58" id="link_Normal_Operation_Incident"><path d="M528.0643,624.7672 C528.1414,624.9696 528.2189,625.173 528.2968,625.3776 C528.6085,626.1958 528.9269,627.0313 529.2514,627.8831 C534.4441,641.5125 541.2281,659.3194 548.0113,677.1244 C554.7944,694.9294 561.5766,712.7325 566.7655,726.3544 C567.0898,727.2057 567.4079,728.0408 567.7193,728.8585 C567.7972,729.0629 565.7388,723.6592 565.8159,723.8615" fill="none" id="Normal_Operation-to-Incident" style="stroke:#181818;stroke-width:1;"/><polygon fill="#181818" points="567.9517,729.4684,568.486,719.6341,566.1718,724.796,561.01,722.4818,567.9517,729.4684" style="stroke:#181818;stroke-width:1;"/><text fill="#000000" font-family="sans-serif" font-size="13" lengthAdjust="spacing" textLength="72.4966" x="547" y="670.6638">safetyFault</text></g><!--link Incident to Normal_Operation--><g class="link" data-entity-1="Incident" data-entity-2="Normal_Operation" data-source-line="57" data-uid="lnk61" id="link_Incident_Normal_Operation"><path d="M575.0499,698.5641 C575.1181,698.345 575.1877,698.1265 575.2587,697.9086 C575.4008,697.4727 575.5484,697.0391 575.7019,696.6081 C576.3156,694.8839 577.0218,693.2 577.8307,691.572 C579.4486,688.3159 581.4775,685.2831 584,682.5969 C597.61,668.1069 615.26,689.8569 628,674.5969 C632.84,668.7969 631.97,664.0269 628,657.5969 C614.115,635.1269 587.735,621.6944 564.5238,613.8469 C552.9181,609.9231 542.1047,607.3956 534.0414,605.8328 C532.0256,605.4421 530.1817,605.1117 528.5402,604.8348 C528.4376,604.8175 534.2537,605.7899 534.1527,605.773" fill="none" id="Incident-to-Normal_Operation" style="stroke:#181818;stroke-width:1;"/><polygon fill="#181818" points="528.2348,604.7836,536.452,610.2129,533.1663,605.6081,537.7712,602.3225,528.2348,604.7836" style="stroke:#181818;stroke-width:1;"/><text fill="#000000" font-family="sans-serif" font-size="13" lengthAdjust="spacing" textLength="102.4448" x="632" y="670.6638">incidentCleared</text></g><!--link Normal_Operation to Isolated_Mode--><g class="link" data-entity-1="Normal_Operation" data-entity-2="Isolated_Mode" data-source-line="55" data-uid="lnk59" id="link_Normal_Operation_Isolated_Mode"><path d="M528.1519,602.5969 C528.4,602.5969 528.6535,602.5969 528.9122,602.5969 C533.0516,602.5969 538.5419,602.5969 545.19,602.5969 C558.4863,602.5969 576.4139,602.5969 597.4278,602.5969 C639.4556,602.5969 693.8288,602.5969 748.1875,602.5969 C802.5463,602.5969 856.8906,602.5969 898.8609,602.5969 C919.8461,602.5969 937.7377,602.5969 950.9909,602.5969 C957.6175,602.5969 963.0844,602.5969 967.1987,602.5969 C967.4558,602.5969 961.7077,602.5969 961.9542,602.5969" fill="none" id="Normal_Operation-to-Isolated_Mode" style="stroke:#181818;stroke-width:1;"/><polygon fill="#181818" points="967.9542,602.5969,958.9542,598.5969,962.9542,602.5969,958.9542,606.5969,967.9542,602.5969" style="stroke:#181818;stroke-width:1;"/><text fill="#000000" font-family="sans-serif" font-size="13" lengthAdjust="spacing" textLength="66.7139" x="715" y="595.6638">WAN_Loss</text></g><!--link Isolated_Mode to Incident--><g class="link" data-entity-1="Isolated_Mode" data-entity-2="Incident" data-source-line="58" data-uid="lnk62" id="link_Isolated_Mode_Incident"><path d="M967.9445,606.8511 C967.8112,606.9041 967.6763,606.9577 967.54,607.0118 C966.9945,607.2285 966.4244,607.4545 965.8303,607.6894 C964.6421,608.1591 963.3577,608.6646 961.9814,609.2034 C959.2289,610.2809 956.1088,611.4913 952.655,612.8147 C938.84,618.1081 919.6875,625.2081 897.375,632.8319 C852.75,648.0794 795.485,665.4219 743,674.5969 C725.58,677.6469 596.92,670.5169 584,682.5969 C581.3088,685.1144 579.152,688.0194 577.4398,691.1811 C576.5838,692.762 575.8388,694.407 575.1937,696.0999 C575.0324,696.5231 574.8774,696.9493 574.7285,697.3782 C574.654,697.5927 574.581,697.8079 574.5095,698.0237 C574.4738,698.1316 576.2842,692.5306 576.2492,692.6388" fill="none" id="Isolated_Mode-to-Incident" style="stroke:#181818;stroke-width:1;"/><polygon fill="#181818" points="574.4035,698.3479,580.9781,691.0148,575.9416,693.5903,573.3661,688.5538,574.4035,698.3479" style="stroke:#181818;stroke-width:1;"/><text fill="#000000" font-family="sans-serif" font-size="13" lengthAdjust="spacing" textLength="75.9307" x="815" y="670.6638">criticalFault</text></g><!--link Normal_Operation to Reporting--><g class="link" data-entity-1="Normal_Operation" data-entity-2="Reporting" data-source-line="59" data-uid="lnk63" id="link_Normal_Operation_Reporting"><path d="M518.353,534.2328 C518.3472,533.9141 518.3414,533.5954 518.3357,533.2766 C518.2897,530.7264 518.2461,528.1729 518.2053,525.6294 C518.1238,520.5423 518.0538,515.4956 518,510.5969 C517.68,481.4169 517.632,456.3568 517.772,426.3168" fill="none" id="Normal_Operation-to-Reporting" style="stroke:#181818;stroke-width:1;"/><polygon fill="#181818" points="517.8,420.3169,513.7581,429.2981,517.7767,425.3168,521.758,429.3354,517.8,420.3169" style="stroke:#181818;stroke-width:1;"/><text fill="#000000" font-family="sans-serif" font-size="13" lengthAdjust="spacing" textLength="10.8926" x="519" y="506.6638">&#8635;</text></g><!--link Reporting to Normal_Operation--><g class="link" data-entity-1="Reporting" data-entity-2="Normal_Operation" data-source-line="60" data-uid="lnk64" id="link_Reporting_Normal_Operation"><path d="M534.3,420.3769 C535.22,450.4169 535.07,481.4469 533,510.5969 C532.2975,520.4669 531.1725,530.8938 529.8709,541.0288 C529.5455,543.5625 529.2091,546.078 528.8655,548.562 C528.6937,549.804 528.5201,551.0381 528.3452,552.2627 C528.2577,552.875 528.1699,553.4849 528.0818,554.0923 C528.0598,554.2441 528.9019,548.4583 528.8798,548.6098" fill="none" id="Reporting-to-Normal_Operation" style="stroke:#181818;stroke-width:1;"/><polygon fill="#181818" points="528.0158,554.5473,533.2702,546.2171,528.7358,549.5994,525.3535,545.065,528.0158,554.5473" style="stroke:#181818;stroke-width:1;"/><text fill="#000000" font-family="sans-serif" font-size="13" lengthAdjust="spacing" textLength="22.6421" x="534" y="506.6638">ack</text></g><!--SRC=[fLNDQjj04BxhAVOMA0arpi_1q82n4mXf4nD3KWX1R5TZUV5Qg-wkaffWo2dtXj1JeNg37dhiJO_Y9-WZT7ObsR9ifvJaZsZd-xGpttmpDjm88FqnLUOu0K7wanQJaO78NC0054GChYNbZ1jeDM_kUHJ0btVDwUpvuPK_tbQMdaartdpTRddTxdG8GI8W858H9fK2PlZjPk9UIToRSZCXC0OL8e23jfUUQ2dePl9-ITwV4Y6riPGBYAKoF0gpjFuzUtpAKWLX8gYHQh9D65MVPBHDP0pHxE5hG0qbXkgHk_lrilstpDxrcnkoitD8hDXK-ESnA6guZ3nF6sfWvPpSUmI_Ijf9WFveaLZUWS9wa6UZxjI6Bs78cG2_7STAKZP4Q77K1LHpeym7fSm7KqoYpsX4tfBBviVYxSZXWubVlChTr4xCq1upctJBFLx0vmImHPQp52xnvwU8d7r_TWzP6YgAwGIRySUK2yVuLZ0m4LuXk7X55KoRWV3cSRpFHhjSO_Sr6WOn7HaDU9WeA4v1ENW5OoazEXbZEdvFIGQweDg9nF-wCWB7MGEot0jWm6E3X3y_ddvbQJzXDlmIfJos1U5SbSmkCBomABY6SMNZ5DdU8C4e7eQWsWAKoGKeqx30ZXp70boZ05rJX1ni7gheg423yQQb9JzGRcrZnQsviS-ALU1NCIro1p0IaonjD5kDHfQUzjkEjXwUjuY64OutPxfen_pPnIjut-gFTr0XiXHVo4OwIyzF7Mq5PhcOxAAMkMIrGkW0pCIl27g4ElMDZBFqBROGhI5LbhO5LUEyb1gXsWx_lSHUs3RIn4XyZt8BAv-b6gRgNW5KORCNkThLQAnQCgWhVnI4u9S095-rpxBKBiZPmyz3_3reu9zSosMegtOICRy7KP3xsd6nvxWn2wyj0TPjAsJPLMffM9z6-2Bj-NgkfTm3nMN0cRy0e1rlGQ5HcdjPEinjlehArq70ZL_nyO3RMTH4evZ5m2yXAftVUdadPsb7IQtjfuCSeu5mbYXk0bkc_jTdXBSYJCsjcAakNN-5ArRUhQTKdAUTjOvf8im6x98lNF_GJhXXwbErfckuxsuv0xV3biox1ikBUASmvlAzjQoPudPxYnVohlPzzlZRM-xmcWGe6_q5]--></g></svg>